<?xml version="1.0" encoding="utf-8"?>
<!-- Generator: Adobe Illustrator 17.1.0, SVG Export Plug-In . SVG Version: 6.00 Build 0)  -->
<!DOCTYPE svg PUBLIC "-//W3C//DTD SVG 1.1//EN" "http://www.w3.org/Graphics/SVG/1.1/DTD/svg11.dtd">
<svg version="1.1" id="Layer_1" xmlns="http://www.w3.org/2000/svg" xmlns:xlink="http://www.w3.org/1999/xlink" x="0px" y="0px"
	 viewBox="0 0 10.6 8.1" style="enable-background:new 0 0 10.6 8.1;" xml:space="preserve">
<style type="text/css">
	.st0{clip-path:url(#SVGID_2_);enable-background:new    ;}
	.st1{clip-path:url(#SVGID_4_);}
	.st2{clip-path:url(#SVGID_6_);fill:#9A9B9B;}
	.st3{clip-path:url(#SVGID_8_);enable-background:new    ;}
	.st4{clip-path:url(#SVGID_10_);}
	.st5{clip-path:url(#SVGID_12_);fill:#9A9B9B;}
	.st6{clip-path:url(#SVGID_14_);enable-background:new    ;}
	.st7{clip-path:url(#SVGID_16_);}
	.st8{clip-path:url(#SVGID_18_);fill:#9A9B9B;}
	.st9{clip-path:url(#SVGID_20_);enable-background:new    ;}
	.st10{clip-path:url(#SVGID_22_);}
	.st11{clip-path:url(#SVGID_24_);fill:#9A9B9B;}
	.st12{clip-path:url(#SVGID_26_);enable-background:new    ;}
	.st13{clip-path:url(#SVGID_28_);}
	.st14{clip-path:url(#SVGID_30_);fill:#9A9B9B;}
	.st15{clip-path:url(#SVGID_32_);fill:#9A9B9B;}
	.st16{clip-path:url(#SVGID_34_);fill:#9A9B9B;}
	.st17{clip-path:url(#SVGID_36_);fill:#9A9B9B;}
</style>
<g>
	<defs>
		<rect id="SVGID_1_" x="1.7" y="0" width="9" height="1.3"/>
	</defs>
	<clipPath id="SVGID_2_">
		<use xlink:href="#SVGID_1_"  style="overflow:visible;"/>
	</clipPath>
	<g class="st0">
		<g>
			<defs>
				<rect id="SVGID_3_" x="1.7" y="0" width="9.2" height="1.4"/>
			</defs>
			<clipPath id="SVGID_4_">
				<use xlink:href="#SVGID_3_"  style="overflow:visible;"/>
			</clipPath>
			<g class="st1">
				<defs>
					<path id="SVGID_5_" d="M2.4,0C2,0,1.7,0.3,1.7,0.7v0C1.7,1,2,1.3,2.4,1.3H10c0.4,0,0.7-0.3,0.7-0.7v0C10.6,0.3,10.4,0,10,0H2.4
						z"/>
				</defs>
				<clipPath id="SVGID_6_">
					<use xlink:href="#SVGID_5_"  style="overflow:visible;"/>
				</clipPath>
				<rect x="-0.6" y="-2.3" class="st2" width="13.6" height="6"/>
			</g>
		</g>
	</g>
</g>
<g>
	<defs>
		<rect id="SVGID_7_" x="1.7" y="2.2" width="9" height="1.3"/>
	</defs>
	<clipPath id="SVGID_8_">
		<use xlink:href="#SVGID_7_"  style="overflow:visible;"/>
	</clipPath>
	<g class="st3">
		<g>
			<defs>
				<rect id="SVGID_9_" x="1.7" y="1.8" width="9.2" height="1.8"/>
			</defs>
			<clipPath id="SVGID_10_">
				<use xlink:href="#SVGID_9_"  style="overflow:visible;"/>
			</clipPath>
			<g class="st4">
				<defs>
					<path id="SVGID_11_" d="M2.4,2.2C2,2.2,1.7,2.5,1.7,2.9v0c0,0.4,0.3,0.7,0.7,0.7H10c0.4,0,0.7-0.3,0.7-0.7v0
						c0-0.4-0.3-0.7-0.7-0.7H2.4z"/>
				</defs>
				<clipPath id="SVGID_12_">
					<use xlink:href="#SVGID_11_"  style="overflow:visible;"/>
				</clipPath>
				<rect x="-0.6" y="-0.1" class="st5" width="13.6" height="6"/>
			</g>
		</g>
	</g>
</g>
<g>
	<defs>
		<rect id="SVGID_13_" x="1.7" y="4.5" width="9" height="1.3"/>
	</defs>
	<clipPath id="SVGID_14_">
		<use xlink:href="#SVGID_13_"  style="overflow:visible;"/>
	</clipPath>
	<g class="st6">
		<g>
			<defs>
				<rect id="SVGID_15_" x="1.7" y="4.1" width="9.2" height="1.8"/>
			</defs>
			<clipPath id="SVGID_16_">
				<use xlink:href="#SVGID_15_"  style="overflow:visible;"/>
			</clipPath>
			<g class="st7">
				<defs>
					<path id="SVGID_17_" d="M2.4,4.5C2,4.5,1.7,4.8,1.7,5.1v0c0,0.4,0.3,0.7,0.7,0.7H10c0.4,0,0.7-0.3,0.7-0.7v0
						c0-0.4-0.3-0.7-0.7-0.7H2.4z"/>
				</defs>
				<clipPath id="SVGID_18_">
					<use xlink:href="#SVGID_17_"  style="overflow:visible;"/>
				</clipPath>
				<rect x="-0.6" y="2.2" class="st8" width="13.6" height="6"/>
			</g>
		</g>
	</g>
</g>
<g>
	<defs>
		<polygon id="SVGID_19_" points="1.7,6.7 1.7,8.1 6.2,8.1 10.6,8.1 10.6,6.7 		"/>
	</defs>
	<clipPath id="SVGID_20_">
		<use xlink:href="#SVGID_19_"  style="overflow:visible;"/>
	</clipPath>
	<g class="st9">
		<g>
			<defs>
				<rect id="SVGID_21_" x="1.7" y="6.4" width="9.2" height="1.8"/>
			</defs>
			<clipPath id="SVGID_22_">
				<use xlink:href="#SVGID_21_"  style="overflow:visible;"/>
			</clipPath>
			<g class="st10">
				<defs>
					<path id="SVGID_23_" d="M2.4,6.7C2,6.7,1.7,7,1.7,7.4v0c0,0.4,0.3,0.7,0.7,0.7H10c0.4,0,0.7-0.3,0.7-0.7v0
						c0-0.4-0.3-0.7-0.7-0.7H2.4z"/>
				</defs>
				<clipPath id="SVGID_24_">
					<use xlink:href="#SVGID_23_"  style="overflow:visible;"/>
				</clipPath>
				<rect x="-0.6" y="4.4" class="st11" width="13.6" height="6"/>
			</g>
		</g>
	</g>
</g>
<g>
	<defs>
		<rect id="SVGID_25_" x="0" y="0" width="1.3" height="1.3"/>
	</defs>
	<clipPath id="SVGID_26_">
		<use xlink:href="#SVGID_25_"  style="overflow:visible;"/>
	</clipPath>
	<g class="st12">
		<g>
			<defs>
				<rect id="SVGID_27_" x="-0.2" y="0" width="1.8" height="1.4"/>
			</defs>
			<clipPath id="SVGID_28_">
				<use xlink:href="#SVGID_27_"  style="overflow:visible;"/>
			</clipPath>
			<g class="st13">
				<defs>
					<path id="SVGID_29_" d="M0,0.7C0,1,0.3,1.3,0.7,1.3S1.3,1,1.3,0.7C1.3,0.3,1,0,0.7,0S0,0.3,0,0.7"/>
				</defs>
				<clipPath id="SVGID_30_">
					<use xlink:href="#SVGID_29_"  style="overflow:visible;"/>
				</clipPath>
				<rect x="-2.3" y="-2.3" class="st14" width="5.9" height="6"/>
			</g>
		</g>
	</g>
</g>
<g>
	<defs>
		<path id="SVGID_31_" d="M0,2.9c0,0.4,0.3,0.7,0.7,0.7s0.7-0.3,0.7-0.7c0-0.4-0.3-0.7-0.7-0.7S0,2.5,0,2.9"/>
	</defs>
	<clipPath id="SVGID_32_">
		<use xlink:href="#SVGID_31_"  style="overflow:visible;"/>
	</clipPath>
	<rect x="-2.3" y="-0.1" class="st15" width="5.9" height="6"/>
</g>
<g>
	<defs>
		<path id="SVGID_33_" d="M0,5.1c0,0.4,0.3,0.7,0.7,0.7s0.7-0.3,0.7-0.7c0-0.4-0.3-0.7-0.7-0.7S0,4.8,0,5.1"/>
	</defs>
	<clipPath id="SVGID_34_">
		<use xlink:href="#SVGID_33_"  style="overflow:visible;"/>
	</clipPath>
	<rect x="-2.3" y="2.2" class="st16" width="5.9" height="6"/>
</g>
<g>
	<defs>
		<path id="SVGID_35_" d="M0,7.4c0,0.4,0.3,0.7,0.7,0.7s0.7-0.3,0.7-0.7C1.3,7,1,6.7,0.7,6.7S0,7,0,7.4"/>
	</defs>
	<clipPath id="SVGID_36_">
		<use xlink:href="#SVGID_35_"  style="overflow:visible;"/>
	</clipPath>
	<rect x="-2.3" y="4.4" class="st17" width="5.9" height="6"/>
</g>
</svg>
