<?xml version="1.0" encoding="utf-8"?>
<!-- Generator: Adobe Illustrator 17.1.0, SVG Export Plug-In . SVG Version: 6.00 Build 0)  -->
<!DOCTYPE svg PUBLIC "-//W3C//DTD SVG 1.1//EN" "http://www.w3.org/Graphics/SVG/1.1/DTD/svg11.dtd">
<svg version="1.1" id="Layer_1" xmlns="http://www.w3.org/2000/svg" xmlns:xlink="http://www.w3.org/1999/xlink" x="0px" y="0px"
	 viewBox="0 0 15 14.8" style="enable-background:new 0 0 15 14.8;" xml:space="preserve">
<style type="text/css">
	.st0{clip-path:url(#SVGID_2_);fill:#9A9B9B;}
</style>
<g>
	<defs>
		<path id="SVGID_1_" d="M6.9,6.3c0.4,0.8,0.9,1.6,1.7,2.3C7.6,8.9,6.8,9.1,5.7,9.6C6,9,6.7,7.4,6.9,6.3 M7.1,2.6
			c0.8,0.5,0.3,1.6,0,2.7C6.9,4.6,6.6,3.1,7.1,2.6 M7,2.3c-0.3,0-0.6,0.2-0.7,0.5C6,3.5,6.6,5.7,6.8,6c-0.7,2-2.9,6-4.1,6.2
			c0-0.3,0.1-1,1.6-2c0.1-0.1,0.2-0.2,0.2-0.2c-1.2,0.6-2.9,1.6-1.9,2.3c0.1,0,0.1,0.1,0.2,0.1c0.7,0.3,1.8-0.6,2.8-2.7
			C6.8,9.4,7.7,9.1,9,8.9c1.4,1,2.4,1.2,3.1,0.9c0.2-0.1,0.5-0.3,0.5-0.6c-0.5,0.7-1.8,0.2-2.8-0.4c0.9-0.1,1.9-0.2,2.3,0
			c0.5,0.2,0.5,0.4,0.5,0.5c0-0.1,0.1-0.4,0-0.5C12.2,8,9.8,8.9,9,8.9C7.9,8.3,7.5,6.6,7.2,5.7c0.3-1.1,0.6-2,0.4-2.8
			C7.5,2.5,7.2,2.3,7,2.3C7,2.3,7,2.3,7,2.3"/>
	</defs>
	<clipPath id="SVGID_2_">
		<use xlink:href="#SVGID_1_"  style="overflow:visible;"/>
	</clipPath>
	<rect x="0" y="0" class="st0" width="15" height="14.8"/>
</g>
</svg>
