<?xml version="1.0" encoding="utf-8"?>
<!-- Generator: Adobe Illustrator 17.1.0, SVG Export Plug-In . SVG Version: 6.00 Build 0)  -->
<!DOCTYPE svg PUBLIC "-//W3C//DTD SVG 1.1//EN" "http://www.w3.org/Graphics/SVG/1.1/DTD/svg11.dtd">
<svg version="1.1" id="Layer_1" xmlns="http://www.w3.org/2000/svg" xmlns:xlink="http://www.w3.org/1999/xlink" x="0px" y="0px"
	 viewBox="0 0 11.1 8.2" style="enable-background:new 0 0 11.1 8.2;" xml:space="preserve">
<style type="text/css">
	.st0{clip-path:url(#SVGID_2_);enable-background:new    ;}
	.st1{clip-path:url(#SVGID_4_);}
	.st2{clip-path:url(#SVGID_6_);fill:#9A9B9B;}
</style>
<g>
	<defs>
		<rect id="SVGID_1_" x="0" y="0" width="11.1" height="8.2"/>
	</defs>
	<clipPath id="SVGID_2_">
		<use xlink:href="#SVGID_1_"  style="overflow:visible;"/>
	</clipPath>
	<g class="st0">
		<g>
			<defs>
				<rect id="SVGID_3_" x="-0.2" y="-0.3" width="11.5" height="8.8"/>
			</defs>
			<clipPath id="SVGID_4_">
				<use xlink:href="#SVGID_3_"  style="overflow:visible;"/>
			</clipPath>
			<g class="st1">
				<defs>
					<path id="SVGID_5_" d="M4,5.8V2.3C4,2.1,4.3,1.9,4.5,2l3,1.8c0.2,0.1,0.2,0.5,0,0.6l-3,1.8c-0.1,0-0.1,0-0.2,0
						C4.1,6.2,4,6,4,5.8 M0.9,0.3C0.5,0.4,0.2,0.7,0.2,1c-0.2,2.1-0.2,4.1,0,6.2c0,0.3,0.3,0.6,0.7,0.7c3.2,0.4,6.2,0.4,9.4,0
						c0.3,0,0.6-0.4,0.7-0.7c0.2-2.1,0.2-4.1,0-6.2c0-0.3-0.3-0.6-0.7-0.7C8.6,0.1,7.1,0,5.5,0C4,0,2.4,0.1,0.9,0.3"/>
				</defs>
				<clipPath id="SVGID_6_">
					<use xlink:href="#SVGID_5_"  style="overflow:visible;"/>
				</clipPath>
				<rect x="-2.3" y="-2.3" class="st2" width="15.7" height="12.8"/>
			</g>
		</g>
	</g>
</g>
</svg>
