<?xml version="1.0" encoding="utf-8"?>
<!-- Generator: Adobe Illustrator 17.1.0, SVG Export Plug-In . SVG Version: 6.00 Build 0)  -->
<!DOCTYPE svg PUBLIC "-//W3C//DTD SVG 1.1//EN" "http://www.w3.org/Graphics/SVG/1.1/DTD/svg11.dtd">
<svg version="1.1" id="Layer_1" xmlns="http://www.w3.org/2000/svg" xmlns:xlink="http://www.w3.org/1999/xlink" x="0px" y="0px"
	 viewBox="0 0 11.7 11.3" style="enable-background:new 0 0 11.7 11.3;" xml:space="preserve">
<style type="text/css">
	.st0{clip-path:url(#SVGID_2_);enable-background:new    ;}
	.st1{clip-path:url(#SVGID_4_);}
	.st2{clip-path:url(#SVGID_6_);fill:#9A9B9B;}
</style>
<g>
	<defs>
		<rect id="SVGID_1_" x="0" y="0" width="11.7" height="11.3"/>
	</defs>
	<clipPath id="SVGID_2_">
		<use xlink:href="#SVGID_1_"  style="overflow:visible;"/>
	</clipPath>
	<g class="st0">
		<g>
			<defs>
				<rect id="SVGID_3_" x="-0.2" y="-0.1" width="12" height="11.5"/>
			</defs>
			<clipPath id="SVGID_4_">
				<use xlink:href="#SVGID_3_"  style="overflow:visible;"/>
			</clipPath>
			<g class="st1">
				<defs>
					<path id="SVGID_5_" d="M4.5,3.7c0.3,0,0.5,0,0.8,0C5,4.9,4.8,6.2,4.4,7.5c-0.1,0.1-0.3,0.1-0.5,0c-0.1,0-0.2,0-0.3,0
						C3.4,6.6,3.2,5.7,3.1,4.9C2.9,5.7,2.7,6.6,2.5,7.4c-0.3,0-0.5,0-0.8,0C1.6,6.2,1.3,5,1.1,3.9c0.2,0,0.5,0,0.7,0
						c0.1,0.8,0.3,1.7,0.4,2.5c0.2-0.9,0.4-1.7,0.6-2.6c0.3,0,0.5,0,0.8,0c0.2,0.9,0.4,1.8,0.6,2.7C4.2,5.5,4.4,4.6,4.5,3.7
						 M6.9,1.5h4.4v8.4H6.9V8.8h3.5V8.3H6.9V7.6h3.5V7.1H6.9V6.5h3.5V5.9H6.9V5.3h3.5V4.7H6.9V4.1h3.5V3.6H6.9V2.9h3.5V2.4H6.9V1.5z
						 M6.1,0C4.1,0.4,2,0.7,0,1.1c0,3.1,0,6.2,0,9.2c2,0.4,4.1,0.7,6.1,1.1h0.8v-1.1c1.3,0,2.7,0,4,0c0.2,0,0.5,0,0.7-0.1
						c0.2-0.2,0.1-0.5,0.1-0.8c0-2.6,0-5.2,0-7.8c0-0.3-0.2-0.5-0.5-0.5c-0.8,0-1.7,0-2.5,0c-0.6,0-1.2,0-1.7,0V0H6.1z"/>
				</defs>
				<clipPath id="SVGID_6_">
					<use xlink:href="#SVGID_5_"  style="overflow:visible;"/>
				</clipPath>
				<rect x="-2.3" y="-2.3" class="st2" width="16.4" height="16"/>
			</g>
		</g>
	</g>
</g>
</svg>
