<?xml version="1.0" encoding="utf-8"?>
<!-- Generator: Adobe Illustrator 17.1.0, SVG Export Plug-In . SVG Version: 6.00 Build 0)  -->
<!DOCTYPE svg PUBLIC "-//W3C//DTD SVG 1.1//EN" "http://www.w3.org/Graphics/SVG/1.1/DTD/svg11.dtd">
<svg version="1.1" id="Layer_1" xmlns="http://www.w3.org/2000/svg" xmlns:xlink="http://www.w3.org/1999/xlink" x="0px" y="0px"
	 viewBox="0 0 11.7 11.6" style="enable-background:new 0 0 11.7 11.6;" xml:space="preserve">
<style type="text/css">
	.st0{clip-path:url(#SVGID_2_);enable-background:new    ;}
	.st1{clip-path:url(#SVGID_4_);}
	.st2{clip-path:url(#SVGID_6_);fill:#FFFFFF;}
</style>
<g>
	<defs>
		<rect id="SVGID_1_" x="0" y="0" width="11.7" height="11.6"/>
	</defs>
	<clipPath id="SVGID_2_">
		<use xlink:href="#SVGID_1_"  style="overflow:visible;"/>
	</clipPath>
	<g class="st0">
		<g>
			<defs>
				<rect id="SVGID_3_" x="-0.2" y="0" width="12" height="12"/>
			</defs>
			<clipPath id="SVGID_4_">
				<use xlink:href="#SVGID_3_"  style="overflow:visible;"/>
			</clipPath>
			<g class="st1">
				<defs>
					<path id="SVGID_5_" d="M4.6,4.7h2.1V8h0.4v1.2H4.6V8H5V5.9H4.6V4.7z M4.8,3.4c0-0.4,0.3-0.9,1-0.9c0.6,0,1,0.5,1,0.9
						c0,0.5-0.3,0.9-1,0.9C5.2,4.3,4.8,3.8,4.8,3.4 M0,5.8C0,7,0.3,8.1,0.9,9l-0.6,2.2l2.2-0.6c0.9,0.6,2.1,1,3.3,1
						c3.2,0,5.8-2.6,5.8-5.8S9,0,5.8,0C2.6,0,0,2.6,0,5.8"/>
				</defs>
				<clipPath id="SVGID_6_">
					<use xlink:href="#SVGID_5_"  style="overflow:visible;"/>
				</clipPath>
				<rect x="-2.3" y="-2.3" class="st2" width="16.3" height="16.3"/>
			</g>
		</g>
	</g>
</g>
</svg>
