<?xml version="1.0" encoding="utf-8"?>
<!-- Generator: Adobe Illustrator 19.0.0, SVG Export Plug-In . SVG Version: 6.00 Build 0)  -->
<svg version="1.1" id="Layer_1" xmlns="http://www.w3.org/2000/svg" xmlns:xlink="http://www.w3.org/1999/xlink" x="0px" y="0px"
	 viewBox="-120.396 500.169 22.484 22.096" style="enable-background:new -120.396 500.169 22.484 22.096;" xml:space="preserve">
<style type="text/css">
	.st0{fill:#9B9B9B;}
</style>
<path class="st0" d="M-98.051,514.063c-0.947-1.539-5.29-0.644-6.868-0.479c-2.488-1.502-4.205-4.176-4.9-6.105
	c0.645-2.485,1.338-4.289,0.834-6.08c-0.24-0.858-0.82-1.286-1.313-1.224c-0.593,0.076-1.224,0.429-1.477,0.984
	c-0.707,1.589,0.77,6.269,0.998,7.051c-1.439,4.339-6.364,12.916-8.776,13.496c-0.05-0.567,0.253-2.207,3.435-4.25
	c0.164-0.176,0.354-0.391,0.442-0.53c-2.69,1.312-6.175,3.419-4.078,4.995c0.113,0.088,0.29,0.164,0.492,0.24
	c1.603,0.593,3.851-1.349,6.111-5.751c2.488-0.82,4.495-1.439,7.335-1.867c3.107,2.107,5.19,2.535,6.605,1.992
	c0.391-0.151,1.009-0.643,1.187-1.286c-1.149,1.413-3.839,0.428-5.986-0.921c1.983-0.215,4.029-0.34,4.912-0.063
	c1.123,0.354,1.086,0.909,1.074,0.984C-97.937,514.946-97.811,514.454-98.051,514.063z M-110.121,500.793
	c1.83,1.048,0.693,3.532,0.062,5.815C-110.475,505.133-111.055,501.853-110.121,500.793z M-113,515.904
	c0.695-1.349,2.007-4.793,2.638-7.063c0.885,1.766,1.957,3.494,3.725,5.083C-109.036,514.365-110.664,514.983-113,515.904z"/>
</svg>
