<?xml version="1.0" encoding="utf-8"?>
<!-- Generator: Adobe Illustrator 19.0.0, SVG Export Plug-In . SVG Version: 6.00 Build 0)  -->
<svg version="1.1" id="Layer_1" xmlns="http://www.w3.org/2000/svg" xmlns:xlink="http://www.w3.org/1999/xlink" x="0px" y="0px"
	 viewBox="0 0 452 53" style="enable-background:new 0 0 452 53;" xml:space="preserve">
<style type="text/css">
	.st0{fill-rule:evenodd;clip-rule:evenodd;fill:#22B6CD;}
	.st1{fill-rule:evenodd;clip-rule:evenodd;fill:#1D1D1B;}
</style>
<g>
	<g>
		<path class="st0" d="M77.7,23.8c-0.2-2.2-0.9-4-2.3-5.5c-1.4-1.5-3.3-2.3-5.8-2.3c-1.3,0-2.4,0.2-3.5,0.7c-1,0.4-1.9,1-2.6,1.7
			c-0.7,0.7-1.3,1.6-1.7,2.5c-0.4,0.9-0.6,1.9-0.7,2.9H77.7L77.7,23.8z M82.5,36.1c-0.3,0.4-0.8,0.8-1.4,1.4
			c-0.6,0.6-1.5,1.1-2.5,1.6c-1,0.5-2.2,1-3.6,1.4c-1.4,0.4-3,0.6-4.7,0.6c-2.2,0-4.1-0.4-5.9-1.1c-1.8-0.7-3.3-1.8-4.6-3.1
			c-1.3-1.3-2.3-2.9-3-4.8c-0.7-1.8-1.1-3.9-1.1-6.2c0-2.1,0.3-4,1-5.8c0.7-1.8,1.6-3.3,2.9-4.6c1.2-1.3,2.7-2.3,4.4-3.1
			c1.7-0.8,3.6-1.1,5.6-1.1c2.4,0,4.5,0.5,6.2,1.4c1.7,0.9,3.1,2.2,4.2,3.7c1.1,1.5,1.9,3.3,2.4,5.2c0.5,2,0.8,4,0.8,6.2h-22
			c0,1.2,0.3,2.4,0.8,3.4c0.5,1,1.2,1.9,2,2.7c0.8,0.8,1.8,1.4,2.9,1.8c1.1,0.4,2.2,0.7,3.4,0.7c2.4,0,4.3-0.4,5.8-1.2
			c1.5-0.8,2.6-1.6,3.3-2.4L82.5,36.1z"/>
		<path class="st0" d="M25.4,0h5.3v16.3c0.4-0.5,0.8-1,1.3-1.6c0.5-0.6,1.2-1.1,1.9-1.6s1.6-0.9,2.6-1.2c1-0.3,2.1-0.5,3.4-0.5
			c3.6,0,6.3,1.1,8.1,3.2c1.8,2.1,2.6,5,2.6,8.7v16.8h-5.4V23.8c0-2.6-0.6-4.5-1.7-5.8c-1.1-1.2-2.7-1.8-4.7-1.8
			c-1.6,0-2.9,0.3-3.9,1c-1,0.6-1.9,1.5-2.5,2.5c-0.6,1-1.1,2.2-1.4,3.5c-0.3,1.3-0.4,2.6-0.4,4v13h-5.4V0z"/>
		<path class="st0" d="M5,16.7H0v-4.5h5V3h5.4v9.2h8.2v4.5h-8.2v13.8c0,2.3,0.4,3.8,1.1,4.6c0.7,0.8,1.7,1.3,3,1.3
			c1,0,1.9-0.2,2.6-0.5c0.7-0.3,1.4-0.8,2-1.4l2.5,3.3c-1.2,1.1-2.4,1.9-3.6,2.4c-1.2,0.5-2.7,0.8-4.4,0.8c-3,0-5.1-0.8-6.5-2.4
			C5.7,37,5,34.5,5,31.1V16.7z"/>
	</g>
	<g>
		<path class="st0" d="M426.3,47.1c0.4,0.4,0.9,0.7,1.4,1c0.5,0.3,1.2,0.4,1.9,0.4c0.6,0,1.2-0.1,1.7-0.4c0.5-0.3,0.9-0.7,1.3-1.3
			c0.4-0.6,0.7-1.3,1.1-2.1c0.3-0.8,0.7-1.8,1.2-2.9l0.7-1.8L423,12.2h6.2l9,21.2l7.9-21.2h5.9l-11.2,27.3c-0.5,1.3-1.1,2.7-1.6,4.3
			c-0.5,1.5-1.2,3-2,4.4s-1.8,2.5-2.9,3.5c-1.2,0.9-2.6,1.4-4.4,1.4c-1.4,0-2.6-0.2-3.5-0.6c-1-0.4-1.8-0.9-2.5-1.5L426.3,47.1z"/>
		<path class="st0" d="M395.8,18.3c0-1.2,0-2.3,0-3.2s0-1.9-0.1-2.9h5.2l0.2,4.2c0.4-0.5,0.8-1,1.3-1.6c0.5-0.6,1.2-1.1,1.9-1.6
			c0.8-0.5,1.7-0.9,2.7-1.2c1-0.3,2.2-0.5,3.5-0.5c3.6,0,6.3,1.1,8.1,3.2c1.8,2.1,2.6,5,2.6,8.7v16.8h-5.4V23.8
			c0-2.6-0.6-4.5-1.7-5.8c-1.1-1.2-2.7-1.8-4.7-1.8c-1.6,0-2.9,0.3-3.9,1c-1,0.6-1.9,1.5-2.5,2.5c-0.6,1-1.1,2.2-1.3,3.5
			c-0.3,1.3-0.4,2.6-0.4,4v13h-5.4V18.3z"/>
		<path class="st0" d="M337.2,34.1c0.6,0.5,1.6,1,2.8,1.5c1.2,0.5,2.7,0.7,4.5,0.7c1.4,0,2.6-0.3,3.8-0.8c1.1-0.5,2.1-1.2,2.9-2.1
			c0.8-0.9,1.5-2,1.9-3.2c0.4-1.2,0.7-2.5,0.7-4c0-1.4-0.2-2.7-0.5-3.9c-0.3-1.2-0.8-2.3-1.4-3.2c-0.7-0.9-1.5-1.7-2.6-2.2
			c-1-0.5-2.3-0.8-3.8-0.8c-1.9,0-3.6,0.5-4.9,1.6c-1.4,1.1-2.3,2.6-2.9,4.7c-0.2,0.6-0.3,1.3-0.4,2.1c0,0.7-0.1,1.5-0.1,2.3V34.1
			L337.2,34.1z M331.9,18.3c0-1.2,0-2.3,0-3.2s0-1.9-0.1-2.9h5.2l0.2,4c0.3-0.4,0.7-0.8,1.2-1.3c0.5-0.5,1.2-1,2-1.5
			c0.8-0.5,1.7-0.9,2.7-1.2c1-0.3,2.2-0.5,3.6-0.5c2.2,0,4,0.4,5.6,1.2c1.6,0.8,2.9,1.9,3.9,3.3c1,1.4,1.8,2.9,2.3,4.7
			c0.5,1.8,0.8,3.6,0.8,5.6c0,2.5-0.4,4.7-1.3,6.6c-0.9,1.8-2,3.4-3.4,4.6c-1.4,1.2-2.9,2.1-4.6,2.7c-1.7,0.6-3.4,0.9-5,0.9
			c-1.9,0-3.4-0.2-4.5-0.6c-1.1-0.4-2.2-0.8-3.2-1.2v13h-5.3V18.3z"/>
		<path class="st0" d="M282.3,18.3c0-1.2,0-2.3,0-3.2s0-1.9-0.1-2.9h5.2l0.2,4.2c0.3-0.5,0.7-1,1.3-1.6c0.5-0.6,1.1-1.1,1.9-1.6
			s1.6-0.9,2.6-1.2c1-0.3,2.1-0.5,3.4-0.5c2.2,0,4,0.4,5.4,1.3c1.4,0.9,2.5,2.1,3.3,3.8c1.1-1.3,2.5-2.5,4.1-3.5
			c1.6-1,3.6-1.5,6-1.5c3.6,0,6.3,1.1,8,3.2c1.7,2.2,2.6,5,2.6,8.7v16.8h-5.4V23.8c0-2.6-0.5-4.5-1.5-5.8c-1-1.2-2.5-1.8-4.5-1.8
			c-1.1,0-2.2,0.2-3.1,0.7c-0.9,0.5-1.8,1.1-2.5,1.8c-0.7,0.8-1.2,1.7-1.6,2.7c-0.4,1-0.6,2.1-0.6,3.2v15.6h-5.4V23.8
			c0-2.6-0.5-4.5-1.5-5.8c-1-1.2-2.5-1.8-4.4-1.8c-1.5,0-2.7,0.3-3.7,1c-1,0.6-1.8,1.5-2.4,2.5c-0.6,1-1.1,2.2-1.3,3.5
			c-0.3,1.3-0.4,2.7-0.4,4v13h-5.4V18.3z"/>
		<path class="st0" d="M262.9,36.4c1.4,0,2.7-0.3,3.9-0.9c1.2-0.6,2.1-1.3,2.9-2.3c0.8-0.9,1.4-2,1.8-3.3c0.4-1.2,0.6-2.5,0.6-3.8
			c0-1.2-0.2-2.5-0.6-3.7c-0.4-1.2-1-2.3-1.9-3.3c-0.8-1-1.8-1.7-2.9-2.3c-1.1-0.6-2.4-0.9-3.9-0.9c-1.4,0-2.7,0.3-3.9,0.9
			c-1.2,0.6-2.1,1.3-2.9,2.3c-0.8,0.9-1.4,2-1.8,3.3c-0.4,1.2-0.6,2.5-0.6,3.8c0,1.3,0.2,2.5,0.6,3.7c0.4,1.2,1,2.3,1.9,3.3
			c0.8,1,1.8,1.7,2.9,2.3C260.2,36.1,261.5,36.4,262.9,36.4L262.9,36.4z M262.9,41.1c-2.2,0-4.1-0.4-5.9-1.2
			c-1.8-0.8-3.4-1.9-4.7-3.2c-1.3-1.4-2.3-2.9-3.1-4.7c-0.7-1.8-1.1-3.7-1.1-5.8c0-2,0.4-4,1.1-5.8c0.7-1.8,1.8-3.4,3.1-4.7
			s2.9-2.4,4.7-3.2c1.8-0.8,3.8-1.2,5.9-1.2c2.1,0,4.1,0.4,5.9,1.2c1.8,0.8,3.4,1.9,4.7,3.2c1.3,1.4,2.4,2.9,3.1,4.7
			c0.7,1.8,1.1,3.7,1.1,5.8c0,2.1-0.4,4-1.1,5.8c-0.7,1.8-1.8,3.4-3.1,4.7c-1.3,1.4-2.9,2.4-4.7,3.2C267,40.7,265,41.1,262.9,41.1z"
			/>
		<path class="st0" d="M246.4,36.4c-1.2,1.4-2.8,2.5-4.6,3.4c-1.8,0.9-3.9,1.3-6.3,1.3c-2.2,0-4.3-0.4-6.1-1.1
			c-1.8-0.7-3.4-1.8-4.6-3.1c-1.3-1.3-2.2-2.9-2.9-4.7c-0.7-1.8-1-3.8-1-6c0-2,0.4-4,1.1-5.8c0.7-1.8,1.7-3.4,3-4.7
			c1.3-1.3,2.8-2.4,4.6-3.2c1.8-0.8,3.8-1.2,5.9-1.2c2.4,0,4.4,0.4,6.2,1.3c1.8,0.8,3.3,2,4.6,3.4l-3.5,3.4c-0.8-1-1.9-1.9-3.1-2.5
			c-1.2-0.6-2.6-0.9-4.3-0.9c-1.4,0-2.7,0.3-3.9,0.8c-1.1,0.5-2.1,1.3-2.9,2.2c-0.8,0.9-1.4,2-1.8,3.3c-0.4,1.2-0.6,2.5-0.6,3.8
			c0,1.3,0.2,2.5,0.6,3.8c0.4,1.2,1,2.3,1.8,3.3c0.8,0.9,1.7,1.7,2.9,2.3c1.1,0.6,2.4,0.8,3.9,0.8c1.6,0,3.1-0.3,4.4-0.9
			c1.3-0.6,2.4-1.5,3.2-2.5L246.4,36.4z"/>
		<path class="st0" d="M384.9,18.9c-1.4-1.2-3.2-2.7-6.8-2.6c-4,0-7.1,2.2-8.4,6c-0.5,1.3-0.7,2.7-0.7,4.3c0,1.3,0.2,2.6,0.5,3.8
			c1,3.8,3.7,5.9,7.6,5.9c3.5,0,6.3-2,7.4-5.3c0.3-0.9,0.5-1.8,0.5-2.6V18.9L384.9,18.9z M384.9,36.7c-2.4,2.8-5.3,4.4-9.1,4.4
			c-5.5,0-9.7-3.4-11.5-8.5c-0.6-1.8-0.9-3.8-0.9-6c0-8.3,5.8-15.1,14.2-15.1c3.2,0,5.5,1,7.3,2.3v-1.7h5.4v21.9c0,1.2,0,2.3,0,3.2
			s0,1.9,0.1,2.9H385L384.9,36.7z"/>
	</g>
	<g>
		<path class="st1" d="M185.6,18.9c-1.4-1.2-3.2-2.7-6.8-2.6c-4,0-7.1,2.2-8.4,6c-0.5,1.3-0.7,2.7-0.7,4.3c0,1.3,0.2,2.6,0.5,3.8
			c1,3.8,3.7,5.9,7.6,5.9c3.5,0,6.3-2,7.4-5.3c0.3-0.9,0.4-1.8,0.4-2.6V18.9L185.6,18.9z M185.6,36.7c-2.4,2.8-5.3,4.4-9.1,4.4
			c-5.5,0-9.7-3.4-11.5-8.5c-0.6-1.8-0.9-3.8-0.9-6c0-8.3,5.8-15.1,14.2-15.1c3.2,0,5.5,1,7.3,2.3v-1.7h5.4v21.9c0,1.2,0,2.3,0,3.2
			s0,1.9,0.1,2.9h-5.3L185.6,36.7z"/>
		<path class="st1" d="M196.3,17.9c0-1.2,0-2.2,0-3c0-0.9,0-1.8-0.1-2.7h5.2l0.2,4.5c0.3-0.5,0.7-1,1.3-1.6c0.5-0.6,1.2-1.1,1.9-1.6
			c0.7-0.5,1.6-0.9,2.6-1.2c1-0.3,2.1-0.5,3.4-0.5c0.6,0,1.2,0,1.7,0.1c0.5,0.1,1,0.2,1.4,0.4l-1.2,5.1c-0.7-0.3-1.6-0.4-2.8-0.4
			c-1.2,0-2.2,0.2-3.2,0.7c-1,0.4-1.8,1.1-2.6,1.8c-0.7,0.8-1.3,1.7-1.7,2.7c-0.4,1-0.6,2.2-0.6,3.3v14.8h-5.4V17.9z"/>
		<path class="st1" d="M154.7,23.8c-0.2-2.2-0.9-4-2.3-5.5c-1.4-1.5-3.3-2.3-5.8-2.3c-1.3,0-2.4,0.2-3.5,0.7c-1,0.4-1.9,1-2.6,1.7
			c-0.7,0.7-1.3,1.6-1.7,2.5c-0.4,0.9-0.6,1.9-0.7,2.9H154.7L154.7,23.8z M159.6,36.1c-0.3,0.4-0.8,0.8-1.4,1.4
			c-0.6,0.6-1.5,1.1-2.5,1.6c-1,0.5-2.2,1-3.6,1.4c-1.4,0.4-3,0.6-4.7,0.6c-2.2,0-4.1-0.4-5.9-1.1c-1.8-0.7-3.3-1.8-4.6-3.1
			c-1.3-1.3-2.3-2.9-3-4.8c-0.7-1.8-1.1-3.9-1.1-6.2c0-2.1,0.3-4,1-5.8c0.7-1.8,1.6-3.3,2.9-4.6c1.2-1.3,2.7-2.3,4.4-3.1
			c1.7-0.8,3.6-1.1,5.6-1.1c2.4,0,4.5,0.5,6.2,1.4c1.7,0.9,3.1,2.2,4.2,3.7c1.1,1.5,1.9,3.3,2.4,5.2c0.5,2,0.8,4,0.8,6.2h-22
			c0,1.2,0.3,2.4,0.8,3.4c0.5,1,1.2,1.9,2,2.7c0.8,0.8,1.8,1.4,2.9,1.8c1.1,0.4,2.2,0.7,3.4,0.7c2.4,0,4.3-0.4,5.8-1.2
			c1.5-0.8,2.6-1.6,3.3-2.4L159.6,36.1z"/>
		<rect x="123.1" class="st1" width="5.4" height="40.2"/>
		<path class="st1" d="M119.3,36.4c-1.2,1.4-2.8,2.5-4.6,3.4c-1.8,0.9-3.9,1.3-6.3,1.3c-2.2,0-4.3-0.4-6.1-1.1
			c-1.8-0.7-3.4-1.8-4.6-3.1c-1.3-1.3-2.2-2.9-2.9-4.7c-0.7-1.8-1-3.8-1-6c0-2,0.4-4,1.1-5.8c0.7-1.8,1.7-3.4,3-4.7
			c1.3-1.3,2.8-2.4,4.6-3.2c1.8-0.8,3.8-1.2,5.9-1.2c2.4,0,4.4,0.4,6.2,1.3c1.8,0.8,3.3,2,4.6,3.4l-3.5,3.4c-0.8-1-1.9-1.9-3.1-2.5
			c-1.2-0.6-2.6-0.9-4.3-0.9c-1.4,0-2.7,0.3-3.9,0.8c-1.1,0.5-2.1,1.3-2.9,2.2c-0.8,0.9-1.4,2-1.8,3.3c-0.4,1.2-0.6,2.5-0.6,3.8
			c0,1.3,0.2,2.5,0.6,3.8c0.4,1.2,1,2.3,1.8,3.3c0.8,0.9,1.7,1.7,2.9,2.3c1.1,0.6,2.4,0.8,3.9,0.8c1.6,0,3.1-0.3,4.4-0.9
			c1.3-0.6,2.4-1.5,3.2-2.5L119.3,36.4z"/>
	</g>
</g>
</svg>
