<?xml version="1.0" encoding="iso-8859-1"?>
<!-- Generator: Adobe Illustrator 16.0.0, SVG Export Plug-In . SVG Version: 6.00 Build 0)  -->
<!DOCTYPE svg PUBLIC "-//W3C//DTD SVG 1.1//EN" "http://www.w3.org/Graphics/SVG/1.1/DTD/svg11.dtd">
<svg xmlns="http://www.w3.org/2000/svg" xmlns:xlink="http://www.w3.org/1999/xlink" version="1.1" id="Capa_1" x="0px" y="0px" width="512px" height="512px" viewBox="0 0 56.349 56.349" style="enable-background:new 0 0 56.349 56.349;" xml:space="preserve">
<g>
	<path d="M56.349,42.773V7.736H0v35.037h23.494v3.504h-4.662v2.336h18.688v-2.336h-4.681v-3.504H56.349z M2.336,40.438V10.072h51.68   v30.366H2.336z M8.273,25.255l0.687-2.133h3.976l0.709,2.133h1.161h1.164l-3.709-10.483h-1.268H9.724L6.015,25.255h1.137H8.273z    M10.959,17.108l1.393,4.211H9.57L10.959,17.108z M17.565,14.842h33.236v2.336H17.565V14.842z M17.565,21.102h33.236v2.336H17.565   V21.102z M5.521,27.364h45.28v2.335H5.521V27.364z M5.521,33.624h45.28v2.336H5.521V33.624z" fill="#9b9b9b"/>
</g>
<g>
</g>
<g>
</g>
<g>
</g>
<g>
</g>
<g>
</g>
<g>
</g>
<g>
</g>
<g>
</g>
<g>
</g>
<g>
</g>
<g>
</g>
<g>
</g>
<g>
</g>
<g>
</g>
<g>
</g>
</svg>
