<?xml version="1.0" encoding="utf-8"?>
<!-- Generator: Adobe Illustrator 19.0.0, SVG Export Plug-In . SVG Version: 6.00 Build 0)  -->
<svg version="1.1" id="Layer_1" xmlns="http://www.w3.org/2000/svg" xmlns:xlink="http://www.w3.org/1999/xlink" x="0px" y="0px"
	 viewBox="0 0 324.31 25.139" style="enable-background:new 0 0 324.31 25.139;" xml:space="preserve">
<style type="text/css">
	.st0{fill:#22B6CD;}
</style>
<g>
	<path class="st0" d="M0,0h2.416v7.75C2.58,7.522,2.778,7.273,3.014,7.008c0.236-0.27,0.526-0.514,0.87-0.746
		c0.345-0.227,0.745-0.42,1.197-0.572c0.451-0.152,0.966-0.227,1.55-0.227c1.645,0,2.867,0.504,3.668,1.516
		c0.796,1.01,1.193,2.383,1.193,4.117v7.981H9.046v-7.779c0-1.24-0.253-2.148-0.759-2.731C7.779,7.982,7.064,7.693,6.138,7.693
		c-0.704,0-1.293,0.152-1.764,0.457C3.901,8.455,3.527,8.852,3.247,9.338c-0.284,0.486-0.486,1.039-0.612,1.658
		c-0.127,0.621-0.191,1.252-0.191,1.902v6.178H0V0z"/>
	<path class="st0" d="M26.303,17.131c-0.146,0.172-0.363,0.393-0.651,0.658c-0.29,0.266-0.669,0.525-1.128,0.771
		c-0.463,0.246-1.007,0.463-1.629,0.644c-0.627,0.18-1.34,0.27-2.135,0.27c-0.979,0-1.877-0.17-2.691-0.514
		c-0.814-0.344-1.512-0.828-2.093-1.459c-0.58-0.629-1.026-1.381-1.344-2.258c-0.317-0.877-0.477-1.85-0.477-2.918
		c0-0.973,0.152-1.883,0.461-2.732c0.31-0.846,0.744-1.58,1.307-2.201c0.562-0.619,1.225-1.111,1.994-1.475
		c0.772-0.359,1.619-0.543,2.544-0.543c1.085,0,2.021,0.221,2.8,0.66c0.776,0.438,1.416,1.019,1.914,1.744
		c0.499,0.725,0.863,1.553,1.1,2.488c0.234,0.934,0.355,1.904,0.355,2.916h-9.973c0.018,0.592,0.138,1.135,0.365,1.631
		c0.227,0.496,0.531,0.924,0.91,1.285c0.381,0.365,0.814,0.65,1.306,0.859c0.487,0.211,1.007,0.315,1.547,0.315
		c1.07,0,1.949-0.19,2.638-0.57c0.688-0.383,1.184-0.754,1.494-1.117L26.303,17.131z M24.102,11.268
		c-0.072-1.029-0.417-1.906-1.031-2.633c-0.616-0.723-1.487-1.084-2.608-1.084c-0.581,0-1.102,0.102-1.564,0.313
		c-0.461,0.211-0.855,0.488-1.182,0.832c-0.326,0.342-0.579,0.736-0.764,1.186c-0.178,0.447-0.277,0.91-0.295,1.387H24.102z"/>
	<path class="st0" d="M29.346,0h2.448v19.076h-2.448V0z"/>
	<path class="st0" d="M35.162,8.664c0-0.59,0-1.1,0-1.529c0-0.428-0.009-0.879-0.026-1.357h2.335l0.082,1.887
		c0.127-0.172,0.309-0.381,0.544-0.627c0.234-0.25,0.529-0.488,0.883-0.717c0.354-0.228,0.767-0.424,1.237-0.586
		c0.471-0.162,1.014-0.244,1.627-0.244c0.979,0,1.826,0.189,2.544,0.574c0.714,0.379,1.31,0.897,1.779,1.541
		c0.471,0.65,0.82,1.394,1.046,2.234c0.227,0.836,0.339,1.725,0.339,2.656c0,1.203-0.194,2.242-0.583,3.119
		c-0.39,0.875-0.896,1.603-1.523,2.174c-0.622,0.572-1.322,0.996-2.091,1.271c-0.77,0.277-1.526,0.414-2.269,0.414
		c-0.851,0-1.537-0.09-2.051-0.27c-0.518-0.182-1.002-0.377-1.456-0.588v6.178h-2.417V8.664z M37.579,16.188
		c0.291,0.25,0.708,0.488,1.253,0.715c0.541,0.229,1.219,0.344,2.037,0.344c0.614,0,1.182-0.119,1.695-0.357
		c0.519-0.238,0.963-0.574,1.333-1.004c0.373-0.428,0.657-0.928,0.854-1.498c0.201-0.574,0.301-1.203,0.301-1.891
		c0-0.647-0.068-1.256-0.203-1.83c-0.135-0.57-0.354-1.074-0.652-1.514c-0.3-0.439-0.686-0.787-1.154-1.045
		c-0.473-0.256-1.051-0.387-1.738-0.387c-0.87,0-1.615,0.254-2.229,0.76c-0.618,0.506-1.053,1.244-1.305,2.217
		c-0.091,0.305-0.145,0.633-0.163,0.984c-0.02,0.354-0.028,0.721-0.028,1.104V16.188z"/>
	<path class="st0" d="M50.27,0.514h2.743v2.891H50.27V0.514z M50.434,5.777h2.445v13.299h-2.445V5.777z"/>
	<path class="st0" d="M56.357,8.664c0-0.59,0-1.1,0-1.529c0-0.428-0.01-0.879-0.027-1.357h2.334l0.082,2.002
		c0.165-0.229,0.363-0.48,0.598-0.756c0.236-0.277,0.525-0.529,0.871-0.762c0.344-0.227,0.745-0.42,1.211-0.572
		c0.461-0.152,0.981-0.227,1.561-0.227c1.65,0,2.873,0.504,3.67,1.516c0.797,1.01,1.193,2.383,1.193,4.117v7.981h-2.443v-7.779
		c0-1.24-0.256-2.148-0.762-2.731c-0.509-0.584-1.223-0.873-2.146-0.873c-0.707,0-1.297,0.152-1.768,0.457
		c-0.469,0.305-0.846,0.701-1.129,1.188c-0.279,0.486-0.484,1.039-0.611,1.658c-0.125,0.621-0.185,1.252-0.185,1.902v6.178h-2.447
		V8.664z"/>
	<path class="st0" d="M72.824,21.791c0.416,0.307,0.93,0.57,1.534,0.789c0.604,0.217,1.348,0.328,2.214,0.328
		c1.215,0,2.121-0.353,2.721-1.059c0.596-0.705,0.896-1.631,0.896-2.773v-1.631c-0.13,0.113-0.298,0.274-0.503,0.473
		c-0.209,0.199-0.473,0.391-0.787,0.572c-0.317,0.18-0.694,0.342-1.129,0.486c-0.435,0.143-0.932,0.213-1.494,0.213
		c-0.926,0-1.743-0.166-2.461-0.5c-0.715-0.334-1.317-0.789-1.805-1.371c-0.492-0.584-0.861-1.279-1.115-2.088
		c-0.255-0.813-0.382-1.693-0.382-2.647c0-1.031,0.173-1.977,0.519-2.846c0.344-0.867,0.828-1.619,1.452-2.26
		c0.625-0.639,1.372-1.135,2.243-1.486c0.869-0.353,1.838-0.529,2.906-0.529c1.033,0,1.994,0.096,2.883,0.285
		c0.885,0.191,1.602,0.4,2.146,0.631v12.697c0,1.924-0.532,3.418-1.59,4.475c-1.06,1.059-2.55,1.588-4.47,1.588
		c-1.288,0-2.311-0.148-3.072-0.443c-0.762-0.295-1.375-0.633-1.846-1.016L72.824,21.791z M80.215,8.121
		c-0.165-0.055-0.441-0.139-0.828-0.24c-0.392-0.105-0.973-0.16-1.754-0.16c-0.688,0-1.313,0.119-1.875,0.359
		c-0.562,0.238-1.047,0.57-1.453,1c-0.408,0.43-0.725,0.939-0.953,1.529c-0.225,0.592-0.338,1.24-0.338,1.945
		c0,0.611,0.068,1.182,0.204,1.717c0.134,0.531,0.354,1,0.653,1.4c0.296,0.4,0.672,0.715,1.126,0.945
		c0.452,0.228,1.005,0.342,1.657,0.342c0.597,0,1.124-0.094,1.575-0.283c0.454-0.193,0.825-0.445,1.115-0.76
		c0.292-0.314,0.509-0.668,0.653-1.059c0.145-0.391,0.217-0.795,0.217-1.215V8.121z"/>
	<path class="st0" d="M92.008,7.922h-2.283V5.777h2.283V1.432h2.445v4.346h3.695v2.144h-3.695v6.549
		c0,1.068,0.159,1.803,0.477,2.205c0.314,0.398,0.765,0.598,1.344,0.598c0.471,0,0.861-0.076,1.169-0.231
		c0.307-0.15,0.615-0.377,0.925-0.684l1.113,1.572c-0.525,0.535-1.064,0.92-1.615,1.158c-0.555,0.238-1.213,0.357-1.971,0.357
		c-1.341,0-2.326-0.381-2.949-1.145c-0.627-0.762-0.938-1.953-0.938-3.576V7.922z"/>
	<path class="st0" d="M109.262,17.473c-0.47,0.668-1.09,1.164-1.861,1.488c-0.77,0.324-1.563,0.486-2.378,0.486
		c-0.526,0-1.047-0.072-1.56-0.215c-0.518-0.143-0.988-0.381-1.416-0.715c-0.425-0.334-0.771-0.762-1.031-1.287
		c-0.265-0.523-0.394-1.168-0.394-1.93c0-1.432,0.472-2.574,1.425-3.434c0.949-0.856,2.322-1.285,4.117-1.285
		c0.29,0,0.599,0.01,0.922,0.027c0.328,0.019,0.636,0.039,0.926,0.057c0.29,0.021,0.545,0.039,0.763,0.059
		c0.214,0.02,0.37,0.039,0.461,0.057v-0.486c0-0.992-0.284-1.701-0.856-2.129c-0.572-0.43-1.346-0.645-2.325-0.645
		c-0.958,0-1.72,0.139-2.281,0.416c-0.561,0.275-1.03,0.557-1.414,0.842l-1.14-1.742c0.217-0.191,0.479-0.383,0.787-0.574
		c0.309-0.189,0.67-0.367,1.089-0.527c0.413-0.164,0.888-0.297,1.41-0.4c0.527-0.107,1.132-0.16,1.823-0.16
		c1.629,0,2.91,0.414,3.846,1.246c0.932,0.828,1.399,2.006,1.399,3.531v6.293c0,0.496,0,0.977,0,1.441
		c0,0.469,0.009,0.865,0.026,1.19h-2.284L109.262,17.473z M109.235,12.785c-0.073-0.019-0.214-0.045-0.423-0.074
		c-0.209-0.025-0.447-0.051-0.721-0.07c-0.27-0.018-0.563-0.039-0.867-0.057c-0.309-0.019-0.607-0.029-0.896-0.029
		c-0.691,0-1.246,0.086-1.673,0.258c-0.426,0.172-0.762,0.387-1.006,0.643c-0.245,0.258-0.411,0.543-0.503,0.857
		c-0.091,0.314-0.135,0.617-0.135,0.904c0,0.723,0.235,1.27,0.705,1.643c0.475,0.371,1.124,0.559,1.959,0.559
		c0.47,0,0.92-0.086,1.344-0.26c0.426-0.17,0.803-0.398,1.128-0.684c0.327-0.287,0.588-0.621,0.788-1.004
		c0.2-0.381,0.3-0.77,0.3-1.17V12.785z"/>
	<path class="st0" d="M114.912,0h2.446v19.076h-2.446V0z"/>
	<path class="st0" d="M132.25,17.131c-0.145,0.172-0.361,0.393-0.654,0.658c-0.286,0.266-0.662,0.525-1.125,0.771
		c-0.461,0.246-1.004,0.463-1.631,0.644c-0.624,0.18-1.334,0.27-2.132,0.27c-0.98,0-1.876-0.17-2.69-0.514
		c-0.816-0.344-1.514-0.828-2.093-1.459c-0.579-0.629-1.028-1.381-1.347-2.258c-0.314-0.877-0.473-1.85-0.473-2.918
		c0-0.973,0.152-1.883,0.462-2.732c0.308-0.846,0.741-1.58,1.302-2.201c0.562-0.619,1.229-1.111,1.998-1.475
		c0.771-0.359,1.618-0.543,2.541-0.543c1.086,0,2.019,0.221,2.799,0.66c0.779,0.438,1.417,1.019,1.917,1.744
		c0.497,0.725,0.864,1.553,1.1,2.488c0.234,0.934,0.352,1.904,0.352,2.916h-9.972c0.018,0.592,0.142,1.135,0.367,1.631
		c0.227,0.496,0.53,0.924,0.91,1.285c0.381,0.365,0.816,0.65,1.303,0.859c0.49,0.211,1.008,0.315,1.551,0.315
		c1.066,0,1.945-0.19,2.635-0.57c0.691-0.383,1.188-0.754,1.496-1.117L132.25,17.131z M130.051,11.268
		c-0.073-1.029-0.418-1.906-1.035-2.633c-0.614-0.723-1.484-1.084-2.607-1.084c-0.579,0-1.1,0.102-1.561,0.313
		c-0.465,0.211-0.859,0.488-1.184,0.832c-0.326,0.342-0.582,0.736-0.76,1.186c-0.183,0.447-0.283,0.91-0.301,1.387H130.051z"/>
	<path class="st0" d="M135.294,8.664c0-0.59,0-1.1,0-1.529c0-0.428-0.01-0.879-0.028-1.357h2.339l0.081,2.002
		c0.162-0.229,0.362-0.48,0.598-0.756c0.235-0.277,0.526-0.529,0.87-0.762c0.344-0.227,0.747-0.42,1.208-0.572
		c0.462-0.152,0.982-0.227,1.564-0.227c1.646,0,2.869,0.504,3.666,1.516c0.797,1.01,1.197,2.383,1.197,4.117v7.981h-2.447v-7.779
		c0-1.24-0.252-2.148-0.762-2.731c-0.504-0.584-1.223-0.873-2.145-0.873c-0.706,0-1.293,0.152-1.767,0.457
		c-0.471,0.305-0.847,0.701-1.126,1.188c-0.283,0.486-0.485,1.039-0.612,1.658c-0.126,0.621-0.19,1.252-0.19,1.902v6.178h-2.445
		V8.664z"/>
	<path class="st0" d="M151.163,7.922h-2.282V5.777h2.282V1.432h2.446v4.346h3.695v2.144h-3.695v6.549
		c0,1.068,0.16,1.803,0.475,2.205c0.316,0.398,0.766,0.598,1.345,0.598c0.47,0,0.861-0.076,1.171-0.231
		c0.305-0.15,0.615-0.377,0.923-0.684l1.114,1.572c-0.527,0.535-1.064,0.92-1.617,1.158c-0.553,0.238-1.212,0.357-1.971,0.357
		c-1.34,0-2.324-0.381-2.947-1.145c-0.627-0.762-0.938-1.953-0.938-3.576V7.922z"/>
	<path class="st0" d="M166.244,15.731c0.454,0.477,0.995,0.857,1.63,1.143c0.636,0.285,1.367,0.43,2.202,0.43
		c0.813,0,1.493-0.139,2.036-0.414c0.544-0.277,0.814-0.711,0.814-1.303c0-0.305-0.058-0.568-0.175-0.785
		c-0.117-0.221-0.318-0.414-0.598-0.588c-0.283-0.17-0.653-0.33-1.113-0.471c-0.463-0.143-1.039-0.301-1.727-0.473
		c-0.488-0.115-0.973-0.266-1.453-0.457c-0.48-0.189-0.91-0.441-1.292-0.76c-0.379-0.313-0.688-0.695-0.925-1.141
		c-0.234-0.449-0.352-0.988-0.352-1.617c0-0.648,0.142-1.215,0.422-1.703c0.282-0.486,0.657-0.895,1.128-1.229
		c0.471-0.334,0.999-0.586,1.591-0.758c0.589-0.172,1.199-0.258,1.831-0.258c1.07,0,1.992,0.148,2.761,0.441
		c0.768,0.299,1.444,0.711,2.023,1.248l-1.331,1.774c-0.381-0.365-0.855-0.668-1.426-0.918c-0.571-0.246-1.236-0.371-1.998-0.371
		c-0.778,0-1.405,0.131-1.875,0.4c-0.471,0.268-0.707,0.705-0.707,1.316c0,0.57,0.314,0.994,0.939,1.271
		c0.623,0.277,1.443,0.541,2.457,0.787c0.598,0.152,1.156,0.328,1.671,0.529c0.517,0.199,0.97,0.457,1.36,0.77
		c0.389,0.316,0.697,0.703,0.924,1.16c0.227,0.457,0.338,1.012,0.338,1.66c0,0.666-0.145,1.252-0.435,1.758
		c-0.288,0.506-0.68,0.928-1.169,1.271c-0.487,0.344-1.049,0.602-1.685,0.775c-0.634,0.17-1.296,0.254-1.983,0.254
		c-2.391,0-4.184-0.676-5.38-2.029L166.244,15.731z"/>
	<path class="st0" d="M178.229,0h2.417v7.75c0.165-0.228,0.362-0.477,0.597-0.742c0.234-0.27,0.526-0.514,0.871-0.746
		c0.344-0.227,0.744-0.42,1.196-0.572c0.452-0.152,0.966-0.227,1.549-0.227c1.646,0,2.869,0.504,3.669,1.516
		c0.797,1.01,1.193,2.383,1.193,4.117v7.981h-2.445v-7.779c0-1.24-0.254-2.148-0.759-2.731c-0.508-0.584-1.223-0.873-2.149-0.873
		c-0.706,0-1.293,0.152-1.764,0.457c-0.473,0.305-0.848,0.701-1.13,1.188c-0.282,0.486-0.485,1.039-0.611,1.658
		c-0.126,0.621-0.19,1.252-0.19,1.902v6.178h-2.443V0z"/>
	<path class="st0" d="M192.955,0.514h2.746v2.891h-2.746V0.514z M193.119,5.777h2.447v13.299h-2.447V5.777z"/>
	<path class="st0" d="M199.041,8.664c0-0.59,0-1.1,0-1.529c0-0.428-0.009-0.879-0.025-1.357h2.336l0.083,2.002
		c0.161-0.229,0.362-0.48,0.597-0.756c0.235-0.277,0.525-0.529,0.87-0.762c0.343-0.227,0.747-0.42,1.208-0.572
		c0.462-0.152,0.982-0.227,1.564-0.227c1.647,0,2.87,0.504,3.667,1.516c0.797,1.01,1.196,2.383,1.196,4.117v7.981h-2.446v-7.779
		c0-1.24-0.252-2.148-0.762-2.731c-0.504-0.584-1.223-0.873-2.146-0.873c-0.705,0-1.294,0.152-1.768,0.457
		c-0.47,0.305-0.847,0.701-1.126,1.188c-0.282,0.486-0.484,1.039-0.611,1.658c-0.127,0.621-0.191,1.252-0.191,1.902v6.178h-2.445
		V8.664z"/>
	<path class="st0" d="M225.346,17.131c-0.145,0.172-0.362,0.393-0.653,0.658c-0.288,0.266-0.665,0.525-1.126,0.771
		c-0.461,0.246-1.006,0.463-1.633,0.644c-0.622,0.18-1.334,0.27-2.131,0.27c-0.979,0-1.875-0.17-2.689-0.514
		c-0.816-0.344-1.516-0.828-2.094-1.459c-0.578-0.629-1.028-1.381-1.348-2.258c-0.313-0.877-0.473-1.85-0.473-2.918
		c0-0.973,0.154-1.883,0.462-2.732c0.31-0.846,0.741-1.58,1.304-2.201c0.56-0.619,1.229-1.111,1.998-1.475
		c0.771-0.359,1.617-0.543,2.539-0.543c1.089,0,2.021,0.221,2.8,0.66c0.78,0.438,1.418,1.019,1.917,1.744
		c0.496,0.725,0.864,1.553,1.1,2.488c0.235,0.934,0.353,1.904,0.353,2.916h-9.972c0.018,0.592,0.141,1.135,0.367,1.631
		c0.227,0.496,0.528,0.924,0.908,1.285c0.383,0.365,0.818,0.65,1.305,0.859c0.489,0.211,1.007,0.315,1.551,0.315
		c1.067,0,1.945-0.19,2.634-0.57c0.691-0.383,1.188-0.754,1.497-1.117L225.346,17.131z M223.145,11.268
		c-0.073-1.029-0.417-1.906-1.034-2.633c-0.615-0.723-1.485-1.084-2.609-1.084c-0.578,0-1.098,0.102-1.561,0.313
		c-0.464,0.211-0.857,0.488-1.182,0.832c-0.326,0.342-0.581,0.736-0.762,1.186c-0.182,0.447-0.281,0.91-0.299,1.387H223.145z"/>
	<path class="st0" d="M234.394,7.922h-2.281V5.777h2.281V1.432h2.446v4.346h3.694v2.144h-3.694v6.549
		c0,1.068,0.159,1.803,0.477,2.205c0.313,0.398,0.765,0.598,1.343,0.598c0.472,0,0.861-0.076,1.17-0.231
		c0.305-0.15,0.614-0.377,0.924-0.684l1.113,1.572c-0.525,0.535-1.064,0.92-1.616,1.158c-0.554,0.238-1.212,0.357-1.969,0.357
		c-1.343,0-2.327-0.381-2.951-1.145c-0.625-0.762-0.937-1.953-0.937-3.576V7.922z"/>
	<path class="st0" d="M243.714,0h2.419v7.75c0.162-0.228,0.362-0.477,0.598-0.742c0.236-0.27,0.525-0.514,0.871-0.746
		c0.344-0.227,0.74-0.42,1.193-0.572c0.451-0.152,0.971-0.227,1.55-0.227c1.647,0,2.871,0.504,3.667,1.516
		c0.798,1.01,1.197,2.383,1.197,4.117v7.981h-2.445v-7.779c0-1.24-0.252-2.148-0.762-2.731c-0.508-0.584-1.225-0.873-2.146-0.873
		c-0.705,0-1.297,0.152-1.767,0.457c-0.471,0.305-0.847,0.701-1.126,1.188c-0.281,0.486-0.485,1.039-0.611,1.658
		c-0.13,0.621-0.191,1.252-0.191,1.902v6.178h-2.446V0z"/>
	<path class="st0" d="M258.496,8.494c0-0.553,0-1.033,0-1.445c0-0.41-0.009-0.832-0.025-1.272h2.338l0.08,2.144
		c0.146-0.228,0.336-0.482,0.571-0.758c0.235-0.277,0.521-0.531,0.854-0.758c0.337-0.228,0.724-0.426,1.168-0.588
		c0.443-0.16,0.957-0.24,1.537-0.24c0.271,0,0.521,0.017,0.748,0.057c0.226,0.037,0.438,0.094,0.639,0.17l-0.545,2.402
		c-0.326-0.133-0.744-0.199-1.25-0.199c-0.526,0-1.012,0.106-1.455,0.314c-0.444,0.209-0.826,0.5-1.151,0.873
		c-0.328,0.371-0.585,0.805-0.777,1.301c-0.19,0.496-0.284,1.02-0.284,1.574v7.006h-2.447V8.494z"/>
	<path class="st0" d="M273.797,19.475c-0.979,0-1.877-0.184-2.691-0.557c-0.815-0.371-1.516-0.883-2.105-1.529
		c-0.588-0.646-1.053-1.397-1.387-2.244c-0.335-0.85-0.502-1.76-0.502-2.733c0-0.973,0.167-1.883,0.502-2.734
		c0.334-0.846,0.799-1.594,1.387-2.24c0.59-0.65,1.291-1.16,2.105-1.533c0.814-0.369,1.713-0.557,2.691-0.557
		c0.96,0,1.849,0.188,2.663,0.557c0.814,0.373,1.522,0.883,2.119,1.533c0.598,0.646,1.065,1.395,1.399,2.24
		c0.334,0.851,0.504,1.762,0.504,2.734c0,0.973-0.17,1.883-0.504,2.733c-0.334,0.848-0.802,1.598-1.399,2.244
		c-0.597,0.646-1.305,1.158-2.119,1.529C275.645,19.291,274.757,19.475,273.797,19.475z M273.797,17.246
		c0.651,0,1.241-0.139,1.767-0.416c0.526-0.275,0.968-0.639,1.331-1.086c0.362-0.447,0.638-0.963,0.83-1.545
		c0.188-0.58,0.283-1.178,0.283-1.787c0-0.592-0.096-1.178-0.283-1.76c-0.192-0.582-0.475-1.102-0.845-1.557
		c-0.37-0.461-0.813-0.826-1.331-1.102c-0.515-0.277-1.101-0.416-1.752-0.416c-0.653,0-1.242,0.139-1.768,0.416
		c-0.523,0.275-0.968,0.639-1.332,1.086c-0.361,0.447-0.638,0.963-0.826,1.545c-0.191,0.58-0.284,1.178-0.284,1.787
		c0,0.609,0.093,1.201,0.284,1.774c0.189,0.572,0.471,1.086,0.84,1.545c0.372,0.457,0.816,0.824,1.332,1.1
		C272.56,17.107,273.144,17.246,273.797,17.246z"/>
	<path class="st0" d="M283.172,5.777h2.443v7.807c0,1.26,0.246,2.17,0.735,2.731c0.487,0.563,1.196,0.844,2.119,0.844
		c0.706,0,1.291-0.15,1.753-0.455c0.46-0.305,0.838-0.703,1.128-1.187c0.288-0.486,0.491-1.039,0.611-1.658
		c0.118-0.621,0.176-1.256,0.176-1.902V5.777h2.444v10.41c0,0.59,0,1.102,0,1.531c0,0.428,0.012,0.881,0.029,1.357h-2.338
		l-0.082-1.973c-0.161,0.229-0.361,0.475-0.597,0.744c-0.235,0.266-0.525,0.508-0.869,0.729c-0.345,0.219-0.744,0.404-1.197,0.557
		c-0.452,0.152-0.967,0.229-1.546,0.229c-1.649,0-2.863-0.5-3.645-1.502c-0.777-1-1.166-2.367-1.166-4.103V5.777z"/>
	<path class="st0" d="M299.665,21.791c0.417,0.307,0.929,0.57,1.534,0.789c0.607,0.217,1.348,0.328,2.215,0.328
		c1.214,0,2.12-0.353,2.719-1.059c0.596-0.705,0.898-1.631,0.898-2.773v-1.631c-0.13,0.113-0.297,0.274-0.503,0.473
		c-0.209,0.199-0.474,0.391-0.787,0.572c-0.318,0.18-0.695,0.342-1.129,0.486c-0.436,0.143-0.933,0.213-1.494,0.213
		c-0.926,0-1.744-0.166-2.46-0.5c-0.716-0.334-1.317-0.789-1.806-1.371c-0.491-0.584-0.861-1.279-1.114-2.088
		c-0.257-0.813-0.384-1.693-0.384-2.647c0-1.031,0.174-1.977,0.52-2.846c0.342-0.867,0.827-1.619,1.451-2.26
		c0.627-0.639,1.373-1.135,2.243-1.486c0.87-0.353,1.838-0.529,2.908-0.529c1.031,0,1.993,0.096,2.882,0.285
		c0.885,0.191,1.602,0.4,2.145,0.631v12.697c0,1.924-0.531,3.418-1.591,4.475c-1.058,1.059-2.548,1.588-4.468,1.588
		c-1.287,0-2.313-0.148-3.072-0.443c-0.762-0.295-1.375-0.633-1.847-1.016L299.665,21.791z M307.057,8.121
		c-0.164-0.055-0.441-0.139-0.83-0.24c-0.391-0.105-0.972-0.16-1.751-0.16c-0.689,0-1.314,0.119-1.876,0.359
		c-0.56,0.238-1.047,0.57-1.452,1c-0.409,0.43-0.726,0.939-0.953,1.529c-0.226,0.592-0.338,1.24-0.338,1.945
		c0,0.611,0.067,1.182,0.203,1.717c0.135,0.531,0.354,1,0.651,1.4c0.297,0.4,0.674,0.715,1.127,0.945
		c0.453,0.228,1.006,0.342,1.658,0.342c0.598,0,1.123-0.094,1.576-0.283c0.452-0.193,0.822-0.445,1.114-0.76
		c0.291-0.314,0.508-0.668,0.651-1.059c0.145-0.391,0.219-0.795,0.219-1.215V8.121z"/>
	<path class="st0" d="M312.816,0h2.418v7.75c0.163-0.228,0.363-0.477,0.598-0.742c0.236-0.27,0.527-0.514,0.869-0.746
		c0.346-0.227,0.742-0.42,1.195-0.572c0.452-0.152,0.969-0.227,1.549-0.227c1.649,0,2.873,0.504,3.67,1.516
		c0.797,1.01,1.195,2.383,1.195,4.117v7.981h-2.445v-7.779c0-1.24-0.253-2.148-0.762-2.731c-0.51-0.584-1.223-0.873-2.146-0.873
		c-0.705,0-1.296,0.152-1.768,0.457c-0.469,0.305-0.846,0.701-1.125,1.188c-0.281,0.486-0.486,1.039-0.611,1.658
		c-0.129,0.621-0.19,1.252-0.19,1.902v6.178h-2.446V0z"/>
</g>
</svg>
