<?xml version="1.0" encoding="UTF-8"?>
<svg width="auto" height="auto" viewBox="0 0 26 25" version="1.1" xmlns="http://www.w3.org/2000/svg" xmlns:xlink="http://www.w3.org/1999/xlink">
    <!-- Generator: Sketch 46.2 (44496) - http://www.bohemiancoding.com/sketch -->
    <title>Page 1</title>
    <desc>Created with Sketch.</desc>
    <defs>
        <polygon id="path-1" points="25.4074211 0 25.4074211 24.5613791 0 24.5613791 0 0"></polygon>
    </defs>
    <g id="Welcome" stroke="none" stroke-width="1" fill="none" fill-rule="evenodd">
        <g id="Search-Drop-Down-Menu" transform="translate(-457.000000, -264.000000)">
            <g id="Page-1" transform="translate(457.000000, 264.000000)">
                <mask id="mask-2" fill="white">
                    <use xlink:href="#path-1"></use>
                </mask>
                <g id="Clip-2"></g>
                <path d="M24.5297886,21.4199403 L15.0046345,21.4199403 L15.0046345,19.1350466 L22.5094685,19.1350466 L22.5094685,17.9925997 L15.0046345,17.9925997 L15.0046345,16.5646265 L22.5094685,16.5646265 L22.5094685,15.4221796 L15.0046345,15.4221796 L15.0046345,13.9942063 L22.5094685,13.9942063 L22.5094685,12.8521006 L15.0046345,12.8521006 L15.0046345,11.4237862 L22.5094685,11.4237862 L22.5094685,10.2816805 L15.0046345,10.2816805 L15.0046345,8.85370722 L22.5094685,8.85370722 L22.5094685,7.71091924 L15.0046345,7.71091924 L15.0046345,6.28294596 L22.5094685,6.28294596 L22.5094685,5.14084025 L15.0046345,5.14084025 L15.0046345,3.14147298 L24.5297886,3.14147298 L24.5297886,21.4199403 Z M9.62975565,16.1617511 C9.14777485,16.4104354 8.42618272,16.1504937 7.85456315,16.190406 C7.47084024,14.2998595 7.02333589,12.4205702 6.67995043,10.5214954 C6.34208121,12.3663304 5.90354074,14.1941089 5.51671495,16.0276867 C4.96233361,15.9993728 4.40553891,15.9652597 3.84805469,15.9277354 C3.36917677,13.4146252 2.80617631,10.9185716 2.35901674,8.3996622 C2.85237476,8.37680644 3.34883567,8.35667973 3.84253845,8.33928206 C4.13972547,10.1585323 4.4775947,11.9695954 4.73720238,13.7915747 C5.14471404,11.9238839 5.56050005,10.0558519 5.9642193,8.18782001 C6.51273964,8.15677712 7.06125999,8.13392136 7.60943557,8.10526638 C7.99350325,10.0333373 8.38584527,11.957997 8.80163128,13.8771985 C9.12777851,11.8952289 9.48874696,9.91871739 9.83764865,7.93947684 C10.4151292,7.91969125 10.992265,7.88830723 11.5666427,7.85385302 C10.9143482,10.6211056 10.3430734,13.411555 9.62975565,16.1617511 L9.62975565,16.1617511 Z M25.3785988,3.39288634 C25.4392774,2.74166776 24.9224754,2.236112 24.2643199,2.30195023 C21.1786775,2.25316854 18.093035,2.30195023 15.0046345,2.28489369 L15.0046345,0 L13.2787433,0 C8.85369072,0.779824871 4.42588002,1.52519554 0.00117219936,2.29035179 C0.00117219936,8.95058835 -0.00158591678,15.613554 0.00117219936,22.2768607 C4.40312556,23.0392879 8.80783704,23.767602 13.2008265,24.5614133 L15.0046345,24.5614133 L15.0046345,22.2768607 C17.8937611,22.2768607 20.7801297,22.2707203 23.6699459,22.2847067 C24.160201,22.2621921 24.7059632,22.2990342 25.1272655,22.0022505 C25.4651347,21.4912366 25.3785988,20.8512753 25.407559,20.2747644 C25.3672216,14.648154 25.4275554,9.01915563 25.3785988,3.39288634 L25.3785988,3.39288634 Z" id="Fill-1" fill="#9B9B9B" mask="url(#mask-2)"></path>
            </g>
        </g>
    </g>
</svg>