<?xml version="1.0" encoding="UTF-8"?>
<svg width="auto" height="auto" viewBox="0 0 24 18" version="1.1" xmlns="http://www.w3.org/2000/svg" xmlns:xlink="http://www.w3.org/1999/xlink">
    <!-- Generator: Sketch 46.2 (44496) - http://www.bohemiancoding.com/sketch -->
    <title>Page 1</title>
    <desc>Created with Sketch.</desc>
    <defs>
        <polygon id="path-1" points="2.13987271e-21 1.18779838e-05 2.13987271e-21 17.7111033 24 17.7111033 24 1.18779838e-05 0 1.18779838e-05"></polygon>
    </defs>
    <g id="Welcome" stroke="none" stroke-width="1" fill="none" fill-rule="evenodd">
        <g id="Search-Drop-Down-Menu" transform="translate(-457.000000, -212.000000)">
            <g id="Page-1" transform="translate(457.000000, 212.000000)">
                <mask id="mask-2" fill="white">
                    <use xlink:href="#path-1"></use>
                </mask>
                <g id="Clip-2"></g>
                <path d="M16.1588605,9.50028071 L9.72970263,13.3003645 C9.23241316,13.5943842 8.60478158,13.2347188 8.60478158,12.6556275 L8.60478158,5.05545997 C8.60478158,4.47644785 9.23241316,4.1167825 9.72970263,4.41072301 L16.1588605,8.21080678 C16.64865,8.50023366 16.64865,9.21085384 16.1588605,9.50028071 M23.6035974,2.15762785 C23.5193605,1.45896484 22.8517816,0.800132666 22.13565,0.699328177 C15.2872816,-0.233093555 8.71278158,-0.233093555 1.86441316,0.699328177 C1.14820263,0.800132666 0.480623684,1.45896484 0.396465789,2.15762785 C-0.132165789,6.60719978 -0.132165789,11.1039669 0.396465789,15.5533805 C0.480623684,16.2521227 1.14820263,16.9109548 1.86441316,17.0117593 C8.71278158,17.9442602 15.2872816,17.9442602 22.13565,17.0117593 C22.8517816,16.9109548 23.5193605,16.2521227 23.6035974,15.5533805 C24.13215,11.1039669 24.13215,6.60719978 23.6035974,2.15762785" id="Fill-1" fill="#9B9B9B" mask="url(#mask-2)"></path>
            </g>
        </g>
    </g>
</svg>