<?xml version="1.0" encoding="utf-8"?>
<!-- Generator: Adobe Illustrator 19.0.0, SVG Export Plug-In . SVG Version: 6.00 Build 0)  -->
<svg version="1.1" id="Layer_1" xmlns="http://www.w3.org/2000/svg" xmlns:xlink="http://www.w3.org/1999/xlink" x="0px" y="0px"
	 viewBox="0 0 7.806 7.799" style="enable-background:new 0 0 7.806 7.799;" xml:space="preserve">
<style type="text/css">
	.st0{fill:#2C51A4;}
</style>
<path class="st0" d="M7.636,6.9L4.667,4.201C4.654,4.218,4.638,4.233,4.624,4.25C4.991,3.8,5.22,3.234,5.22,2.609
	C5.22,1.169,4.051,0,2.61,0C1.168,0,0,1.169,0,2.609c0,1.441,1.168,2.61,2.61,2.61c0.625,0,1.191-0.229,1.64-0.595
	C4.234,4.637,4.219,4.653,4.202,4.666l2.704,2.965c0.199,0.218,0.54,0.225,0.748,0.017C7.863,7.439,7.855,7.099,7.636,6.9z
	 M2.61,4.74c-1.177,0-2.131-0.954-2.131-2.131c0-1.176,0.954-2.13,2.131-2.13s2.131,0.954,2.131,2.13
	C4.741,3.786,3.787,4.74,2.61,4.74z"/>
</svg>
