<?xml version="1.0" encoding="utf-8"?>
<!-- Generator: Adobe Illustrator 19.0.0, SVG Export Plug-In . SVG Version: 6.00 Build 0)  -->
<svg version="1.1" id="Layer_1" xmlns="http://www.w3.org/2000/svg" xmlns:xlink="http://www.w3.org/1999/xlink" x="0px" y="0px"
	 viewBox="0 0 7.668 14.664" style="enable-background:new 0 0 7.668 14.664;" xml:space="preserve">
<style type="text/css">
	.st0{fill:#E2E2E2;}
</style>
<path id="Fill-4" class="st0" d="M6.115,2.475C6.57,2.458,7.025,2.47,7.481,2.47h0.187V0.106C7.426,0.083,7.171,0.048,6.918,0.035
	c-0.467-0.02-0.935-0.043-1.402-0.032c-0.713,0.015-1.388,0.188-1.978,0.61C2.862,1.098,2.491,1.781,2.349,2.586
	C2.291,2.917,2.275,3.262,2.267,3.599C2.254,4.13,2.264,4.659,2.265,5.19v0.199H0v2.64h2.251v6.635h2.752V8.04h2.245
	c0.114-0.879,0.228-1.747,0.345-2.652c-0.18,0-0.342-0.002-0.505,0c-0.638,0.003-2.103,0-2.103,0s0.006-1.309,0.021-1.876
	C5.029,2.734,5.491,2.497,6.115,2.475"/>
</svg>
