<?xml version="1.0" encoding="utf-8"?>
<!-- Generator: Adobe Illustrator 19.0.0, SVG Export Plug-In . SVG Version: 6.00 Build 0)  -->
<svg version="1.1" id="Layer_1" xmlns="http://www.w3.org/2000/svg" xmlns:xlink="http://www.w3.org/1999/xlink" x="0px" y="0px"
	 viewBox="0 0 18.281 11.555" style="enable-background:new 0 0 18.281 11.555;" xml:space="preserve">
<style type="text/css">
	.st0{fill:#E2E2E2;}
</style>
<g id="XMLID_98_">
	<path id="XMLID_99_" class="st0" d="M5.78,4.618C5.778,4.652,5.775,4.683,5.775,4.71c0,0.706,0.002,2.231,0.002,2.231h3.098
		c0,0.229-0.271,1.152-1.138,1.738C7.23,9.021,6.659,9.179,6.055,9.218C5.629,9.245,5.21,9.202,4.799,9.072
		C3.508,8.658,2.546,7.49,2.414,6.069c-0.032-0.351-0.009-0.702,0.07-1.048C2.868,3.34,4.464,2.093,6.29,2.362
		c0.81,0.12,1.276,0.456,1.701,0.819c0.559-0.56,1.114-1.113,1.683-1.683C9.536,1.398,9.217,1.074,8.648,0.746
		C7.8,0.256,6.884,0.011,5.904,0C5.719-0.002,5.534,0.009,5.35,0.018C5.026,0.03,4.709,0.086,4.396,0.165
		C3.144,0.485,2.105,1.14,1.292,2.142C0.509,3.104,0.089,4.21,0.011,5.444c-0.033,0.523,0.007,1.044,0.123,1.556
		c0.325,1.431,1.077,2.587,2.264,3.453c0.919,0.673,1.954,1.031,3.09,1.093c0.638,0.034,1.273-0.025,1.897-0.187
		c1.16-0.303,2.123-0.907,2.846-1.87c1.049-1.392,1.302-3.176,0.993-4.87H5.78z"/>
	<polygon id="XMLID_100_" class="st0" points="18.223,4.693 16.262,4.693 16.262,2.735 16.262,2.678 16.204,2.678 14.741,2.678 
		14.682,2.678 14.682,2.735 14.682,4.693 12.72,4.693 12.664,4.693 12.664,4.75 12.664,6.212 12.664,6.271 12.72,6.271 
		14.682,6.271 14.682,8.23 14.682,8.287 14.741,8.287 16.204,8.287 16.262,8.287 16.262,8.23 16.262,6.271 18.223,6.271 
		18.281,6.271 18.281,6.212 18.281,4.75 18.281,4.693 	"/>
</g>
</svg>
