<?xml version="1.0" encoding="utf-8"?>
<!-- Generator: Adobe Illustrator 19.0.0, SVG Export Plug-In . SVG Version: 6.00 Build 0)  -->
<svg version="1.1" id="Layer_1" xmlns="http://www.w3.org/2000/svg" xmlns:xlink="http://www.w3.org/1999/xlink" x="0px" y="0px"
	 viewBox="-293 387.956 24 24" style="enable-background:new -293 387.956 24 24;" xml:space="preserve">
<style type="text/css">
	.st0{fill:#E2E2E2;}
</style>
<path class="st0" d="M-272.985,387.956h-16.031c-2.191,0-3.984,1.793-3.984,3.984v16.031c0,2.192,1.793,3.985,3.984,3.985h16.031
	c2.192,0,3.985-1.793,3.985-3.985l-0.001-16.031C-269.001,389.749-270.794,387.956-272.985,387.956z M-285.317,398.456h8.634
	c0.163,0.47,0.253,0.975,0.253,1.5c0,2.52-2.05,4.57-4.57,4.57c-2.52,0-4.57-2.05-4.57-4.57
	C-285.571,399.431-285.481,398.926-285.317,398.456z M-272.001,398.457v5.998v3c0,0.825-0.675,1.5-1.5,1.5h-15
	c-0.825,0-1.5-0.675-1.5-1.5v-3v-5.998v-0.001h2.346c-0.108,0.483-0.166,0.984-0.166,1.5c0,3.76,3.059,6.82,6.82,6.82
	c3.76,0,6.82-3.059,6.82-6.82c0-0.516-0.058-1.017-0.166-1.5h2.346V398.457z M-272.001,393.206c0,0.412-0.338,0.75-0.75,0.75h-1.5
	c-0.412,0-0.75-0.338-0.75-0.75v-1.5c0-0.412,0.338-0.75,0.75-0.75h1.5c0.412,0,0.75,0.338,0.75,0.75V393.206z"/>
</svg>
