<?xml version="1.0" encoding="utf-8"?>
<!-- Generator: Adobe Illustrator 19.0.0, SVG Export Plug-In . SVG Version: 6.00 Build 0)  -->
<svg version="1.1" id="Layer_1" xmlns="http://www.w3.org/2000/svg" xmlns:xlink="http://www.w3.org/1999/xlink" x="0px" y="0px"
	 viewBox="0 0 13.307 13.257" style="enable-background:new 0 0 13.307 13.257;" xml:space="preserve">
<style type="text/css">
	.st0{fill:#E2E2E2;}
</style>
<g id="XMLID_40_">
	<rect id="XMLID_47_" x="0.219" y="4.402" class="st0" width="2.761" height="8.855"/>
	<path id="XMLID_48_" class="st0" d="M1.6,0C0.714,0,0,0.717,0,1.595c0,0.881,0.714,1.597,1.6,1.597
		c0.882,0,1.599-0.716,1.599-1.597C3.199,0.717,2.482,0,1.6,0z"/>
	<path id="XMLID_49_" class="st0" d="M10.001,4.182c-1.342,0-2.242,0.734-2.61,1.429H7.354v-1.21H4.71v8.855h2.755V8.875
		c0-1.154,0.219-2.271,1.655-2.271c1.412,0,1.433,1.321,1.433,2.348v4.305h2.755V8.399C13.307,6.014,12.793,4.182,10.001,4.182z"/>
</g>
</svg>
