<?xml version="1.0" encoding="utf-8"?>
<!-- Generator: Adobe Illustrator 19.0.0, SVG Export Plug-In . SVG Version: 6.00 Build 0)  -->
<svg version="1.1" id="Layer_1" xmlns="http://www.w3.org/2000/svg" xmlns:xlink="http://www.w3.org/1999/xlink" x="0px" y="0px"
	 viewBox="-275.965 389.214 11.701 15.086" style="enable-background:new -275.965 389.214 11.701 15.086;" xml:space="preserve">
<style type="text/css">
	.st0{fill:#E2E2E2;}
</style>
<path id="Fill-25" class="st0" d="M-271.073,399.055c-0.012,0.043-0.024,0.079-0.033,0.116c-0.555,2.172-0.616,2.654-1.187,3.662
	c-0.272,0.479-0.578,0.933-0.917,1.367c-0.039,0.049-0.075,0.113-0.15,0.099c-0.085-0.019-0.09-0.093-0.1-0.161
	c-0.091-0.659-0.142-1.321-0.12-1.987c0.029-0.868,0.137-1.165,1.257-5.868c0.017-0.073-0.002-0.133-0.026-0.196
	c-0.268-0.724-0.321-1.456-0.087-2.199c0.507-1.604,2.329-1.727,2.647-0.403c0.197,0.818-0.323,1.889-0.721,3.473
	c-0.329,1.307,1.21,2.236,2.528,1.281c1.214-0.879,1.686-2.987,1.596-4.481c-0.177-2.978-3.449-3.622-5.524-2.663
	c-2.38,1.098-2.921,4.043-1.847,5.389c0.137,0.17,0.242,0.275,0.197,0.449c-0.07,0.271-0.131,0.542-0.206,0.81
	c-0.055,0.199-0.222,0.272-0.424,0.19c-0.396-0.159-0.726-0.413-0.994-0.742c-0.912-1.128-1.174-3.359,0.033-5.249
	c1.336-2.093,3.822-2.938,6.093-2.682c2.711,0.309,4.425,2.157,4.745,4.255c0.146,0.955,0.041,3.313-1.303,4.977
	c-1.546,1.915-4.052,2.041-5.208,0.867C-270.913,399.268-270.985,399.163-271.073,399.055"/>
</svg>
