<?xml version="1.0" encoding="utf-8"?>
<!-- Generator: Adobe Illustrator 19.0.0, SVG Export Plug-In . SVG Version: 6.00 Build 0)  -->
<svg version="1.1" id="Layer_1" xmlns="http://www.w3.org/2000/svg" xmlns:xlink="http://www.w3.org/1999/xlink" x="0px" y="0px"
	 viewBox="-7.047 -4.367 14.046 9.984" style="enable-background:new -7.047 -4.367 14.046 9.984;" xml:space="preserve">
<g id="Clip-70">
</g>
<path d="M6.923,1.007c0.101-0.245,0.101-0.52,0-0.764C6.872,0.12,6.799,0.01,6.707-0.082L2.715-4.074
	c-0.391-0.391-1.023-0.391-1.414,0s-0.391,1.023,0,1.414l2.285,2.285h-9.633c-0.552,0-1,0.448-1,1s0.448,1,1,1h9.633L1.301,3.91
	c-0.391,0.391-0.391,1.023,0,1.414C1.496,5.52,1.752,5.617,2.008,5.617S2.52,5.52,2.715,5.324l3.992-3.992
	C6.799,1.24,6.872,1.13,6.923,1.007z"/>
</svg>
