<?xml version="1.0" encoding="utf-8"?>
<!-- Generator: Adobe Illustrator 19.0.0, SVG Export Plug-In . SVG Version: 6.00 Build 0)  -->
<svg version="1.1" id="Layer_1" xmlns="http://www.w3.org/2000/svg" xmlns:xlink="http://www.w3.org/1999/xlink" x="0px" y="0px"
	 viewBox="-5.612 -5.841 11.8 11.8" style="enable-background:new -5.612 -5.841 11.8 11.8;" xml:space="preserve">
<style type="text/css">
	.st0{fill:#077280;}
</style>
<g>
	<path class="st0" d="M0.288-5.841c-3.253,0-5.9,2.646-5.9,5.9s2.646,5.9,5.9,5.9s5.9-2.646,5.9-5.9S3.542-5.841,0.288-5.841z
		 M0.288,5.159c-2.812,0-5.1-2.288-5.1-5.1s2.288-5.1,5.1-5.1s5.1,2.288,5.1,5.1S3.1,5.159,0.288,5.159z"/>
	<circle class="st0" cx="0.288" cy="3.314" r="1"/>
	<path class="st0" d="M0.759-4.279h-0.941c-0.325,0-0.588,0.263-0.588,0.588l0.394,5.1c0,0.535,0.441,0.535,0.665,0.535
		c0.224,0,0.647,0,0.647-0.588l0.412-5.047C1.347-4.016,1.084-4.279,0.759-4.279z"/>
</g>
</svg>
