<?xml version="1.0" encoding="utf-8"?>
<!-- Generator: Adobe Illustrator 19.0.0, SVG Export Plug-In . SVG Version: 6.00 Build 0)  -->
<svg version="1.1" id="Layer_1" xmlns="http://www.w3.org/2000/svg" xmlns:xlink="http://www.w3.org/1999/xlink" x="0px" y="0px"
	 viewBox="-301 389.336 7.668 14.664" style="enable-background:new -301 389.336 7.668 14.664;" xml:space="preserve">
<style type="text/css">
	.st0{fill:#FAF845;}
</style>
<path id="Fill-4" class="st0" d="M-294.885,391.811c0.455-0.017,0.91-0.005,1.366-0.005h0.187v-2.364
	c-0.242-0.023-0.497-0.058-0.75-0.071c-0.467-0.02-0.935-0.043-1.402-0.032c-0.713,0.015-1.388,0.188-1.978,0.61
	c-0.676,0.485-1.047,1.168-1.189,1.973c-0.058,0.331-0.074,0.676-0.082,1.013c-0.013,0.531-0.003,1.06-0.002,1.591v0.199H-301v2.64
	h2.251V404h2.752v-6.624h2.245c0.114-0.879,0.228-1.747,0.345-2.652c-0.18,0-0.342-0.002-0.505,0c-0.638,0.003-2.103,0-2.103,0
	s0.006-1.309,0.021-1.876C-295.971,392.07-295.509,391.833-294.885,391.811"/>
</svg>
