<?xml version="1.0" encoding="utf-8"?>
<!-- Generator: Adobe Illustrator 19.0.0, SVG Export Plug-In . SVG Version: 6.00 Build 0)  -->
<svg version="1.1" id="Layer_1" xmlns="http://www.w3.org/2000/svg" xmlns:xlink="http://www.w3.org/1999/xlink" x="0px" y="0px"
	 viewBox="-298 390.743 13.308 13.257" style="enable-background:new -298 390.743 13.308 13.257;" xml:space="preserve">
<style type="text/css">
	.st0{fill:#FAF845;}
</style>
<g id="XMLID_40_">
	<rect id="XMLID_47_" x="-297.781" y="395.145" class="st0" width="2.761" height="8.855"/>
	<path id="XMLID_48_" class="st0" d="M-296.4,390.743c-0.886,0-1.6,0.717-1.6,1.595c0,0.881,0.714,1.597,1.6,1.597
		c0.882,0,1.599-0.716,1.599-1.597C-294.801,391.46-295.518,390.743-296.4,390.743z"/>
	<path id="XMLID_49_" class="st0" d="M-287.999,394.925c-1.342,0-2.242,0.734-2.61,1.429h-0.037v-1.21h-2.644v8.855h2.755v-4.381
		c0-1.154,0.219-2.271,1.655-2.271c1.412,0,1.433,1.321,1.433,2.348V404h2.755v-4.858
		C-284.693,396.757-285.207,394.925-287.999,394.925z"/>
</g>
</svg>
