<?xml version="1.0" encoding="utf-8"?>
<!-- Generator: Adobe Illustrator 19.0.0, SVG Export Plug-In . SVG Version: 6.00 Build 0)  -->
<svg version="1.1" id="Layer_1" xmlns="http://www.w3.org/2000/svg" xmlns:xlink="http://www.w3.org/1999/xlink" x="0px" y="0px"
	 viewBox="-297 390.14 15.827 12.86" style="enable-background:new -297 390.14 15.827 12.86;" xml:space="preserve">
<style type="text/css">
	.st0{fill:#FAF845;}
</style>
<path id="Fill-9" class="st0" d="M-292.201,400.204c-1.69-0.059-2.747-1.27-3.026-2.254c0.471,0.09,0.934,0.072,1.394-0.042
	c0.013-0.003,0.024-0.01,0.047-0.021c-0.915-0.213-1.622-0.702-2.113-1.49c-0.324-0.524-0.48-1.097-0.475-1.726
	c0.456,0.243,0.934,0.379,1.447,0.393c-0.688-0.496-1.15-1.142-1.339-1.97c-0.187-0.825-0.066-1.61,0.349-2.351
	c1.761,2.07,3.989,3.207,6.708,3.394c-0.018-0.13-0.04-0.242-0.053-0.356c-0.09-0.765,0.062-1.477,0.477-2.124
	c0.516-0.81,1.255-1.314,2.205-1.468c1.094-0.179,2.049,0.133,2.847,0.906c0.054,0.052,0.098,0.068,0.173,0.052
	c0.668-0.146,1.299-0.386,1.892-0.728c0.013-0.008,0.028-0.015,0.042-0.021c0.003-0.002,0.008-0.002,0.021-0.002
	c-0.256,0.754-0.725,1.337-1.392,1.767c0.63-0.07,1.231-0.237,1.811-0.487c0.005,0.006,0.009,0.011,0.013,0.015
	c-0.124,0.162-0.244,0.329-0.374,0.487c-0.345,0.425-0.741,0.799-1.182,1.121c-0.038,0.028-0.055,0.053-0.054,0.103
	c0.018,0.482,0,0.962-0.06,1.441c-0.125,1.009-0.407,1.971-0.839,2.891c-0.446,0.95-1.026,1.806-1.758,2.56
	c-1.239,1.278-2.732,2.104-4.47,2.487c-0.596,0.131-1.2,0.197-1.812,0.215c-1.875,0.054-3.609-0.411-5.203-1.394
	c-0.02-0.013-0.04-0.027-0.075-0.05c1.135,0.121,2.214-0.024,3.253-0.448C-293.195,400.878-292.684,400.581-292.201,400.204"/>
</svg>
