<?xml version="1.0" encoding="utf-8"?>
<!-- Generator: Adobe Illustrator 19.0.0, SVG Export Plug-In . SVG Version: 6.00 Build 0)  -->
<svg version="1.1" id="Layer_1" xmlns="http://www.w3.org/2000/svg" xmlns:xlink="http://www.w3.org/1999/xlink" x="0px" y="0px"
	 viewBox="-293 388.29 24 17.71" style="enable-background:new -293 388.29 24 17.71;" xml:space="preserve">
<style type="text/css">
	.st0{fill:#FAF845;}
</style>
<path id="Fill-1" class="st0" d="M-276.841,397.79l-6.429,3.8c-0.497,0.294-1.125-0.066-1.125-0.645v-7.6
	c0-0.579,0.628-0.939,1.125-0.645l6.429,3.8C-276.351,396.789-276.351,397.5-276.841,397.79 M-269.396,390.447
	c-0.084-0.699-0.752-1.357-1.468-1.458c-6.848-0.932-13.423-0.932-20.271,0c-0.716,0.101-1.384,0.76-1.468,1.458
	c-0.529,4.45-0.529,8.946,0,13.396c0.084,0.699,0.752,1.358,1.468,1.458c6.848,0.932,13.423,0.932,20.271,0
	c0.716-0.101,1.384-0.76,1.468-1.458C-268.868,399.393-268.868,394.896-269.396,390.447"/>
</svg>
