<?xml version="1.0" encoding="utf-8"?>
<!-- Generator: Adobe Illustrator 19.0.0, SVG Export Plug-In . SVG Version: 6.00 Build 0)  -->
<svg version="1.1" id="Layer_1" xmlns="http://www.w3.org/2000/svg" xmlns:xlink="http://www.w3.org/1999/xlink" x="0px" y="0px"
	 viewBox="0 0 172.667 89.963" style="enable-background:new 0 0 172.667 89.963;" xml:space="preserve">
<style type="text/css">
	.st0{filter:url(#Adobe_OpacityMaskFilter);}
	.st1{fill:#FFFFFF;}
	.st2{mask:url(#mask-2_2_);fill:#077280;}
	.st3{filter:url(#Adobe_OpacityMaskFilter_1_);}
	.st4{mask:url(#mask-4_2_);fill:#077280;}
	.st5{filter:url(#Adobe_OpacityMaskFilter_2_);}
	.st6{mask:url(#mask-6_2_);fill:#077280;}
	.st7{filter:url(#Adobe_OpacityMaskFilter_3_);}
	.st8{mask:url(#mask-8_2_);fill:#077280;}
	.st9{filter:url(#Adobe_OpacityMaskFilter_4_);}
	.st10{mask:url(#mask-10_2_);fill:#077280;}
	.st11{filter:url(#Adobe_OpacityMaskFilter_5_);}
	.st12{mask:url(#mask-12_2_);fill:#077280;}
	.st13{filter:url(#Adobe_OpacityMaskFilter_6_);}
	.st14{mask:url(#mask-14_2_);fill:#077280;}
	.st15{filter:url(#Adobe_OpacityMaskFilter_7_);}
	.st16{mask:url(#mask-16_2_);fill:#077280;}
	.st17{filter:url(#Adobe_OpacityMaskFilter_8_);}
	.st18{mask:url(#mask-18_2_);fill:#077280;}
	.st19{filter:url(#Adobe_OpacityMaskFilter_9_);}
	.st20{mask:url(#mask-20_2_);fill:#077280;}
	.st21{fill:#22B6CD;}
</style>
<g id="XMLID_1_">
	<defs>
		<filter id="Adobe_OpacityMaskFilter" filterUnits="userSpaceOnUse" x="122.765" y="30" width="55.28" height="41.023">
			<feColorMatrix  type="matrix" values="1 0 0 0 0  0 1 0 0 0  0 0 1 0 0  0 0 0 1 0"/>
		</filter>
	</defs>
	<mask maskUnits="userSpaceOnUse" x="122.765" y="30" width="55.28" height="41.023" id="mask-2_2_">
		<g class="st0">
			<path id="path-1_2_" class="st1" d="M140.966,38.401c-2.79,0-5.451-0.533-7.887-1.495c-1.15,2.513-2.813,4.758-4.86,6.611
				c6.841,2.087,20.668,7.552,20.668,17.594v4.643h23.705V50.431c0-9.274-16.96-14.237-20.456-15.161
				C148.898,37.25,145.069,38.401,140.966,38.401z"/>
		</g>
	</mask>
	<polygon id="Fill-1" class="st2" points="122.765,71.023 178.045,71.023 178.045,30 122.765,30 	"/>
	<defs>
		<filter id="Adobe_OpacityMaskFilter_1_" filterUnits="userSpaceOnUse" x="118.813" y="-5.098" width="43.195" height="45.129">
			<feColorMatrix  type="matrix" values="1 0 0 0 0  0 1 0 0 0  0 0 1 0 0  0 0 0 1 0"/>
		</filter>
	</defs>
	<mask maskUnits="userSpaceOnUse" x="118.813" y="-5.098" width="43.195" height="45.129" id="mask-4_2_">
		<g class="st3">
			<path id="path-3_2_" class="st1" d="M124.081,10.752c5.847,3.583,9.764,10.092,9.764,17.51c0,1.767-0.222,3.483-0.639,5.12
				c2.013,0.851,4.22,1.323,6.538,1.323c9.388,0,16.998-7.717,16.998-17.239c0-9.519-7.61-17.237-16.998-17.237
				C132.702,0.228,126.662,4.568,124.081,10.752z"/>
		</g>
	</mask>
	<polygon id="Fill-4" class="st4" points="118.813,40.031 162.008,40.031 162.008,-5.098 118.813,-5.098 	"/>
	<defs>
		<filter id="Adobe_OpacityMaskFilter_2_" filterUnits="userSpaceOnUse" x="-5.303" y="30" width="55.467" height="41.023">
			<feColorMatrix  type="matrix" values="1 0 0 0 0  0 1 0 0 0  0 0 1 0 0  0 0 0 1 0"/>
		</filter>
	</defs>
	<mask maskUnits="userSpaceOnUse" x="-5.303" y="30" width="55.467" height="41.023" id="mask-6_2_">
		<g class="st5">
			<path id="path-5_2_" class="st1" d="M0.201,50.431v15.323h23.597v-4.643c0-10.042,13.955-15.507,20.861-17.594
				c-2.038-1.826-3.699-4.034-4.857-6.505c-2.382,0.894-4.971,1.389-7.679,1.389c-4.143,0-8.008-1.151-11.276-3.131
				C17.317,36.195,0.201,41.157,0.201,50.431z"/>
		</g>
	</mask>
	<polygon id="Fill-7" class="st6" points="-5.303,71.023 50.163,71.023 50.163,30 -5.303,30 	"/>
	<defs>
		<filter id="Adobe_OpacityMaskFilter_3_" filterUnits="userSpaceOnUse" x="9.789" y="-5.098" width="43.129" height="45.129">
			<feColorMatrix  type="matrix" values="1 0 0 0 0  0 1 0 0 0  0 0 1 0 0  0 0 0 1 0"/>
		</filter>
	</defs>
	<mask maskUnits="userSpaceOnUse" x="9.789" y="-5.098" width="43.129" height="45.129" id="mask-8_2_">
		<g class="st7">
			<path id="path-7_2_" class="st1" d="M15.056,17.465c0,9.522,7.611,17.239,17,17.239c2.209,0,4.317-0.432,6.253-1.209
				c-0.437-1.671-0.671-3.425-0.671-5.234c0-7.523,4.028-14.109,10.012-17.659C45.034,4.499,39.039,0.228,32.056,0.228
				C22.667,0.228,15.056,7.946,15.056,17.465z"/>
		</g>
	</mask>
	<polygon id="Fill-10" class="st8" points="9.789,40.031 52.917,40.031 52.917,-5.098 9.789,-5.098 	"/>
	<defs>
		<filter id="Adobe_OpacityMaskFilter_4_" filterUnits="userSpaceOnUse" x="83.051" y="-2.949" width="41.013" height="27.129">
			<feColorMatrix  type="matrix" values="1 0 0 0 0  0 1 0 0 0  0 0 1 0 0  0 0 0 1 0"/>
		</filter>
	</defs>
	<mask maskUnits="userSpaceOnUse" x="83.051" y="-2.949" width="41.013" height="27.129" id="mask-10_2_">
		<g class="st9">
			<path id="path-9_2_" class="st1" d="M88.389,17.927c1.341,0.197,2.64,0.522,3.888,0.955C95.908,11.734,103.3,7.17,111.399,7.17
				c2.572,0,5.039,0.455,7.326,1.285c-3.161-3.733-7.891-6.107-13.18-6.107C96.559,2.348,89.185,9.193,88.389,17.927z"/>
		</g>
	</mask>
	<polygon id="Fill-13" class="st10" points="83.051,24.179 124.064,24.179 124.064,-2.949 83.051,-2.949 	"/>
	<defs>
		<filter id="Adobe_OpacityMaskFilter_5_" filterUnits="userSpaceOnUse" x="92.043" y="6.8" width="43.065" height="44.356">
			<feColorMatrix  type="matrix" values="1 0 0 0 0  0 1 0 0 0  0 0 1 0 0  0 0 0 1 0"/>
		</filter>
	</defs>
	<mask maskUnits="userSpaceOnUse" x="92.043" y="6.8" width="43.065" height="44.356" id="mask-12_2_">
		<g class="st11">
			<path id="path-11_2_" class="st1" d="M97.31,22.094c5.916,3.506,9.89,9.94,9.89,17.284c0,1.838-0.25,3.62-0.716,5.313
				c1.965,0.791,4.11,1.23,6.359,1.23c9.388,0,16.998-7.586,16.998-16.944c0-9.356-7.61-16.942-16.998-16.942
				C105.914,12.035,99.958,16.169,97.31,22.094z"/>
		</g>
	</mask>
	<polygon id="Fill-16" class="st12" points="92.043,51.156 135.108,51.156 135.108,6.8 92.043,6.8 	"/>
	<defs>
		<filter id="Adobe_OpacityMaskFilter_6_" filterUnits="userSpaceOnUse" x="94.667" y="41.811" width="55.53" height="41.023">
			<feColorMatrix  type="matrix" values="1 0 0 0 0  0 1 0 0 0  0 0 1 0 0  0 0 0 1 0"/>
		</filter>
	</defs>
	<mask maskUnits="userSpaceOnUse" x="94.667" y="41.811" width="55.53" height="41.023" id="mask-14_2_">
		<g class="st13">
			<path id="path-13_2_" class="st1" d="M112.771,50.211c-2.761,0-5.398-0.514-7.819-1.442c-1.155,2.406-2.788,4.558-4.781,6.345
				c6.906,2.087,20.862,7.552,20.862,17.594v4.855h23.66V62.241c0-9.275-17.118-14.237-20.647-15.161
				C120.778,49.06,116.913,50.211,112.771,50.211z"/>
		</g>
	</mask>
	<polygon id="Fill-19" class="st14" points="94.667,82.833 150.197,82.833 150.197,41.811 94.667,41.811 	"/>
	<defs>
		<filter id="Adobe_OpacityMaskFilter_7_" filterUnits="userSpaceOnUse" x="43.745" y="-5.329" width="43.284" height="30.446">
			<feColorMatrix  type="matrix" values="1 0 0 0 0  0 1 0 0 0  0 0 1 0 0  0 0 0 1 0"/>
		</filter>
	</defs>
	<mask maskUnits="userSpaceOnUse" x="43.745" y="-5.329" width="43.284" height="30.446" id="mask-16_2_">
		<g class="st15">
			<path id="path-15_2_" class="st1" d="M49.144,9.208c2.762-1.323,5.835-2.068,9.074-2.068c8.248,0,15.732,4.833,19.386,12.409
				c1.288-0.485,2.633-0.847,4.021-1.072c0.001-0.071,0.005-0.141,0.005-0.212c0-9.954-7.8-18.023-17.423-18.023
				C57.776,0.241,52.164,3.847,49.144,9.208z"/>
		</g>
	</mask>
	<polygon id="Fill-22" class="st16" points="43.745,25.117 58.781,25.117 87.029,25.117 87.029,-5.329 43.745,-5.329 	"/>
	<defs>
		<filter id="Adobe_OpacityMaskFilter_8_" filterUnits="userSpaceOnUse" x="35.777" y="6.8" width="43.132" height="44.356">
			<feColorMatrix  type="matrix" values="1 0 0 0 0  0 1 0 0 0  0 0 1 0 0  0 0 0 1 0"/>
		</filter>
	</defs>
	<mask maskUnits="userSpaceOnUse" x="35.777" y="6.8" width="43.132" height="44.356" id="mask-18_2_">
		<g class="st17">
			<path id="path-17_2_" class="st1" d="M41.044,28.977c0,9.358,7.61,16.944,16.998,16.944c2.357,0,4.602-0.478,6.643-1.344
				c-0.446-1.659-0.686-3.402-0.686-5.2c0-7.24,3.863-13.598,9.642-17.136c-2.614-6.004-8.613-10.207-15.6-10.207
				C48.654,12.035,41.044,19.621,41.044,28.977z"/>
		</g>
	</mask>
	<polygon id="Fill-25" class="st18" points="35.777,51.156 78.909,51.156 78.909,6.8 35.777,6.8 	"/>
	<defs>
		<filter id="Adobe_OpacityMaskFilter_9_" filterUnits="userSpaceOnUse" x="21.732" y="41.811" width="55.342" height="41.023">
			<feColorMatrix  type="matrix" values="1 0 0 0 0  0 1 0 0 0  0 0 1 0 0  0 0 0 1 0"/>
		</filter>
	</defs>
	<mask maskUnits="userSpaceOnUse" x="21.732" y="41.811" width="55.342" height="41.023" id="mask-20_2_">
		<g class="st19">
			<path id="path-19_2_" class="st1" d="M27.184,62.241v15.323h23.769v-4.855c0-10.04,13.825-15.506,20.667-17.594
				c-2.005-1.813-3.642-4.002-4.789-6.452c-2.472,0.996-5.18,1.548-8.02,1.548c-4.104,0-7.932-1.151-11.171-3.131
				C44.144,48.004,27.184,52.966,27.184,62.241z"/>
		</g>
	</mask>
	<polygon id="Fill-28" class="st20" points="21.732,82.834 77.074,82.834 77.074,41.811 21.732,41.811 	"/>
	<path id="Stroke-31" class="st21" d="M97.308,58.963c-3.276,2.014-7.151,3.184-11.303,3.184c-4.152,0-8.027-1.17-11.303-3.184
		c-3.54,0.941-20.697,5.987-20.697,15.418v15.582h32h32V74.381C118.006,64.949,100.846,59.903,97.308,58.963z"/>
</g>
</svg>
