<?xml version="1.0" encoding="utf-8"?>
<!-- Generator: Adobe Illustrator 19.0.0, SVG Export Plug-In . SVG Version: 6.00 Build 0)  -->
<svg version="1.1" id="Layer_1" xmlns="http://www.w3.org/2000/svg" xmlns:xlink="http://www.w3.org/1999/xlink" x="0px" y="0px"
	 viewBox="-258 349.877 94.031 94.123" style="enable-background:new -258 349.877 94.031 94.123;" xml:space="preserve">
<style type="text/css">
	.st0{fill:#CCCCCC;}
</style>
<path id="Fill-1" class="st0" d="M-204.912,402.88v4.339h-13.339v-6.31c0-7.257,11.403-11.358,11.403-15.698
	c0-2.997-2.797-4.903-5.307-4.903c-3.084,0-5.609,2.686-8.048,5.84l-8.367-7.776c5.02-6.388,10.821-10.369,17.992-10.369
	c9.539,0,17.068,6.718,17.068,17.366C-193.51,395.624-204.912,398.149-204.912,402.88 M-211.762,425.832
	c-4.29,0-7.769-3.483-7.769-7.778c0-4.295,3.479-7.777,7.769-7.777c4.292,0,7.77,3.482,7.77,7.777
	C-203.993,422.349-207.47,425.832-211.762,425.832 M-210.986,349.877c-25.965,0-47.014,21.069-47.014,47.06
	c0,9.49,2.809,18.323,7.636,25.715l-4.747,17.734l17.465-4.684c7.576,5.231,16.76,8.298,26.66,8.298
	c25.966,0,47.017-21.072,47.017-47.063S-185.019,349.877-210.986,349.877"/>
</svg>
