<svg xmlns="http://www.w3.org/2000/svg" xmlns:xlink="http://www.w3.org/1999/xlink" width="141" height="128" viewBox="0 0 141 128">
    <defs>
        <path id="a" d="M0 0h94.03v94.124H0z"/>
    </defs>
    <g fill="none" fill-rule="evenodd" transform="translate(34 17)">
        <mask id="b" fill="#fff">
            <use xlink:href="#a"/>
        </mask>
        <path fill="#CCC" d="M53.088 53.003v4.34h-13.34v-6.31c0-7.258 11.404-11.359 11.404-15.698 0-2.997-2.797-4.903-5.308-4.903-3.084 0-5.609 2.686-8.047 5.84l-8.367-7.776c5.02-6.388 10.82-10.37 17.992-10.37 9.539 0 17.068 6.72 17.068 17.367 0 10.254-11.402 12.779-11.402 17.51m-6.85 22.952c-4.29 0-7.769-3.483-7.769-7.778 0-4.294 3.48-7.776 7.769-7.776 4.292 0 7.77 3.482 7.77 7.776 0 4.295-3.478 7.778-7.77 7.778M47.014 0C21.05 0 0 21.07 0 47.06c0 9.49 2.81 18.324 7.636 25.716L2.89 90.51l17.465-4.684a46.758 46.758 0 0 0 26.66 8.298c25.967 0 47.017-21.072 47.017-47.063C94.03 21.069 72.98 0 47.014 0" mask="url(#b)"/>
    </g>
</svg>
