<?xml version="1.0" encoding="UTF-8"?>
<svg width="auto" height="auto" viewBox="0 0 110 93" version="1.1" xmlns="http://www.w3.org/2000/svg" xmlns:xlink="http://www.w3.org/1999/xlink">
    <!-- Generator: Sketch 46.2 (44496) - http://www.bohemiancoding.com/sketch -->
    <title>Group 13</title>
    <desc>Created with Sketch.</desc>
    <defs></defs>
    <g id="Welcome" stroke="none" stroke-width="1" fill="none" fill-rule="evenodd">
        <g id="Search-Drop-Down-Menu" transform="translate(-610.000000, -630.000000)" fill="#22B6CD">
            <g id="Group-13" transform="translate(661.570312, 682.587891) rotate(-20.000000) translate(-661.570312, -682.587891) translate(617.570312, 627.087891)">
                <path d="M20.238642,11.9102488 C7.81837376,20.1316042 4.38023754,36.9576064 12.5742659,49.4185284 C20.7696224,61.8805163 37.5411503,65.3297833 49.9639862,57.1081614 C62.3843429,48.886806 65.8224792,32.0608927 57.6282737,19.5998818 C49.4319432,7.13780504 32.6603268,3.68853811 20.238642,11.9102488 M54.0408573,63.3080657 C50.1655056,65.872165 45.9058858,67.5995965 41.3762159,68.4397285 C37.0021126,69.2509916 32.5689525,69.2077325 28.1944065,68.3079971 C23.8198604,67.4083506 19.7261665,65.6979739 16.0241781,63.2257225 C12.1907062,60.6649986 8.95081336,57.3957854 6.39366026,53.5088645 C3.84013734,49.622832 2.11774895,45.3487114 1.28032801,40.8044659 C0.469115217,36.4168236 0.513651348,31.9682454 1.41048331,27.579626 C2.3069611,23.1921613 4.01093296,19.0836155 6.47724298,15.3713298 C9.02934925,11.5242038 12.2892524,8.27417731 16.160974,5.70883445 C20.0359716,3.14606758 24.2967424,1.41934667 28.8255268,0.577260435 C33.1984791,-0.234180254 37.6327017,-0.190210561 42.0072478,0.709524823 C46.3817938,1.60917138 50.4745137,3.31883738 54.1776532,5.79117769 C58.0120105,8.35341159 61.2506638,11.6224472 63.8080825,15.5080356 C66.3639075,19.3952229 68.0825772,23.6691658 68.9223002,28.2139443 C69.7314765,32.5998989 69.6866748,37.0496318 68.7901084,41.4370965 C67.893365,45.825716 66.1896588,49.9330182 63.7253852,53.6469916 C61.1710654,57.4937623 57.9147924,60.7438776 54.0408573,63.3080657" id="Fill-16" stroke="#FFFFFF" stroke-width="2"></path>
                <path d="M80.0937493,110.347666 C79.5477169,110.709017 78.8131806,110.558543 78.4520218,110.011453 L52.8942146,71.2941401 C52.6770235,70.9650336 52.7671583,70.5215171 53.0955569,70.3041558 L61.0432642,65.0433375 C61.3708659,64.8265092 61.8115346,64.9166693 62.0283715,65.2450651 C69.0252397,75.8443689 74.2728908,83.7938468 77.7713249,89.0934987 C79.9524036,92.3975362 83.2240215,97.3535924 87.5861787,103.961667 C87.9483114,104.510178 87.7978803,105.249402 87.2504312,105.611641 L80.0937493,110.347666 Z" id="Fill-17"></path>
                <polygon id="Fill-18" points="53.2127181 58.9920685 50.1722196 61.0049921 57.6171909 72.3267882 60.6601686 70.3138646"></polygon>
            </g>
        </g>
    </g>
</svg>