<svg xmlns="http://www.w3.org/2000/svg" width="166" height="128" viewBox="0 0 166 128">
    <g fill="none" fill-rule="evenodd">
        <path fill="#077280" d="M92.812 42.994c0 6.498-5.249 11.765-11.724 11.765-6.475 0-11.725-5.267-11.725-11.765 0-6.497 5.25-11.764 11.725-11.764s11.724 5.267 11.724 11.764"/>
        <path fill="#077280" d="M69.592 42.994c0 6.36 5.157 11.535 11.496 11.535s11.495-5.175 11.495-11.535S87.427 31.46 81.088 31.46c-6.339 0-11.496 5.174-11.496 11.534zm-.458 0C69.134 36.381 74.497 31 81.088 31s11.954 5.38 11.954 11.994S87.679 54.99 81.088 54.99s-11.954-5.381-11.954-11.995z"/>
        <path fill="#077280" d="M63.798 40.45l5.631-.517c3.34-.115 5.736-3.39 5.736-3.39 2.548-3.563 5.923-3.234 5.923-3.234s3.374-.33 5.922 3.233c0 0 2.396 3.276 5.737 3.39l5.63.518-9.296 19.212c-1.069-9.04-7.993-8.045-7.993-8.045s-6.924-.996-7.993 8.045L63.798 40.45z"/>
        <path fill="#077280" d="M94.853 73.698s-10.538-6.206-6.49-14.251c0 0 6.796-12.91 9.697-20.994 0 0 2.598-9.831 14.967-2.069 0 0 8.705 5.134 10.614 9.501L94.853 73.698z"/>
        <path fill="#FFF" d="M104.71 33.63c-5.079 0-6.416 4.833-6.428 4.882-2.88 8.025-9.649 20.913-9.717 21.042-3.642 7.24 5.009 13.064 6.257 13.855l28.544-27.577c-1.986-4.22-10.37-9.2-10.455-9.25-3.124-1.96-5.882-2.953-8.201-2.953zm-9.823 40.354l-.15-.088c-.107-.063-10.676-6.41-6.579-14.553.07-.133 6.824-12.992 9.687-20.968.008-.033 1.438-5.205 6.865-5.205 2.407 0 5.246 1.016 8.439 3.02.352.207 8.785 5.218 10.702 9.603l.064.147-.115.11-28.913 27.934z"/>
        <path fill="#077280" d="M144.488 69.04c0 14.218-11.487 25.744-25.658 25.744-14.17 0-25.657-11.526-25.657-25.744s11.487-25.744 25.657-25.744 25.658 11.526 25.658 25.744"/>
        <path fill="#FFF" d="M118.83 43.526c-14.02 0-25.428 11.445-25.428 25.514 0 14.069 11.407 25.514 25.428 25.514 14.022 0 25.429-11.445 25.429-25.514 0-14.069-11.407-25.514-25.429-25.514m0 51.488c-14.273 0-25.886-11.652-25.886-25.974 0-14.322 11.613-25.974 25.886-25.974 14.274 0 25.887 11.652 25.887 25.974 0 14.322-11.613 25.974-25.887 25.974"/>
        <path fill="#FFF" d="M118.83 89.497c-11.242 0-20.388-9.177-20.388-20.457 0-11.28 9.146-20.457 20.388-20.457 11.243 0 20.389 9.177 20.389 20.457 0 11.28-9.146 20.457-20.389 20.457"/>
        <path fill="#077280" d="M67.323 73.698s10.537-6.206 6.49-14.251c0 0-6.796-12.91-9.698-20.994 0 0-2.597-9.831-14.967-2.069 0 0-8.705 5.134-10.614 9.501l28.789 27.813z"/>
        <path fill="#FFF" d="M38.81 45.832L67.353 73.41c1.249-.791 9.9-6.615 6.256-13.859-.066-.125-6.835-13.013-9.709-21.02-.06-.217-1.364-4.9-6.434-4.9-2.32 0-5.077.992-8.196 2.95-.09.053-8.475 5.033-10.46 9.252zm28.479 28.152L38.26 45.94l.064-.146c1.916-4.385 10.35-9.396 10.707-9.607 3.188-2 6.027-3.016 8.434-3.016 5.427 0 6.857 5.172 6.87 5.224 2.858 7.957 9.612 20.816 9.68 20.945 4.098 8.148-6.47 14.494-6.577 14.557l-.15.088z"/>
        <path fill="#077280" d="M17.688 69.04c0 14.218 11.487 25.744 25.657 25.744S69.002 83.258 69.002 69.04 57.515 43.296 43.345 43.296 17.688 54.822 17.688 69.04"/>
        <path fill="#FFF" d="M43.345 43.526c-14.02 0-25.428 11.445-25.428 25.514 0 14.069 11.407 25.515 25.428 25.515S68.773 83.109 68.773 69.04 57.366 43.526 43.345 43.526m0 51.488c-14.274 0-25.886-11.652-25.886-25.974 0-14.322 11.612-25.974 25.886-25.974S69.231 54.718 69.231 69.04c0 14.322-11.612 25.974-25.886 25.974"/>
        <path fill="#FFF" d="M43.345 89.498c11.242 0 20.388-9.178 20.388-20.458 0-11.28-9.146-20.457-20.388-20.457S22.957 57.76 22.957 69.04c0 11.28 9.146 20.458 20.388 20.458"/>
        <path fill="#22B6CD" d="M75.4 42.994c0-3.147 2.55-5.708 5.688-5.708 3.137 0 5.689 2.56 5.689 5.708s-2.552 5.708-5.69 5.708c-3.136 0-5.688-2.56-5.688-5.708z"/>
        <path fill="#FFF" d="M81.088 36.137c-3.775 0-6.834 3.07-6.834 6.857 0 3.788 3.06 6.858 6.834 6.858 3.774 0 6.834-3.07 6.834-6.858 0-3.787-3.06-6.857-6.834-6.857m0 2.298c2.505 0 4.543 2.046 4.543 4.56 0 2.513-2.038 4.558-4.543 4.558-2.505 0-4.544-2.045-4.544-4.559 0-2.513 2.039-4.559 4.544-4.559"/>
    </g>
</svg>
