<svg xmlns="http://www.w3.org/2000/svg" xmlns:xlink="http://www.w3.org/1999/xlink" width="200" height="128" viewBox="0 0 200 128">
    <defs>
        <path id="a" d="M12.96 3.438c-2.79 0-5.451-.533-7.887-1.495a20.352 20.352 0 0 1-4.86 6.611c6.84 2.087 20.668 7.552 20.668 17.594v4.643h23.705V15.467c0-9.273-16.96-14.237-20.456-15.16a21.352 21.352 0 0 1-11.17 3.13z"/>
        <path id="c" d="M.075 10.789a20.512 20.512 0 0 1 9.763 17.51 20.7 20.7 0 0 1-.639 5.12 16.744 16.744 0 0 0 6.538 1.322c9.388 0 16.998-7.717 16.998-17.239 0-9.519-7.61-17.237-16.998-17.237-7.04 0-13.08 4.34-15.662 10.524z"/>
        <path id="e" d="M.195 15.467v15.324h23.597v-4.643c0-10.042 13.955-15.507 20.861-17.594a20.362 20.362 0 0 1-4.857-6.505 21.815 21.815 0 0 1-7.679 1.389A21.702 21.702 0 0 1 20.842.306C17.312 1.232.195 6.194.195 15.467z"/>
        <path id="g" d="M.05 17.502c0 9.522 7.611 17.24 17 17.24 2.21 0 4.317-.433 6.253-1.21a20.658 20.658 0 0 1-.67-5.233A20.51 20.51 0 0 1 32.643 10.64C30.028 4.536 24.033.265 17.05.265c-9.389 0-17 7.718-17 17.237z"/>
        <path id="i" d="M.383 15.963c1.342.198 2.64.523 3.889.956C7.902 9.77 15.294 5.207 23.394 5.207c2.571 0 5.039.455 7.326 1.285A17.224 17.224 0 0 0 17.54.385C8.553.385 1.178 7.229.382 15.963z"/>
        <path id="k" d="M.304 10.13c5.916 3.506 9.89 9.94 9.89 17.284 0 1.839-.25 3.62-.717 5.313 1.965.791 4.11 1.23 6.36 1.23 9.388 0 16.998-7.585 16.998-16.943 0-9.356-7.61-16.942-16.998-16.942A17.002 17.002 0 0 0 .304 10.13z"/>
        <path id="m" d="M12.765 3.248c-2.762 0-5.398-.514-7.819-1.442A20.386 20.386 0 0 1 .165 8.152c6.906 2.087 20.862 7.552 20.862 17.594V30.6h23.66V15.278C44.687 6.003 27.569 1.04 24.04.117a21.706 21.706 0 0 1-11.275 3.131z"/>
        <path id="o" d="M.138 9.245a20.935 20.935 0 0 1 9.074-2.068c8.248 0 15.732 4.833 19.387 12.408a20.954 20.954 0 0 1 4.02-1.072c.001-.071.005-.142.005-.212 0-9.954-7.8-18.024-17.423-18.024C8.771.277 3.158 3.884.138 9.245z"/>
        <path id="q" d="M.039 17.014c0 9.358 7.61 16.944 16.997 16.944a16.98 16.98 0 0 0 6.644-1.344 19.991 19.991 0 0 1-.686-5.2c0-7.24 3.863-13.598 9.642-17.135A17.003 17.003 0 0 0 17.036.072C7.648.072.04 7.658.04 17.014z"/>
        <path id="s" d="M.179 15.278V30.6h23.769v-4.855c0-10.04 13.825-15.506 20.667-17.594a20.355 20.355 0 0 1-4.79-6.451 21.42 21.42 0 0 1-8.02 1.547A21.354 21.354 0 0 1 20.635.117C17.138 1.04.179 6.003.179 15.277z"/>
        <path id="u" d="M.416 17.014c0 9.358 7.917 16.944 17.682 16.944 9.766 0 17.681-7.586 17.681-16.944 0-9.356-7.915-16.942-17.68-16.942C8.332.072.415 7.658.415 17.014z"/>
    </defs>
    <g fill="none" fill-rule="evenodd">
        <g transform="translate(146 54)">
            <mask id="b" fill="#fff">
                <use xlink:href="#a"/>
            </mask>
            <path fill="#077280" d="M-5.24 36.06h55.28V-4.963H-5.24z" mask="url(#b)"/>
        </g>
        <g transform="translate(142 19)">
            <mask id="d" fill="#fff">
                <use xlink:href="#c"/>
            </mask>
            <path fill="#077280" d="M-5.193 40.068h43.195v-45.13H-5.193z" mask="url(#d)"/>
        </g>
        <g transform="translate(18 54)">
            <mask id="f" fill="#fff">
                <use xlink:href="#e"/>
            </mask>
            <path fill="#077280" d="M-5.31 36.06h55.468V-4.963H-5.31z" mask="url(#f)"/>
        </g>
        <g transform="translate(33 19)">
            <mask id="h" fill="#fff">
                <use xlink:href="#g"/>
            </mask>
            <path fill="#077280" d="M-5.217 40.068h43.129v-45.13H-5.217z" mask="url(#h)"/>
        </g>
        <g transform="translate(106 21)">
            <mask id="j" fill="#fff">
                <use xlink:href="#i"/>
            </mask>
            <path fill="#077280" d="M-4.955 22.216h41.013V-4.913H-4.955z" mask="url(#j)"/>
        </g>
        <g transform="translate(115 31)">
            <mask id="l" fill="#fff">
                <use xlink:href="#k"/>
            </mask>
            <path fill="#077280" d="M-4.963 39.192h43.065V-5.163H-4.963z" mask="url(#l)"/>
        </g>
        <g transform="translate(118 66)">
            <mask id="n" fill="#fff">
                <use xlink:href="#m"/>
            </mask>
            <path fill="#077280" d="M-5.339 35.87h55.53V-5.152h-55.53z" mask="url(#n)"/>
        </g>
        <g transform="translate(67 19)">
            <mask id="p" fill="#fff">
                <use xlink:href="#o"/>
            </mask>
            <path fill="#077280" d="M-5.26 25.154h43.283V-5.292H-5.26z" mask="url(#p)"/>
        </g>
        <g transform="translate(59 31)">
            <mask id="r" fill="#fff">
                <use xlink:href="#q"/>
            </mask>
            <path fill="#077280" d="M-5.228 39.192h43.132V-5.163H-5.228z" mask="url(#r)"/>
        </g>
        <g transform="translate(45 66)">
            <mask id="t" fill="#fff">
                <use xlink:href="#s"/>
            </mask>
            <path fill="#077280" d="M-5.274 35.87h55.342V-5.151H-5.274z" mask="url(#t)"/>
        </g>
        <path fill="#22B6CD" stroke="#22B6CD" stroke-width="3" d="M115.303 78A21.524 21.524 0 0 1 104 81.184c-4.152 0-8.027-1.17-11.303-3.184C89.157 78.94 72 83.987 72 93.418V109h64V93.418c0-9.432-17.16-14.478-20.697-15.418z"/>
        <g transform="translate(87 41)">
            <mask id="v" fill="#fff">
                <use xlink:href="#u"/>
            </mask>
            <path stroke="#282F54" stroke-width="6" d="M-5.063 39.193h46.32V-5.163h-46.32z" mask="url(#v)"/>
            <path stroke="#282F54" stroke-width="6" d="M-905.86 504.4H590.92V-701.79H-905.86z" mask="url(#v)"/>
        </g>
        <path fill="#22B6CD" stroke="#22B6CD" stroke-width="3" d="M104 74c-8.284 0-15-6.716-15-15 0-8.284 6.716-15 15-15 8.285 0 15 6.716 15 15 0 8.284-6.715 15-15 15z"/>
    </g>
</svg>
