<svg xmlns="http://www.w3.org/2000/svg" width="146" height="128" viewBox="0 0 146 128">
    <g fill="#22B6CD" fill-rule="evenodd">
        <path stroke="#FFF" stroke-width="2" d="M32.333 30.754c-8.859 11.973-6.335 28.96 5.627 37.867 11.963 8.908 28.903 6.413 37.765-5.562 8.86-11.973 6.335-28.96-5.627-37.867-11.964-8.908-28.904-6.413-37.765 5.562M81.676 67.49a34.109 34.109 0 0 1-10.146 9.154A34.178 34.178 0 0 1 59.1 81.029c-4.419.651-8.85.444-13.175-.613a34.25 34.25 0 0 1-12.373-5.837 34.362 34.362 0 0 1-9.15-10.19A34.457 34.457 0 0 1 20 51.919a34.403 34.403 0 0 1 .586-13.205A34.257 34.257 0 0 1 26.38 26.32a34.167 34.167 0 0 1 10.145-9.154 34.174 34.174 0 0 1 12.432-4.384 34.278 34.278 0 0 1 25.547 6.45 34.375 34.375 0 0 1 9.152 10.19 34.494 34.494 0 0 1 4.399 12.471c.658 4.431.462 8.873-.584 13.206a34.245 34.245 0 0 1-5.796 12.39"/>
        <path d="M122.246 102.783a1.184 1.184 0 0 1-1.657.246L83.33 75.388a.715.715 0 0 1-.15-1l5.67-7.661a.71.71 0 0 1 .994-.148l22.95 17.026 14.309 10.615c.528.391.64 1.137.249 1.665l-5.106 6.898z"/>
        <path d="M79.422 63.718l-2.169 2.932 10.868 8.093 2.171-2.933z"/>
    </g>
</svg>
