<svg xmlns="http://www.w3.org/2000/svg" xmlns:xlink="http://www.w3.org/1999/xlink" width="168" height="128" viewBox="0 0 168 128">
    <defs>
        <path id="a" d="M57.754.056A3.178 3.178 0 0 1 60.02.77l14.74 12.194a2.954 2.954 0 0 1 1.073 2.05l5.839 76.65c.005.062.007.124.008.185v.076c-.02 1.543-1.263 2.846-2.89 2.968l-68.44 5.134a3.295 3.295 0 0 1-.215.009h-.059c-1.6-.014-2.945-1.206-3.064-2.772L.165 7.39a2.905 2.905 0 0 1-.008-.203v-.04c.01-1.551 1.257-2.864 2.891-2.986L57.754.056zm-54.478 7.1l6.846 89.874 68.44-5.133L72.855 17l-12.444.933c-1.718.13-3.212-1.108-3.339-2.762L56.16 3.189 3.276 7.155zm56.09-2.96l.818 10.742 11.155-.836-11.973-9.906z"/>
        <path id="c" d="M6.953 2.84C7.07 1.263 8.433.065 10.046.065c.08 0 .162.003.243.009l54.71 4.049a3.178 3.178 0 0 1 2.134 1.04l12.74 14.242c.541.605.811 1.391.752 2.185l-5.761 76.657c-.119 1.57-1.469 2.765-3.074 2.774h-.04c-.073 0-.148-.003-.223-.008L3.083 95.947C1.365 95.82.073 94.376.197 92.721L6.953 2.84zM3.309 92.95l68.443 5.065 5.63-74.9-12.445-.922c-1.718-.127-3.01-1.571-2.886-3.226l.901-11.984L10.064 3.07 3.309 92.95zm61.854-73.753l11.155.826L65.97 8.455l-.807 10.743z"/>
        <path id="e" d="M3.222.106h55.344c.835 0 1.635.316 2.226.88l13.892 13.262c.59.563.921 1.327.921 2.124V93.24c0 1.66-1.408 3.004-3.147 3.004H3.222c-1.739 0-3.148-1.345-3.148-3.004V3.11c0-1.66 1.41-3.005 3.148-3.005zm0 3.004v90.13h69.236V18.133H59.87c-1.738 0-3.147-1.345-3.147-3.005V3.11H3.222zM59.87 4.355v10.772h11.285L59.87 4.355z"/>
    </defs>
    <g fill="none" fill-rule="evenodd">
        <path fill="#FFF" d="M35.933 18.825l-1.657 1.778 5.348 90.2 67.013-3.857 2.924-1.602-4.256-76.458-16.036-14.01z"/>
        <g transform="translate(31 13.447)">
            <mask id="b" fill="#fff">
                <use xlink:href="#a"/>
            </mask>
            <path fill="#077280" d="M-5.046 105.22h91.929V-5.138H-5.046z" mask="url(#b)"/>
        </g>
        <path fill="#282F54" d="M45.604 86.574l52.607-3.96-.228-2.995-52.607 3.959z"/>
        <path fill="#077280" d="M45.376 83.578l.228 2.996 52.607-3.96-.228-2.996z"/>
        <path fill="#282F54" d="M50.514 83.191v3.013l47.697-3.59-.228-2.995zM45.015 78.833l52.607-3.959-.229-2.996-52.607 3.96z"/>
        <path fill="#077280" d="M44.786 75.838l.228 2.996 52.607-3.96-.228-2.996z"/>
        <path fill="#282F54" d="M49.924 75.451v3.013l47.697-3.59-.228-2.996zM44.425 71.094l52.607-3.96-.228-2.996-52.607 3.96z"/>
        <path fill="#077280" d="M44.197 68.098l.228 2.996 52.607-3.96-.228-2.996z"/>
        <path fill="#282F54" d="M46.194 94.314l52.607-3.96-.228-2.996-52.607 3.96z"/>
        <path fill="#077280" d="M45.966 91.318l.228 2.996 52.607-3.96-.229-2.995z"/>
        <path fill="#282F54" d="M51.103 90.931v3.013l47.698-3.59-.229-2.996zM46.783 102.054l52.608-3.96-.229-2.996-52.607 3.96z"/>
        <path fill="#077280" d="M46.555 99.058l.228 2.996 52.607-3.96-.228-2.995z"/>
        <path fill="#282F54" d="M51.693 98.671v3.013l47.697-3.59-.228-2.995zM42.457 47.874l52.607-3.96-.228-2.996-52.607 3.96z"/>
        <path fill="#077280" d="M42.229 44.878l.228 2.996 52.607-3.96-.228-2.995z"/>
        <path fill="#282F54" d="M41.868 40.134l52.607-3.96-.228-2.995-52.607 3.959z"/>
        <path fill="#077280" d="M41.64 37.138l.227 2.996 52.608-3.96-.228-2.995z"/>
        <path fill="#282F54" d="M43.047 55.614l52.607-3.96-.228-2.996-52.607 3.96z"/>
        <path fill="#077280" d="M42.819 52.618l.228 2.996 52.607-3.96-.228-2.996z"/>
        <path fill="#282F54" d="M43.835 63.354l52.607-3.96-.228-2.995-52.607 3.959z"/>
        <path fill="#077280" d="M43.607 60.358l.228 2.996 52.607-3.96-.228-2.996z"/>
        <text fill="#FEFEFE" font-family="Arial-BoldMT, Arial" font-size="12" font-weight="bold" transform="translate(31 12)">
            <tspan x="59.979" y="27">077280 </tspan>
        </text>
        <path fill="#FFF" d="M72.087 15.13L63.8 105.111l66.842 6.115 3.132-1.151 7.297-76.231-13.747-16.23-53.332-3.998z"/>
        <g transform="translate(62.023 12.06)">
            <mask id="d" fill="#fff">
                <use xlink:href="#c"/>
            </mask>
            <path fill="#077280" d="M-5.013 106.207h90.848V-5.12H-5.013z" mask="url(#d)"/>
        </g>
        <path fill="#077280" d="M83.31 82.733l42.27 3.128.225-2.996-42.27-3.128zM83.892 74.992l42.27 3.128.225-2.996-42.27-3.128zM84.473 67.252l42.27 3.128.226-2.997-42.27-3.128z"/>
        <path fill="#282F54" d="M82.728 90.473l42.27 3.129.225-2.997-42.27-3.128zM82.146 98.214l42.27 3.128.226-2.996-42.27-3.128z"/>
        <path fill="#077280" d="M86.219 44.03l42.27 3.128.225-2.996-42.27-3.128zM86.8 36.289l42.27 3.128.225-2.996-42.27-3.128zM85.637 51.77l42.27 3.128.225-2.995-42.27-3.129zM85.055 59.51l42.27 3.129.225-2.996-42.27-3.128z"/>
        <path fill="#FFF" d="M57.938 19.226l-6.4-.47 1.185 92.67 70.872.47-.67-80.435-15.977-14.142z"/>
        <g transform="translate(49.892 17.213)">
            <mask id="f" fill="#fff">
                <use xlink:href="#e"/>
            </mask>
            <path fill="#22B6CD" d="M-5.128 101.43h85.936V-5.08H-5.128z" mask="url(#f)"/>
        </g>
        <path fill="#22B6CD" d="M62.448 86.91h49.942v-3.003H62.448zM62.448 79.149h49.942v-3.005H62.448zM62.448 71.387h49.942v-3.005H62.448zM62.448 94.673h49.942v-3.005H62.448zM62.448 102.435h49.942V99.43H62.448zM62.448 48.1h49.942v-3.004H62.448zM62.448 40.338h49.942v-3.004H62.448zM62.448 55.863h49.942v-3.005H62.448zM62.448 63.625h49.942V60.62H62.448z"/>
    </g>
</svg>
