<?xml version="1.0" encoding="UTF-8"?>
<svg width="auto" height="auto" viewBox="0 0 128 65" version="1.1" xmlns="http://www.w3.org/2000/svg" xmlns:xlink="http://www.w3.org/1999/xlink">
    <!-- Generator: Sketch 46.2 (44496) - http://www.bohemiancoding.com/sketch -->
    <title>Group 11</title>
    <desc>Created with Sketch.</desc>
    <defs></defs>
    <g id="Welcome" stroke="none" stroke-width="1" fill="none" fill-rule="evenodd">
        <g id="Search-Drop-Down-Menu" transform="translate(-418.000000, -650.000000)">
            <g id="Group-11" transform="translate(418.000000, 650.000000)">
                <path d="M75.8124376,11.9943255 C75.8124376,18.4915695 70.5631739,23.7586313 64.0878851,23.7586313 C57.6126732,23.7586313 52.3632557,18.4915695 52.3632557,11.9943255 C52.3632557,5.49700444 57.6126732,0.229865445 64.0878851,0.229865445 C70.5631739,0.229865445 75.8124376,5.49700444 75.8124376,11.9943255" id="Fill-1" fill="#077280"></path>
                <path d="M52.5922829,11.9943332 C52.5922829,18.3544788 57.7491238,23.5288044 64.0878544,23.5288044 C70.426585,23.5288044 75.5833489,18.3544788 75.5833489,11.9943332 C75.5833489,5.63411053 70.426585,0.459707744 64.0878544,0.459707744 C57.7491238,0.459707744 52.5922829,5.63411053 52.5922829,11.9943332 Z M52.134167,11.9943332 C52.134167,5.38059041 57.4965372,3.85757946e-05 64.0878544,3.85757946e-05 C70.6790946,3.85757946e-05 76.0415417,5.38059041 76.0415417,11.9943332 C76.0415417,18.6079218 70.6790946,23.9885507 64.0878544,23.9885507 C57.4965372,23.9885507 52.134167,18.6079218 52.134167,11.9943332 Z" id="Fill-3" fill="#077280"></path>
                <path d="M46.797686,9.44994326 L52.4292512,8.93271901 C55.7699294,8.81784029 58.1654648,5.54236957 58.1654648,5.54236957 C60.7133211,1.97950918 64.0878313,2.30856071 64.0878313,2.30856071 C64.0878313,2.30856071 67.4623415,1.97950918 70.0104284,5.54236957 C70.0104284,5.54236957 72.4057332,8.81784029 75.7466421,8.93271901 L81.3778997,9.44994326 L72.0813306,28.6623091 C71.0121628,19.6211459 64.0878313,20.6173272 64.0878313,20.6173272 C64.088062,20.6173272 57.1636535,19.6211459 56.0947933,28.6623091 L46.797686,9.44994326 Z" id="Fill-5" fill="#077280"></path>
                <path d="M77.8531216,42.6979037 C77.8531216,42.6979037 67.315303,36.4919842 71.3625315,28.4468479 C71.3625315,28.4468479 78.1585322,15.5366096 81.0603172,7.45312898 C81.0603172,7.45312898 83.6580757,-2.37814373 96.0271276,5.38438626 C96.0271276,5.38438626 104.732252,10.5178216 106.641222,14.8851416 L77.8531216,42.6979037 Z" id="Fill-7" fill="#077280"></path>
                <path d="M87.7099484,2.62948818 C82.6312287,2.62948818 81.2944807,7.46326669 81.2817169,7.51210365 C78.4018457,15.5370262 71.6332182,28.4249677 71.5649391,28.5542738 C67.9229255,35.7940246 76.5739957,41.6182752 77.8222423,42.4088476 L106.365599,14.8324007 C104.380199,10.6124403 95.9965558,5.63292239 95.9110531,5.58261956 C92.786669,3.62196622 90.0294388,2.62948818 87.7099484,2.62948818 L87.7099484,2.62948818 Z M77.8869075,42.9843984 L77.7372778,42.896137 C77.6298613,42.8331041 67.0614401,36.4868459 71.1580325,28.3432642 C71.2279264,28.2104863 77.9817139,15.3508594 80.8448997,7.37523673 C80.8526657,7.34190724 82.282913,2.16974186 87.7099484,2.16974186 C90.1166331,2.16974186 92.9558289,3.18567398 96.1486459,5.18960936 C96.5011906,5.39737859 104.934352,10.4077571 106.851011,14.792822 L106.915215,14.9396414 L106.800032,15.0507397 L77.8869075,42.9843984 Z" id="Fill-9" fill="#FFFFFF"></path>
                <path d="M127.487763,38.0398765 C127.487763,52.2579114 116.000726,63.7841274 101.830429,63.7841274 C87.6602846,63.7841274 76.1732481,52.2579114 76.1732481,38.0398765 C76.1732481,23.8219187 87.6602846,12.2959342 101.830429,12.2959342 C116.000726,12.2959342 127.487763,23.8219187 127.487763,38.0398765" id="Fill-11" fill="#077280"></path>
                <path d="M101.830459,12.5257611 C87.809253,12.5257611 76.4023368,23.9713537 76.4023368,38.0398688 C76.4023368,52.1086925 87.809253,63.5542851 101.830459,63.5542851 C115.851742,63.5542851 127.258659,52.1086925 127.258659,38.0398688 C127.258659,23.9713537 115.851742,12.5257611 101.830459,12.5257611 M101.830459,64.0139543 C87.5566665,64.0139543 75.9442209,52.3621355 75.9442209,38.0398688 C75.9442209,23.7179107 87.5566665,12.0660919 101.830459,12.0660919 C116.104329,12.0660919 127.716775,23.7179107 127.716775,38.0398688 C127.716775,52.3621355 116.104329,64.0139543 101.830459,64.0139543" id="Fill-13" fill="#FFFFFF"></path>
                <path d="M101.830459,58.4973302 C90.5882433,58.4973302 81.4421497,49.3203029 81.4421497,38.0398919 C81.4421497,26.7598667 90.5882433,17.5826852 101.830459,17.5826852 C113.072752,17.5826852 122.218846,26.7598667 122.218846,38.0398919 C122.218846,49.3203029 113.072752,58.4973302 101.830459,58.4973302" id="Fill-15" fill="#FFFFFF"></path>
                <path d="M50.3225025,42.6979037 C50.3225025,42.6979037 60.8603211,36.4917527 56.8130926,28.4466165 C56.8130926,28.4466165 50.0170919,15.5364553 47.1153838,7.45305182 C47.1153838,7.45305182 44.5176253,-2.37829803 32.1484965,5.38430911 C32.1484965,5.38430911 23.4433721,10.5177444 21.5344791,14.8850644 L50.3225025,42.6979037 Z" id="Fill-17" fill="#077280"></path>
                <path d="M21.8100252,14.8323236 L50.3533819,42.4088476 C51.6017054,41.6180438 60.2524679,35.7935617 56.608609,28.5502619 C56.5426366,28.4247363 49.7740091,15.536949 46.8999816,7.53092864 C46.8408526,7.31289825 45.5355529,2.62941103 40.4657526,2.62941103 C38.1464929,2.62941103 35.389032,3.62181192 32.2699534,5.57914773 C32.1791452,5.63276809 23.7950403,10.6133661 21.8100252,14.8323236 L21.8100252,14.8323236 Z M50.2887166,42.9843984 L21.260563,14.9394871 L21.3246131,14.7926677 C23.241349,10.4077571 31.6744335,5.39730144 32.0323605,5.18606039 C35.2197952,3.18559683 38.0592217,2.16966471 40.4657526,2.16966471 C45.8930186,2.16966471 47.3230353,7.34183009 47.3367988,7.39413887 C50.194064,15.3507051 56.9477747,28.2102548 57.0158231,28.3392523 C61.1142609,36.4865373 50.5458398,42.8331041 50.438577,42.896137 L50.2887166,42.9843984 Z" id="Fill-19" fill="#FFFFFF"></path>
                <path d="M0.687938235,38.0401002 C0.687938235,52.2581352 12.1749748,63.7843511 26.3451956,63.7843511 C40.5154164,63.7843511 52.0023761,52.2581352 52.0023761,38.0401002 C52.0023761,23.8218339 40.5154164,12.2957722 26.3451956,12.2957722 C12.1749748,12.2957722 0.687938235,23.8218339 0.687938235,38.0401002" id="Fill-21" fill="#077280"></path>
                <g id="Group-25" transform="translate(0.458834, 12.014045)" fill="#FFFFFF">
                    <path d="M25.8863307,0.511599903 C11.8652782,0.511599903 0.458208149,11.9574239 0.458208149,26.0260934 C0.458208149,40.0948399 11.8652782,51.5405097 25.8863307,51.5405097 C39.9076138,51.5405097 51.3144532,40.0948399 51.3144532,26.0260934 C51.3144532,11.9574239 39.9076138,0.511599903 25.8863307,0.511599903 M25.8863307,52.0001788 C11.612461,52.0001788 1.53781766e-05,40.3482829 1.53781766e-05,26.0260934 C1.53781766e-05,11.7039038 11.612461,0.0519307347 25.8863307,0.0519307347 C40.1601235,0.0519307347 51.772646,11.7039038 51.772646,26.0260934 C51.772646,40.3482829 40.1601235,52.0001788 25.8863307,52.0001788" id="Fill-23"></path>
                </g>
                <path d="M26.3451648,58.4976311 C37.5874577,58.4976311 46.7334744,49.3202952 46.7334744,38.0401157 C46.7334744,26.7597047 37.5874577,17.5825231 26.3451648,17.5825231 C15.102872,17.5825231 5.95685523,26.7597047 5.95685523,38.0401157 C5.95685523,49.3202952 15.102872,58.4976311 26.3451648,58.4976311" id="Fill-26" fill="#FFFFFF"></path>
                <path d="M58.3990824,11.9943487 C58.3990824,8.84679528 60.950937,6.28613404 64.0878544,6.28613404 C67.2247717,6.28613404 69.7766263,8.84679528 69.7766263,11.9943487 C69.7766263,15.1417477 67.2247717,17.702409 64.0878544,17.702409 C60.950937,17.702409 58.3990824,15.1417477 58.3990824,11.9943487 Z" id="Fill-28" fill="#22B6CD"></path>
                <path d="M64.0878544,5.13683767 C60.3133578,5.13683767 57.2536389,8.20700801 57.2536389,11.9943024 C57.2536389,15.7815196 60.3133578,18.8517671 64.0878544,18.8517671 C67.8623509,18.8517671 70.9220698,15.7815196 70.9220698,11.9943024 C70.9220698,8.20700801 67.8623509,5.13683767 64.0878544,5.13683767 M64.0878544,7.43541497 C66.59319,7.43541497 68.6312597,9.4805493 68.6312597,11.9943024 C68.6312597,14.5080555 66.59319,16.5531126 64.0878544,16.5531126 C61.5826725,16.5531126 59.544449,14.5080555 59.544449,11.9943024 C59.544449,9.4805493 61.5826725,7.43541497 64.0878544,7.43541497" id="Fill-30" fill="#FFFFFF"></path>
            </g>
        </g>
    </g>
</svg>