<?xml version="1.0" encoding="utf-8"?>
<!-- Generator: Adobe Illustrator 19.0.0, SVG Export Plug-In . SVG Version: 6.00 Build 0)  -->
<svg version="1.1" id="Layer_1" xmlns="http://www.w3.org/2000/svg" xmlns:xlink="http://www.w3.org/1999/xlink" x="0px" y="0px"
	 viewBox="-305.047 387.649 14.046 9.984" style="enable-background:new -305.047 387.649 14.046 9.984;" xml:space="preserve">
<style type="text/css">
	.st0{fill:#FAF845;}
</style>
<g id="Clip-70">
</g>
<path class="st0" d="M-291.077,393.023c0.101-0.245,0.101-0.52,0-0.764c-0.051-0.123-0.124-0.233-0.216-0.325l-3.992-3.992
	c-0.391-0.391-1.023-0.391-1.414,0c-0.391,0.391-0.391,1.023,0,1.414l2.285,2.285h-9.633c-0.552,0-1,0.448-1,1s0.448,1,1,1h9.633
	l-2.285,2.285c-0.391,0.391-0.391,1.023,0,1.414c0.195,0.196,0.451,0.293,0.707,0.293c0.256,0,0.512-0.097,0.707-0.293l3.992-3.992
	C-291.201,393.256-291.128,393.146-291.077,393.023z"/>
</svg>
