<?xml version="1.0" encoding="utf-8"?>
<!-- Generator: Adobe Illustrator 19.0.0, SVG Export Plug-In . SVG Version: 6.00 Build 0)  -->
<svg version="1.1" id="Layer_1" xmlns="http://www.w3.org/2000/svg" xmlns:xlink="http://www.w3.org/1999/xlink" x="0px" y="0px"
	 viewBox="-386 287.429 26.46 26.571" style="enable-background:new -386 287.429 26.46 26.571;" xml:space="preserve">
<style type="text/css">
	.st0{fill:#FAF845;}
</style>
<g id="Group-2" transform="translate(411.000000, 507.000000)">
	<g id="Group-3" transform="translate(24.000000, 15.000000)">
		<g id="Clip-2">
		</g>
		<path id="Fill-1" class="st0" d="M-794.54-216.049c0,1.364-1.084,2.47-2.42,2.47v-5.951c1.337,0,2.42,1.106,2.42,2.47V-216.049z"
			/>
	</g>
	<path id="Fill-4" class="st0" d="M-794-198.456c0,0.512,0.356,0.927,0.794,0.927h1.977c0.439,0,0.794-0.415,0.794-0.927v-7.188
		c0-0.512-0.356-0.927-0.794-0.927h-1.977c-0.438,0-0.794,0.415-0.794,0.927V-198.456z"/>
	<path id="Fill-6" class="st0" d="M-797-200.435c0,1.003,0.796,1.815,1.778,1.815h0.642v-5.951h-0.642
		c-0.982,0-1.778,0.812-1.778,1.814V-200.435z"/>
	<path id="Fill-8" class="st0" d="M-776.058-217.147c-2.201-1.586-4.793-2.424-7.495-2.424c-2.703,0-5.295,0.838-7.496,2.424
		c-0.387,0.279-0.582,0.732-0.557,1.182c-2.687,2.332-4.394,5.805-4.394,9.678c0,0.427,0.339,0.773,0.757,0.773
		s0.757-0.346,0.757-0.773c0-3.381,1.481-6.415,3.815-8.463c0.378,0.117,0.802,0.063,1.15-0.188
		c1.751-1.262,3.815-1.929,5.968-1.929c2.152,0,4.216,0.667,5.968,1.929c0.232,0.167,0.499,0.248,0.763,0.248
		c0.132,0,0.262-0.02,0.388-0.059c2.334,2.048,3.814,5.082,3.814,8.462c0,0.427,0.339,0.773,0.757,0.773s0.757-0.346,0.757-0.773
		c0-3.873-1.707-7.346-4.394-9.678C-775.475-216.416-775.67-216.868-776.058-217.147z"/>
	<path id="Fill-10" class="st0" d="M-773.795-206.571h-1.977c-0.439,0-0.794,0.415-0.794,0.927v7.187
		c0,0.512,0.356,0.927,0.794,0.927h1.501c-0.364,1.511-1.205,2.47-5.463,2.5c-0.03-0.484-0.423-0.868-0.905-0.868h-5.451
		c-0.502,0-0.909,0.415-0.909,0.927v1.044c0,0.512,0.407,0.927,0.909,0.927h5.45c0.483,0,0.876-0.384,0.905-0.87
		c2.586-0.018,4.198-0.373,5.207-1.146c1.064-0.814,1.526-2.058,1.526-3.441v-7.187
		C-773.001-206.156-773.356-206.571-773.795-206.571"/>
</g>
</svg>
