<?xml version="1.0" encoding="utf-8"?>
<!-- Generator: Adobe Illustrator 19.0.0, SVG Export Plug-In . SVG Version: 6.00 Build 0)  -->
<svg version="1.1" id="Layer_1" xmlns="http://www.w3.org/2000/svg" xmlns:xlink="http://www.w3.org/1999/xlink" x="0px" y="0px"
	 viewBox="-688.216 683.999 16.001 13" style="enable-background:new -688.216 683.999 16.001 13;" xml:space="preserve">
<style type="text/css">
	.st0{fill:#FAF845;}
</style>
<path class="st0" d="M-672.307,690.786l-2.799-2.423v-3.622h-2.675v1.306l-2.287-1.98c-0.107-0.091-0.268-0.09-0.374,0.001
	l-7.684,6.718c-0.098,0.084-0.12,0.224-0.047,0.333c0.053,0.079,0.15,0.121,0.249,0.121h1.928v5.497
	c0,0.145,0.124,0.262,0.277,0.262h3.619c0.147,0,0.266-0.112,0.266-0.251v-3.176c0-0.175,0.15-0.316,0.335-0.316h2.566
	c0.185,0,0.335,0.142,0.335,0.316v3.176c0,0.139,0.119,0.251,0.266,0.251h3.619c0.153,0,0.277-0.117,0.277-0.262v-5.497h1.928
	c0.099,0,0.196-0.043,0.249-0.122C-672.185,691.01-672.208,690.87-672.307,690.786z"/>
</svg>
