<?xml version="1.0" encoding="utf-8"?>
<!-- Generator: Adobe Illustrator 19.0.0, SVG Export Plug-In . SVG Version: 6.00 Build 0)  -->
<svg version="1.1" id="Layer_1" xmlns="http://www.w3.org/2000/svg" xmlns:xlink="http://www.w3.org/1999/xlink" x="0px" y="0px"
	 viewBox="-18 -17.5 35.888 34.994" style="enable-background:new -18 -17.5 35.888 34.994;" xml:space="preserve">
<style type="text/css">
	.st0{fill:#FAF845;}
</style>
<g>
	<path id="bubble-talk" class="st0" d="M15.476-1.653c-0.143,2.608-0.627,5.025-1.363,6.807C12.616,8.78,8.912,9.603,5.486,9.93
		c-1.988,0.19-3.788,0.282-5.503,0.282l-0.044,0l-0.036,0c-0.961,0-1.932-0.028-2.964-0.087l-0.017-0.001l-0.017,0
		c-0.27,0.005-0.53,0.088-0.753,0.241l-5.042,3.459L-9.304,10C-9.35,9.579-9.62,9.215-10.009,9.05l-0.059-0.025
		c-2.036-0.761-3.396-2.027-4.158-3.871c-0.736-1.781-1.22-4.199-1.363-6.807c-0.029-0.525-0.029-1.057,0-1.582
		c0.143-2.608,0.627-5.025,1.363-6.807c1.498-3.626,5.202-4.449,8.628-4.776c1.988-0.19,3.787-0.282,5.502-0.282l0.04,0l0.042,0
		c1.712,0,3.512,0.092,5.5,0.282c3.426,0.327,7.13,1.15,8.628,4.776c0.736,1.781,1.22,4.199,1.363,6.807
		C15.505-2.711,15.505-2.178,15.476-1.653 M16.322-10.961c-0.474-1.148-1.136-2.15-1.967-2.979
		c-0.743-0.741-1.643-1.363-2.674-1.848c-2.009-0.945-4.245-1.255-5.969-1.419C3.648-17.404,1.773-17.5-0.017-17.5
		c-1.868,0-3.742,0.096-5.807,0.293c-1.724,0.164-3.96,0.474-5.969,1.419c-1.031,0.485-1.93,1.106-2.674,1.848
		c-0.831,0.828-1.492,1.831-1.967,2.979c-0.837,2.025-1.384,4.722-1.541,7.594c-0.034,0.613-0.034,1.234,0,1.846
		c0.157,2.872,0.705,5.569,1.541,7.594c0.544,1.316,1.332,2.438,2.344,3.333c0.677,0.599,1.432,1.09,2.309,1.5
		c0.123,0.057,0.208,0.179,0.223,0.316l0.612,5.648c0.038,0.355,0.337,0.623,0.693,0.623c0.14,0,0.276-0.042,0.393-0.122l6.793-4.66
		c0.161-0.111,0.352-0.166,0.548-0.157c0.832,0.038,1.624,0.056,2.424,0.056c1.868,0,3.742-0.096,5.807-0.293
		c1.724-0.165,3.96-0.475,5.969-1.419c1.031-0.485,1.93-1.106,2.674-1.848c0.831-0.828,1.492-1.831,1.967-2.979
		c0.837-2.025,1.384-4.722,1.541-7.594c0.034-0.612,0.034-1.234,0-1.846C17.706-6.239,17.158-8.936,16.322-10.961z"/>
	<g id="dots">
		<path id="Fill-3" class="st0" d="M-8.032-4.91c-1.489,0-2.7,1.215-2.7,2.708c0,1.493,1.211,2.708,2.7,2.708s2.7-1.215,2.7-2.708
			C-5.331-3.695-6.543-4.91-8.032-4.91"/>
		<path id="Fill-5" class="st0" d="M-0.056-4.91c-1.489,0-2.7,1.215-2.7,2.708c0,1.493,1.211,2.708,2.7,2.708s2.7-1.215,2.7-2.708
			C2.645-3.695,1.433-4.91-0.056-4.91"/>
		<path id="Fill-7" class="st0" d="M7.92-4.91c-1.489,0-2.7,1.215-2.7,2.708c0,1.493,1.211,2.708,2.7,2.708
			c1.489,0,2.7-1.215,2.7-2.708C10.62-3.695,9.409-4.91,7.92-4.91"/>
	</g>
</g>
</svg>
