<?xml version="1.0" encoding="utf-8"?>
<!-- Generator: Adobe Illustrator 19.0.0, SVG Export Plug-In . SVG Version: 6.00 Build 0)  -->
<svg version="1.1" id="Layer_1" xmlns="http://www.w3.org/2000/svg" xmlns:xlink="http://www.w3.org/1999/xlink" x="0px" y="0px"
	 viewBox="-304.612 385.359 11.8 11.8" style="enable-background:new -304.612 385.359 11.8 11.8;" xml:space="preserve">
<style type="text/css">
	.st0{fill:#FAF845;}
</style>
<g>
	<path class="st0" d="M-298.712,385.359c-3.253,0-5.9,2.646-5.9,5.9s2.646,5.9,5.9,5.9s5.9-2.646,5.9-5.9
		S-295.458,385.359-298.712,385.359z M-298.712,396.359c-2.812,0-5.1-2.288-5.1-5.1c0-2.812,2.288-5.1,5.1-5.1
		c2.812,0,5.1,2.288,5.1,5.1C-293.612,394.071-295.9,396.359-298.712,396.359z"/>
	<circle class="st0" cx="-298.712" cy="394.514" r="1"/>
	<path class="st0" d="M-298.241,386.921h-0.941c-0.325,0-0.588,0.263-0.588,0.588l0.394,5.1c0,0.535,0.441,0.535,0.665,0.535
		s0.647,0,0.647-0.588l0.412-5.047C-297.653,387.184-297.916,386.921-298.241,386.921z"/>
</g>
</svg>
