<?xml version="1.0" encoding="utf-8"?>
<!-- Generator: Adobe Illustrator 19.0.0, SVG Export Plug-In . SVG Version: 6.00 Build 0)  -->
<svg version="1.1" id="Layer_1" xmlns="http://www.w3.org/2000/svg" xmlns:xlink="http://www.w3.org/1999/xlink" x="0px" y="0px"
	 viewBox="-304.267 379.916 21.239 17.44" style="enable-background:new -304.267 379.916 21.239 17.44;" xml:space="preserve">
<style type="text/css">
	.st0{fill:#FAF845;}
</style>
<g>
	<path id="Fill-1" class="st0" d="M-284.606,379.916h-18.083c-0.868,0-1.578,0.644-1.578,1.43v0.052c0,0.787,0.71,1.43,1.578,1.43
		h18.083c0.868,0,1.578-0.644,1.578-1.43v-0.052C-283.028,380.559-283.738,379.916-284.606,379.916"/>
	<path id="Fill-4" class="st0" d="M-284.606,384.759h-18.083c-0.868,0-1.578,0.644-1.578,1.43v0.052c0,0.787,0.71,1.43,1.578,1.43
		h18.083c0.868,0,1.578-0.644,1.578-1.43v-0.052C-283.028,385.402-283.738,384.759-284.606,384.759"/>
	<path id="Fill-7" class="st0" d="M-284.606,389.601h-18.083c-0.868,0-1.578,0.644-1.578,1.43v0.052c0,0.787,0.71,1.43,1.578,1.43
		h18.083c0.868,0,1.578-0.644,1.578-1.43v-0.051C-283.028,390.245-283.738,389.601-284.606,389.601"/>
	<path id="Fill-10" class="st0" d="M-284.606,394.444h-18.083c-0.868,0-1.578,0.644-1.578,1.43v0.052c0,0.787,0.71,1.43,1.578,1.43
		h18.083c0.868,0,1.578-0.644,1.578-1.43v-0.051C-283.028,395.088-283.738,394.444-284.606,394.444"/>
</g>
</svg>
