<?xml version="1.0" encoding="utf-8"?>
<!-- Generator: Adobe Illustrator 19.0.0, SVG Export Plug-In . SVG Version: 6.00 Build 0)  -->
<svg version="1.1" id="Layer_1" xmlns="http://www.w3.org/2000/svg" xmlns:xlink="http://www.w3.org/1999/xlink" x="0px" y="0px"
	 viewBox="120.102 136.2 127.258 64.014" style="enable-background:new 120.102 136.2 127.258 64.014;" xml:space="preserve">
<style type="text/css">
	.st0{fill:#EAE41B;}
	.st1{fill:#FAF845;}
</style>
<title>Group 11</title>
<desc>Created with Sketch.</desc>
<g id="Group-11" transform="translate(418.000000, 650.000000)">
	<path id="Fill-1" class="st0" d="M-222.545-501.806c0,6.497-5.249,11.764-11.725,11.764c-6.475,0-11.725-5.267-11.725-11.764
		c0-6.497,5.249-11.764,11.725-11.764C-227.794-513.57-222.545-508.303-222.545-501.806"/>
	<path id="Fill-3" class="st0" d="M-245.765-501.806c0,6.36,5.157,11.534,11.496,11.534s11.495-5.174,11.495-11.534
		c0-6.36-5.157-11.535-11.495-11.535S-245.765-508.166-245.765-501.806z M-246.223-501.806c0-6.614,5.362-11.994,11.954-11.994
		c6.591,0,11.954,5.381,11.954,11.994c0,6.614-5.362,11.994-11.954,11.994C-240.861-489.812-246.223-495.192-246.223-501.806z"/>
	<path id="Fill-5" class="st1" d="M-251.559-504.35l5.632-0.517c3.341-0.115,5.736-3.39,5.736-3.39
		c2.548-3.563,5.922-3.234,5.922-3.234s3.375-0.329,5.923,3.234c0,0,2.395,3.275,5.736,3.39l5.631,0.517l-9.297,19.212
		c-1.069-9.041-7.993-8.045-7.993-8.045c0,0-6.924-0.996-7.993,8.045L-251.559-504.35z"/>
	<path id="Fill-7" class="st0" d="M-220.504-471.102c0,0-10.538-6.206-6.491-14.251c0,0,6.796-12.91,9.698-20.994
		c0,0,2.598-9.831,14.967-2.069c0,0,8.705,5.133,10.614,9.501L-220.504-471.102z"/>
	<path id="Fill-9" d="M-210.647-511.171c-5.079,0-6.415,4.834-6.428,4.883c-2.88,8.025-9.648,20.913-9.717,21.042
		c-3.642,7.24,5.009,13.064,6.257,13.855l28.543-27.576c-1.985-4.22-10.369-9.199-10.455-9.25
		C-205.571-510.178-208.328-511.171-210.647-511.171L-210.647-511.171z M-220.47-470.816l-0.15-0.088
		c-0.107-0.063-10.676-6.409-6.579-14.553c0.07-0.133,6.824-12.992,9.687-20.968c0.008-0.033,1.438-5.205,6.865-5.205
		c2.407,0,5.246,1.016,8.439,3.02c0.353,0.208,8.786,5.218,10.702,9.603l0.064,0.147l-0.115,0.111L-220.47-470.816z"/>
	<path id="Fill-11" class="st1" d="M-170.869-475.76c0,14.218-11.487,25.744-25.657,25.744c-14.17,0-25.657-11.526-25.657-25.744
		c0-14.218,11.487-25.744,25.657-25.744C-182.356-501.504-170.869-489.978-170.869-475.76"/>
	<path id="Fill-13" d="M-196.527-501.274c-14.021,0-25.428,11.446-25.428,25.514c0,14.069,11.407,25.514,25.428,25.514
		c14.021,0,25.428-11.446,25.428-25.514C-171.099-489.829-182.505-501.274-196.527-501.274 M-196.527-449.786
		c-14.274,0-25.886-11.652-25.886-25.974c0-14.322,11.612-25.974,25.886-25.974c14.274,0,25.886,11.652,25.886,25.974
		C-170.64-461.438-182.253-449.786-196.527-449.786"/>
	<path id="Fill-15" d="M-196.527-455.303c-11.242,0-20.388-9.177-20.388-20.457c0-11.28,9.146-20.457,20.388-20.457
		c11.242,0,20.388,9.177,20.388,20.457C-176.138-464.48-185.284-455.303-196.527-455.303"/>
	<path id="Fill-17" class="st0" d="M-248.035-471.102c0,0,10.538-6.206,6.491-14.251c0,0-6.796-12.91-9.698-20.994
		c0,0-2.598-9.831-14.967-2.069c0,0-8.705,5.133-10.614,9.501L-248.035-471.102z"/>
	<path id="Fill-19" d="M-276.547-498.968l28.543,27.577c1.248-0.791,9.899-6.615,6.255-13.859
		c-0.066-0.126-6.835-13.013-9.709-21.019c-0.059-0.218-1.364-4.902-6.434-4.902c-2.319,0-5.077,0.992-8.196,2.95
		C-266.178-508.167-274.562-503.187-276.547-498.968L-276.547-498.968z M-248.068-470.816l-29.028-28.045l0.064-0.147
		c1.917-4.385,10.35-9.395,10.708-9.607c3.187-2,6.027-3.016,8.433-3.016c5.427,0,6.857,5.172,6.871,5.224
		c2.857,7.957,9.611,20.816,9.679,20.945c4.098,8.147-6.47,14.494-6.577,14.557L-248.068-470.816z"/>
	<path id="Fill-21" class="st1" d="M-297.669-475.76c0,14.218,11.487,25.744,25.657,25.744s25.657-11.526,25.657-25.744
		c0-14.218-11.487-25.744-25.657-25.744S-297.669-489.978-297.669-475.76"/>
	<g id="Group-25" transform="translate(0.458834, 12.014045)">
		<path id="Fill-23" d="M-272.471-513.289c-14.021,0-25.428,11.446-25.428,25.515c0,14.069,11.407,25.514,25.428,25.514
			c14.021,0,25.428-11.446,25.428-25.514C-247.043-501.843-258.45-513.289-272.471-513.289 M-272.471-461.8
			c-14.274,0-25.886-11.652-25.886-25.974c0-14.322,11.612-25.974,25.886-25.974c14.274,0,25.886,11.652,25.886,25.974
			C-246.585-473.452-258.197-461.8-272.471-461.8"/>
	</g>
	<path id="Fill-26" d="M-272.012-455.303c11.242,0,20.388-9.177,20.388-20.458c0-11.28-9.146-20.458-20.388-20.458
		c-11.242,0-20.388,9.177-20.388,20.458C-292.4-464.48-283.254-455.303-272.012-455.303"/>
	<path id="Fill-28" class="st1" d="M-239.958-501.806c0-3.148,2.552-5.708,5.689-5.708s5.689,2.561,5.689,5.708
		c0,3.147-2.552,5.708-5.689,5.708S-239.958-498.658-239.958-501.806z"/>
	<path id="Fill-30" d="M-234.269-508.663c-3.774,0-6.834,3.07-6.834,6.857c0,3.787,3.06,6.857,6.834,6.857
		c3.775,0,6.834-3.07,6.834-6.857C-227.435-505.593-230.495-508.663-234.269-508.663 M-234.269-506.365
		c2.505,0,4.543,2.045,4.543,4.559s-2.038,4.559-4.543,4.559c-2.505,0-4.543-2.045-4.543-4.559S-236.775-506.365-234.269-506.365"/>
</g>
</svg>
