<?xml version="1.0" encoding="utf-8"?>
<!-- Generator: Adobe Illustrator 19.0.0, SVG Export Plug-In . SVG Version: 6.00 Build 0)  -->
<svg version="1.1" id="Layer_1" xmlns="http://www.w3.org/2000/svg" xmlns:xlink="http://www.w3.org/1999/xlink" x="0px" y="0px"
	 viewBox="0 0 183.349 95.292" style="enable-background:new 0 0 183.349 95.292;" xml:space="preserve">
<style type="text/css">
	.st0{filter:url(#Adobe_OpacityMaskFilter);}
	.st1{fill:#FFFFFF;}
	.st2{mask:url(#mask-2);fill:#EAE41B;}
	.st3{filter:url(#Adobe_OpacityMaskFilter_1_);}
	.st4{mask:url(#mask-4);fill:#EAE41B;}
	.st5{filter:url(#Adobe_OpacityMaskFilter_2_);}
	.st6{mask:url(#mask-6);fill:#EAE41B;}
	.st7{filter:url(#Adobe_OpacityMaskFilter_3_);}
	.st8{mask:url(#mask-8);fill:#EAE41B;}
	.st9{filter:url(#Adobe_OpacityMaskFilter_4_);}
	.st10{mask:url(#mask-10);fill:#EAE41B;}
	.st11{filter:url(#Adobe_OpacityMaskFilter_5_);}
	.st12{mask:url(#mask-12);fill:#EAE41B;}
	.st13{filter:url(#Adobe_OpacityMaskFilter_6_);}
	.st14{mask:url(#mask-14);fill:#EAE41B;}
	.st15{filter:url(#Adobe_OpacityMaskFilter_7_);}
	.st16{mask:url(#mask-16);fill:#EAE41B;}
	.st17{filter:url(#Adobe_OpacityMaskFilter_8_);}
	.st18{mask:url(#mask-18);fill:#EAE41B;}
	.st19{filter:url(#Adobe_OpacityMaskFilter_9_);}
	.st20{mask:url(#mask-20);fill:#EAE41B;}
	.st21{fill:#FAF845;}
</style>
<g id="Group-3" transform="translate(128.000000, 35.000000)">
	<g id="Clip-2">
	</g>
	<defs>
		<filter id="Adobe_OpacityMaskFilter" filterUnits="userSpaceOnUse" x="0.068" y="0.329" width="55.28" height="41.023">
			<feColorMatrix  type="matrix" values="1 0 0 0 0  0 1 0 0 0  0 0 1 0 0  0 0 0 1 0"/>
		</filter>
	</defs>
	<mask maskUnits="userSpaceOnUse" x="0.068" y="0.329" width="55.28" height="41.023" id="mask-2">
		<g class="st0">
			<path id="path-1" class="st1" d="M18.269,8.73c-2.79,0-5.451-0.533-7.887-1.495c-1.15,2.513-2.813,4.758-4.86,6.611
				c6.841,2.087,20.668,7.552,20.668,17.594v4.643h23.705V20.759c0-9.274-16.96-14.237-20.456-15.161
				C26.202,7.579,22.372,8.73,18.269,8.73z"/>
		</g>
	</mask>
	<polygon id="Fill-1" class="st2" points="0.068,41.352 55.349,41.352 55.349,0.329 0.068,0.329 	"/>
</g>
<g id="Group-6" transform="translate(124.000000, 0.000000)">
	<g id="Clip-5">
	</g>
	<defs>
		<filter id="Adobe_OpacityMaskFilter_1_" filterUnits="userSpaceOnUse" x="0.116" y="0.231" width="43.195" height="45.129">
			<feColorMatrix  type="matrix" values="1 0 0 0 0  0 1 0 0 0  0 0 1 0 0  0 0 0 1 0"/>
		</filter>
	</defs>
	<mask maskUnits="userSpaceOnUse" x="0.116" y="0.231" width="43.195" height="45.129" id="mask-4">
		<g class="st3">
			<path id="path-3" class="st1" d="M5.384,16.081c5.847,3.583,9.764,10.092,9.764,17.51c0,1.767-0.222,3.483-0.639,5.12
				c2.013,0.851,4.22,1.323,6.538,1.323c9.388,0,16.998-7.717,16.998-17.239c0-9.519-7.61-17.237-16.998-17.237
				C14.006,5.557,7.965,9.896,5.384,16.081z"/>
		</g>
	</mask>
	<polygon id="Fill-4" class="st4" points="0.116,45.36 43.311,45.36 43.311,0.231 0.116,0.231 	"/>
</g>
<g id="Group-9" transform="translate(0.000000, 35.000000)">
	<g id="Clip-8">
	</g>
	<defs>
		<filter id="Adobe_OpacityMaskFilter_2_" filterUnits="userSpaceOnUse" x="0" y="0.329" width="55.467" height="41.023">
			<feColorMatrix  type="matrix" values="1 0 0 0 0  0 1 0 0 0  0 0 1 0 0  0 0 0 1 0"/>
		</filter>
	</defs>
	<mask maskUnits="userSpaceOnUse" x="0" y="0.329" width="55.467" height="41.023" id="mask-6">
		<g class="st5">
			<path id="path-5" class="st1" d="M5.504,20.759v15.323h23.597V31.44c0-10.042,13.955-15.507,20.861-17.594
				c-2.038-1.826-3.699-4.034-4.857-6.505c-2.382,0.894-4.971,1.389-7.679,1.389c-4.143,0-8.008-1.151-11.276-3.131
				C22.62,6.523,5.504,11.486,5.504,20.759z"/>
		</g>
	</mask>
	<polygon id="Fill-7" class="st6" points="0,41.352 55.467,41.352 55.467,0.329 0,0.329 	"/>
</g>
<g id="Group-12" transform="translate(15.000000, 0.000000)">
	<g id="Clip-11">
	</g>
	<defs>
		<filter id="Adobe_OpacityMaskFilter_3_" filterUnits="userSpaceOnUse" x="0.092" y="0.231" width="43.129" height="45.129">
			<feColorMatrix  type="matrix" values="1 0 0 0 0  0 1 0 0 0  0 0 1 0 0  0 0 0 1 0"/>
		</filter>
	</defs>
	<mask maskUnits="userSpaceOnUse" x="0.092" y="0.231" width="43.129" height="45.129" id="mask-8">
		<g class="st7">
			<path id="path-7" class="st1" d="M5.359,22.794c0,9.522,7.611,17.239,17,17.239c2.209,0,4.317-0.432,6.253-1.209
				c-0.437-1.671-0.671-3.425-0.671-5.234c0-7.523,4.028-14.109,10.012-17.659C35.338,9.828,29.342,5.557,22.359,5.557
				C12.97,5.557,5.359,13.275,5.359,22.794z"/>
		</g>
	</mask>
	<polygon id="Fill-10" class="st8" points="0.092,45.36 43.221,45.36 43.221,0.231 0.092,0.231 	"/>
</g>
<g id="Group-15" transform="translate(88.000000, 2.000000)">
	<g id="Clip-14">
	</g>
	<defs>
		<filter id="Adobe_OpacityMaskFilter_4_" filterUnits="userSpaceOnUse" x="0.354" y="0.379" width="41.013" height="27.129">
			<feColorMatrix  type="matrix" values="1 0 0 0 0  0 1 0 0 0  0 0 1 0 0  0 0 0 1 0"/>
		</filter>
	</defs>
	<mask maskUnits="userSpaceOnUse" x="0.354" y="0.379" width="41.013" height="27.129" id="mask-10">
		<g class="st9">
			<path id="path-9" class="st1" d="M5.693,21.255c1.341,0.197,2.64,0.522,3.888,0.955c3.63-7.147,11.023-11.711,19.122-11.711
				c2.572,0,5.039,0.455,7.326,1.285c-3.161-3.733-7.891-6.107-13.18-6.107C13.863,5.676,6.488,12.521,5.693,21.255z"/>
		</g>
	</mask>
	<polygon id="Fill-13" class="st10" points="0.354,27.508 41.367,27.508 41.367,0.379 0.354,0.379 	"/>
</g>
<g id="Group-18" transform="translate(97.000000, 12.000000)">
	<g id="Clip-17">
	</g>
	<defs>
		<filter id="Adobe_OpacityMaskFilter_5_" filterUnits="userSpaceOnUse" x="0.346" y="0.129" width="43.065" height="44.356">
			<feColorMatrix  type="matrix" values="1 0 0 0 0  0 1 0 0 0  0 0 1 0 0  0 0 0 1 0"/>
		</filter>
	</defs>
	<mask maskUnits="userSpaceOnUse" x="0.346" y="0.129" width="43.065" height="44.356" id="mask-12">
		<g class="st11">
			<path id="path-11" class="st1" d="M5.613,15.422c5.916,3.506,9.89,9.94,9.89,17.284c0,1.838-0.25,3.62-0.716,5.313
				c1.965,0.791,4.11,1.23,6.359,1.23c9.388,0,16.998-7.586,16.998-16.944c0-9.356-7.61-16.942-16.998-16.942
				C14.218,5.364,8.261,9.498,5.613,15.422z"/>
		</g>
	</mask>
	<polygon id="Fill-16" class="st12" points="0.346,44.484 43.411,44.484 43.411,0.129 0.346,0.129 	"/>
</g>
<g id="Group-21" transform="translate(100.000000, 47.000000)">
	<g id="Clip-20">
	</g>
	<defs>
		<filter id="Adobe_OpacityMaskFilter_6_" filterUnits="userSpaceOnUse" x="-0.03" y="0.139" width="55.53" height="41.023">
			<feColorMatrix  type="matrix" values="1 0 0 0 0  0 1 0 0 0  0 0 1 0 0  0 0 0 1 0"/>
		</filter>
	</defs>
	<mask maskUnits="userSpaceOnUse" x="-0.03" y="0.139" width="55.53" height="41.023" id="mask-14">
		<g class="st13">
			<path id="path-13" class="st1" d="M18.074,8.54c-2.761,0-5.398-0.514-7.819-1.442c-1.155,2.406-2.788,4.558-4.781,6.345
				c6.906,2.087,20.862,7.552,20.862,17.594v4.855h23.66V20.57c0-9.275-17.118-14.237-20.647-15.161
				C26.081,7.389,22.216,8.54,18.074,8.54z"/>
		</g>
	</mask>
	<polygon id="Fill-19" class="st14" points="-0.03,41.162 55.501,41.162 55.501,0.139 -0.03,0.139 	"/>
</g>
<g id="Group-24" transform="translate(49.000000, 0.000000)">
	<g id="Clip-23">
	</g>
	<defs>
		<filter id="Adobe_OpacityMaskFilter_7_" filterUnits="userSpaceOnUse" x="0.049" y="0" width="43.284" height="30.446">
			<feColorMatrix  type="matrix" values="1 0 0 0 0  0 1 0 0 0  0 0 1 0 0  0 0 0 1 0"/>
		</filter>
	</defs>
	<mask maskUnits="userSpaceOnUse" x="0.049" y="0" width="43.284" height="30.446" id="mask-16">
		<g class="st15">
			<path id="path-15" class="st1" d="M5.447,14.537c2.762-1.323,5.835-2.068,9.074-2.068c8.248,0,15.732,4.833,19.386,12.409
				c1.288-0.485,2.633-0.847,4.021-1.072c0.001-0.071,0.005-0.141,0.005-0.212c0-9.954-7.8-18.023-17.423-18.023
				C14.08,5.569,8.467,9.176,5.447,14.537z"/>
		</g>
	</mask>
	<polygon id="Fill-22" class="st16" points="0.049,30.446 15.085,30.446 43.333,30.446 43.333,0 0.049,0 	"/>
</g>
<g id="Group-27" transform="translate(41.000000, 12.000000)">
	<g id="Clip-26">
	</g>
	<defs>
		<filter id="Adobe_OpacityMaskFilter_8_" filterUnits="userSpaceOnUse" x="0.081" y="0.129" width="43.132" height="44.356">
			<feColorMatrix  type="matrix" values="1 0 0 0 0  0 1 0 0 0  0 0 1 0 0  0 0 0 1 0"/>
		</filter>
	</defs>
	<mask maskUnits="userSpaceOnUse" x="0.081" y="0.129" width="43.132" height="44.356" id="mask-18">
		<g class="st17">
			<path id="path-17" class="st1" d="M5.348,22.306c0,9.358,7.61,16.944,16.998,16.944c2.357,0,4.602-0.478,6.643-1.344
				c-0.446-1.659-0.686-3.402-0.686-5.2c0-7.24,3.863-13.598,9.642-17.136c-2.614-6.004-8.613-10.207-15.6-10.207
				C12.958,5.364,5.348,12.95,5.348,22.306z"/>
		</g>
	</mask>
	<polygon id="Fill-25" class="st18" points="0.081,44.484 43.213,44.484 43.213,0.129 0.081,0.129 	"/>
</g>
<g id="Group-30" transform="translate(27.000000, 47.000000)">
	<g id="Clip-29">
	</g>
	<defs>
		<filter id="Adobe_OpacityMaskFilter_9_" filterUnits="userSpaceOnUse" x="0.035" y="0.139" width="55.342" height="41.023">
			<feColorMatrix  type="matrix" values="1 0 0 0 0  0 1 0 0 0  0 0 1 0 0  0 0 0 1 0"/>
		</filter>
	</defs>
	<mask maskUnits="userSpaceOnUse" x="0.035" y="0.139" width="55.342" height="41.023" id="mask-20">
		<g class="st19">
			<path id="path-19" class="st1" d="M5.488,20.57v15.323h23.769v-4.855c0-10.04,13.825-15.506,20.667-17.594
				c-2.005-1.813-3.642-4.002-4.789-6.452c-2.472,0.996-5.18,1.548-8.02,1.548c-4.104,0-7.932-1.151-11.171-3.131
				C22.447,6.333,5.488,11.295,5.488,20.57z"/>
		</g>
	</mask>
	<polygon id="Fill-28" class="st20" points="0.035,41.163 55.377,41.163 55.377,0.139 0.035,0.139 	"/>
</g>
<path id="Stroke-31" class="st21" d="M102.612,64.292c-3.276,2.014-7.151,3.184-11.303,3.184c-4.152,0-8.027-1.171-11.303-3.184
	c-3.54,0.941-20.697,5.987-20.697,15.418v15.582h32h32V79.709C123.309,70.278,106.149,65.232,102.612,64.292z"/>
<circle class="st21" cx="91.309" cy="45.36" r="16.5"/>
</svg>
