<?xml version="1.0" encoding="utf-8"?>
<!-- Generator: Adobe Illustrator 19.0.0, SVG Export Plug-In . SVG Version: 6.00 Build 0)  -->
<svg version="1.1" id="Layer_1" xmlns="http://www.w3.org/2000/svg" xmlns:xlink="http://www.w3.org/1999/xlink" x="0px" y="0px"
	 viewBox="-61.046 -56.061 121.904 111.728" style="enable-background:new -61.046 -56.061 121.904 111.728;" xml:space="preserve">
<style type="text/css">
	.st0{filter:url(#Adobe_OpacityMaskFilter);}
	.st1{fill:#FFFFFF;}
	.st2{mask:url(#mask-2);fill:#EAE41B;}
	.st3{fill:#EAE41B;}
	.st4{filter:url(#Adobe_OpacityMaskFilter_1_);}
	.st5{mask:url(#mask-4);fill:#EAE41B;}
	.st6{filter:url(#Adobe_OpacityMaskFilter_2_);}
	.st7{mask:url(#mask-6);fill:#FAF845;}
	.st8{fill:#FAF845;}
</style>
<g>
	<g>
		<polygon id="Fill-1" points="-51.067,-44.175 -52.724,-42.397 -47.376,47.804 19.637,43.946 22.561,42.344 18.305,-34.114 
			2.269,-48.124 		"/>
		<g id="Group-4" transform="translate(0.000000, 1.446932)">
			<g id="Clip-3">
			</g>
			<defs>
				<filter id="Adobe_OpacityMaskFilter" filterUnits="userSpaceOnUse" x="-61.046" y="-56.138" width="91.929" height="110.359">
					<feColorMatrix  type="matrix" values="1 0 0 0 0  0 1 0 0 0  0 0 1 0 0  0 0 0 1 0"/>
				</filter>
			</defs>
			<mask maskUnits="userSpaceOnUse" x="-61.046" y="-56.138" width="91.929" height="110.359" id="mask-2">
				<g class="st0">
					<path id="path-1" class="st1" d="M1.754-50.944c0.081-0.006,0.162-0.009,0.242-0.009c0.741,0,1.459,0.255,2.024,0.722
						l14.74,12.194c0.626,0.518,1.012,1.255,1.073,2.05l5.839,76.651c0.005,0.062,0.007,0.123,0.008,0.185v0.076
						c-0.02,1.543-1.264,2.846-2.891,2.968l-68.439,5.133c-0.072,0.006-0.144,0.008-0.216,0.009h-0.058
						c-1.6-0.014-2.946-1.206-3.065-2.772l-6.847-89.874c-0.005-0.068-0.008-0.136-0.008-0.203v-0.04
						c0.011-1.551,1.258-2.864,2.891-2.986L1.754-50.944z M-52.724-43.845l6.846,89.875l68.439-5.133l-5.705-74.896L4.412-33.066
						c-1.718,0.129-3.213-1.108-3.339-2.762L0.16-47.811L-52.724-43.845z M3.366-46.804l0.818,10.742l11.155-0.837L3.366-46.804z"/>
				</g>
			</mask>
			<polygon id="Fill-2" class="st2" points="-61.046,54.22 30.883,54.22 30.883,-56.138 -61.046,-56.138 			"/>
		</g>
		<g>
			<polygon id="Fill-5" class="st3" points="-41.396,23.574 11.211,19.614 10.983,16.619 -41.624,20.578 			"/>
			<polygon id="Fill-8" class="st3" points="-41.985,15.833 10.622,11.874 10.393,8.878 -42.214,12.838 			"/>
			<polygon id="Fill-11" class="st3" points="-42.575,8.094 10.032,4.134 9.804,1.138 -42.803,5.098 			"/>
			<polygon id="Fill-14" class="st3" points="-40.806,31.314 11.801,27.354 11.573,24.358 -41.034,28.318 			"/>
			<polygon id="Fill-17" class="st3" points="-40.217,39.054 12.391,35.094 12.162,32.098 -40.445,36.058 			"/>
			<polygon id="Fill-21" class="st3" points="-44.771,-18.122 -44.543,-15.126 8.064,-19.086 7.836,-22.081 			"/>
			<polygon id="Fill-24" class="st3" points="-45.361,-25.862 -45.133,-22.866 7.475,-26.826 7.247,-29.821 			"/>
			<polygon id="Fill-27" class="st3" points="-44.181,-10.382 -43.953,-7.386 8.654,-11.346 8.426,-14.342 			"/>
			<polygon id="Fill-30" class="st3" points="-43.393,-2.642 -43.165,0.354 9.442,-3.605 9.214,-6.602 			"/>
		</g>
	</g>
	<g>
		<polygon id="Fill-32" points="-14.913,-47.871 -23.199,42.112 43.643,48.227 46.775,47.076 54.072,-29.155 40.325,-45.384 
			-13.007,-49.383 		"/>
		<g id="Group-35" transform="translate(31.022932, 0.059463)">
			<g id="Clip-34">
			</g>
			<defs>
				<filter id="Adobe_OpacityMaskFilter_1_" filterUnits="userSpaceOnUse" x="-61.013" y="-56.12" width="90.848" height="111.327">
					<feColorMatrix  type="matrix" values="1 0 0 0 0  0 1 0 0 0  0 0 1 0 0  0 0 0 1 0"/>
				</filter>
			</defs>
			<mask maskUnits="userSpaceOnUse" x="-61.013" y="-56.12" width="90.848" height="111.327" id="mask-4">
				<g class="st4">
					<path id="path-3" class="st1" d="M-49.047-48.16c0.118-1.576,1.479-2.775,3.094-2.775c0.08,0,0.161,0.003,0.243,0.009
						l54.711,4.049c0.825,0.061,1.593,0.435,2.134,1.04l12.739,14.242c0.542,0.605,0.812,1.391,0.752,2.186l-5.761,76.656
						c-0.118,1.57-1.468,2.765-3.074,2.775H15.75c-0.074,0-0.148-0.003-0.223-0.009l-68.444-5.065
						c-1.718-0.127-3.01-1.572-2.886-3.226L-49.047-48.16z M-52.691,41.951l68.444,5.065l5.629-74.901L8.937-28.806
						c-1.718-0.127-3.01-1.572-2.886-3.226l0.901-11.984l-52.889-3.914L-52.691,41.951z M9.163-31.802l11.155,0.826L9.97-42.545
						L9.163-31.802z"/>
				</g>
			</mask>
			<polygon id="Fill-33" class="st5" points="-61.013,55.207 29.835,55.207 29.835,-56.12 -61.013,-56.12 			"/>
		</g>
		<g>
			<polygon id="Fill-36" class="st3" points="-3.69,19.733 38.58,22.861 38.805,19.865 -3.465,16.737 			"/>
			<polygon id="Fill-37" class="st3" points="-3.108,11.992 39.162,15.12 39.387,12.124 -2.883,8.996 			"/>
			<polygon id="Fill-38" class="st3" points="-2.527,4.252 39.743,7.38 39.969,4.383 -2.302,1.255 			"/>
			<polygon id="Fill-39" class="st3" points="-4.272,27.473 37.998,30.602 38.223,27.605 -4.047,24.477 			"/>
			<polygon id="Fill-40" class="st3" points="-4.854,35.214 37.416,38.342 37.642,35.346 -4.628,32.218 			"/>
			<polygon id="Fill-41" class="st3" points="-0.781,-18.97 41.489,-15.842 41.714,-18.838 -0.556,-21.966 			"/>
			<polygon id="Fill-42" class="st3" points="-0.2,-26.711 42.07,-23.583 42.295,-26.579 0.025,-29.707 			"/>
			<polygon id="Fill-43" class="st3" points="-1.363,-11.23 40.907,-8.102 41.132,-11.097 -1.138,-14.226 			"/>
			<polygon id="Fill-44" class="st3" points="-1.945,-3.489 40.325,-0.361 40.55,-3.357 -1.72,-6.485 			"/>
		</g>
	</g>
	<g>
		<polygon id="Fill-45" points="-29.062,-43.774 -35.462,-44.245 -34.277,48.426 36.595,48.896 35.925,-31.539 19.948,-45.681 		"/>
		<g id="Group-48" transform="translate(18.892170, 5.212920)">
			<g id="Clip-47">
			</g>
			<defs>
				<filter id="Adobe_OpacityMaskFilter_2_" filterUnits="userSpaceOnUse" x="-61.128" y="-56.08" width="85.936" height="106.51">
					<feColorMatrix  type="matrix" values="1 0 0 0 0  0 1 0 0 0  0 0 1 0 0  0 0 0 1 0"/>
				</filter>
			</defs>
			<mask maskUnits="userSpaceOnUse" x="-61.128" y="-56.08" width="85.936" height="106.51" id="mask-6">
				<g class="st6">
					<path id="path-5" class="st1" d="M-52.778-50.894H2.566c0.835,0,1.635,0.316,2.225,0.88l13.893,13.262
						c0.59,0.564,0.921,1.328,0.921,2.124v76.869c0,1.659-1.409,3.004-3.147,3.004h-69.237c-1.738,0-3.147-1.345-3.147-3.004V-47.89
						C-55.926-49.549-54.517-50.894-52.778-50.894z M-52.778-47.89v90.131h69.237v-75.109H3.87c-1.738,0-3.147-1.345-3.147-3.004
						V-47.89H-52.778z M3.87-46.645v10.773h11.285L3.87-46.645z"/>
				</g>
			</mask>
			<polygon id="Fill-46" class="st7" points="-61.128,50.431 24.808,50.431 24.808,-56.08 -61.128,-56.08 			"/>
		</g>
		<g>
			<polygon id="Fill-49" class="st8" points="-24.552,23.911 25.39,23.911 25.39,20.907 -24.552,20.907 			"/>
			<polygon id="Fill-50" class="st8" points="-24.552,16.149 25.39,16.149 25.39,13.144 -24.552,13.144 			"/>
			<polygon id="Fill-51" class="st8" points="-24.552,8.387 25.39,8.387 25.39,5.382 -24.552,5.382 			"/>
			<polygon id="Fill-52" class="st8" points="-24.552,31.673 25.39,31.673 25.39,28.668 -24.552,28.668 			"/>
			<polygon id="Fill-53" class="st8" points="-24.552,39.435 25.39,39.435 25.39,36.43 -24.552,36.43 			"/>
			<polygon id="Fill-54" class="st8" points="-24.552,-14.899 25.39,-14.899 25.39,-17.904 -24.552,-17.904 			"/>
			<polygon id="Fill-55" class="st8" points="-24.552,-22.662 25.39,-22.662 25.39,-25.666 -24.552,-25.666 			"/>
			<polygon id="Fill-56" class="st8" points="-24.552,-7.137 25.39,-7.137 25.39,-10.142 -24.552,-10.142 			"/>
			<polygon id="Fill-57" class="st8" points="-24.552,0.625 25.39,0.625 25.39,-2.38 -24.552,-2.38 			"/>
		</g>
	</g>
</g>
</svg>
