<?xml version="1.0" encoding="utf-8"?>
<!-- Generator: Adobe Illustrator 19.0.0, SVG Export Plug-In . SVG Version: 6.00 Build 0)  -->
<svg version="1.1" id="Layer_1" xmlns="http://www.w3.org/2000/svg" xmlns:xlink="http://www.w3.org/1999/xlink" x="0px" y="0px"
	 viewBox="-53.381 -45.088 107.965 90.85" style="enable-background:new -53.381 -45.088 107.965 90.85;" xml:space="preserve">
<style type="text/css">
	.st0{fill:#FAF845;}
</style>
<title>Group 13</title>
<desc>Created with Sketch.</desc>
<g id="Welcome">
	<g id="Search-Drop-Down-Menu" transform="translate(-610.000000, -630.000000)">
		
			<g id="Group-13" transform="translate(661.570312, 682.587891) rotate(-20.000000) translate(-661.570312, -682.587891) translate(617.570312, 627.087891)">
			<path id="Fill-16" class="st0" d="M-15.541-50.597c-12.42,8.221-15.858,25.047-7.664,37.508
				c8.195,12.462,24.967,15.911,37.39,7.69c12.42-8.221,15.858-25.047,7.664-37.508C13.653-55.369-3.119-58.818-15.541-50.597
				 M18.262,0.801c-3.875,2.564-8.135,4.292-12.665,5.132C1.223,6.744-3.21,6.701-7.585,5.801c-4.375-0.9-8.468-2.61-12.17-5.082
				c-3.833-2.561-7.073-5.83-9.631-9.717c-2.554-3.886-4.276-8.16-5.113-12.704c-0.811-4.388-0.767-8.836,0.13-13.225
				c0.896-4.387,2.6-8.496,5.067-12.208c2.552-3.847,5.812-7.097,9.684-9.662c3.875-2.563,8.136-4.289,12.665-5.132
				c4.373-0.811,8.807-0.767,13.182,0.132c4.375,0.9,8.467,2.609,12.17,5.082c3.834,2.562,7.073,5.831,9.63,9.717
				c2.556,3.887,4.274,8.161,5.114,12.706c0.809,4.386,0.764,8.836-0.132,13.223c-0.897,4.389-2.6,8.496-5.065,12.21
				C25.392-5.013,22.136-1.763,18.262,0.801"/>
			<path id="Fill-17" class="st0" d="M44.315,47.841c-0.546,0.361-1.281,0.211-1.642-0.336L17.115,8.787
				c-0.217-0.329-0.127-0.773,0.201-0.99l7.948-5.261c0.328-0.217,0.768-0.127,0.985,0.202
				c6.997,10.599,12.245,18.549,15.743,23.848c2.181,3.304,5.453,8.26,9.815,14.868c0.362,0.549,0.212,1.288-0.336,1.65
				L44.315,47.841z"/>
			<polygon id="Fill-18" class="st0" points="17.434,-3.515 14.393,-1.502 21.838,9.82 24.881,7.807 			"/>
		</g>
	</g>
</g>
</svg>
