<?xml version="1.0" encoding="utf-8"?>
<!-- Generator: Adobe Illustrator 19.0.0, SVG Export Plug-In . SVG Version: 6.00 Build 0)  -->
<svg version="1.1" id="Layer_1" xmlns="http://www.w3.org/2000/svg" xmlns:xlink="http://www.w3.org/1999/xlink" x="0px" y="0px"
	 viewBox="-13 -13 25.252 25.193" style="enable-background:new -13 -13 25.252 25.193;" xml:space="preserve">
<style type="text/css">
	.st0{filter:url(#Adobe_OpacityMaskFilter);}
	.st1{fill:#FFFFFF;}
	.st2{mask:url(#mask-2);fill:#FAF845;}
</style>
<title>Page 1</title>
<desc>Created with Sketch.</desc>
<g id="Welcome">
	<g id="Search-Drop-Down-Menu" transform="translate(-457.000000, -315.000000)">
		<g id="Page-1" transform="translate(457.000000, 315.000000)">
			<g id="Clip-2">
			</g>
			<defs>
				<filter id="Adobe_OpacityMaskFilter" filterUnits="userSpaceOnUse" x="-13" y="-13" width="25.252" height="25.193">
					<feColorMatrix  type="matrix" values="1 0 0 0 0  0 1 0 0 0  0 0 1 0 0  0 0 0 1 0"/>
				</filter>
			</defs>
			<mask maskUnits="userSpaceOnUse" x="-13" y="-13" width="25.252" height="25.193" id="mask-2">
				<g class="st0">
					<polygon id="path-1" class="st1" points="12.251,12.194 12.251,-13 -13,-13 -13,12.194 					"/>
				</g>
			</mask>
			<path id="Fill-1" class="st2" d="M2.342,6.838h-5.433V4.301h0.815v-4.627h-0.815v-2.517H1.41v7.144h0.932V6.838z M-0.453-7.645
				c1.34,0,2.135,1.085,2.135,1.975c0,1.065-0.757,1.956-2.135,1.956c-1.222,0-2.095-1.026-2.095-1.956
				C-2.548-6.56-1.811-7.645-0.453-7.645L-0.453-7.645z M-0.375-13C-7.348-13-13-7.361-13-0.403c0,2.54,0.754,4.905,2.051,6.883
				l-1.274,4.747l4.689-1.254c2.035,1.4,4.501,2.221,7.16,2.221c6.973,0,12.626-5.64,12.626-12.597C12.251-7.361,6.597-13-0.375-13
				L-0.375-13z"/>
		</g>
	</g>
</g>
</svg>
