<?xml version="1.0" encoding="utf-8"?>
<!-- Generator: Adobe Illustrator 19.0.0, SVG Export Plug-In . SVG Version: 6.00 Build 0)  -->
<svg version="1.1" id="Layer_1" xmlns="http://www.w3.org/2000/svg" xmlns:xlink="http://www.w3.org/1999/xlink" x="0px" y="0px"
	 viewBox="165.454 69.4 32.242 32" style="enable-background:new 165.454 69.4 32.242 32;" xml:space="preserve">
<style type="text/css">
	.st0{fill:#FAF845;}
	.st1{fill:#514823;}
	.st2{fill:#6B5F2C;}
	.st3{fill:#91813A;}
	.st4{fill:#9E8B3E;}
	.st5{fill:#AF9D46;}
	.st6{fill:#BAAA49;}
	.st7{fill:#CCBD4C;}
	.st8{fill:#D6C94C;}
	.st9{fill:#E0D54B;}
	.st10{fill:#EAE249;}
	.st11{fill:#F2ED46;}
</style>
<path id="Fill-1" class="st0" d="M183.454,71.146c0-0.96-0.877-1.745-1.949-1.745h-0.103c-1.072,0-1.949,0.785-1.949,1.745v4.509
	c0,0.96,0.877,1.745,1.949,1.745h0.103c1.072,0,1.949-0.785,1.949-1.745V71.146z"/>
<path id="Fill-3" class="st1" d="M190.214,73.906c0.495-0.782,0.199-1.792-0.658-2.244l-0.082-0.043
	c-0.857-0.452-1.962-0.181-2.457,0.601l-2.324,3.674c-0.495,0.782-0.199,1.792,0.658,2.244l0.082,0.043
	c0.857,0.452,1.962,0.181,2.457-0.601L190.214,73.906z"/>
<path id="Fill-5" class="st2" d="M195.516,79.838c0.894-0.495,1.204-1.6,0.687-2.457l-0.049-0.082
	c-0.516-0.857-1.67-1.154-2.564-0.659l-4.199,2.323c-0.894,0.495-1.204,1.6-0.687,2.457l0.049,0.082
	c0.516,0.857,1.67,1.154,2.564,0.659L195.516,79.838z"/>
<path id="Fill-7" class="st3" d="M195.912,87.19c0.981,0,1.783-0.788,1.784-1.752v-0.092c0-0.964-0.802-1.753-1.783-1.753
	l-4.606-0.002c-0.981,0-1.783,0.788-1.784,1.752l0,0.093c0,0.964,0.802,1.753,1.783,1.753L195.912,87.19z"/>
<path id="Fill-10" class="st4" d="M193.589,94.16c0.894,0.495,2.048,0.199,2.564-0.657l0.05-0.082
	c0.516-0.856,0.208-1.962-0.686-2.456l-4.199-2.325c-0.894-0.495-2.048-0.199-2.565,0.657l-0.05,0.082
	c-0.517,0.856-0.208,1.962,0.686,2.457L193.589,94.16z"/>
<path id="Fill-12" class="st5" d="M187.015,98.58c0.494,0.782,1.6,1.053,2.458,0.602l0.082-0.043c0.857-0.451,1.154-1.46,0.66-2.243
	l-2.322-3.675c-0.494-0.782-1.6-1.054-2.457-0.602l-0.082,0.043c-0.857,0.451-1.154,1.46-0.66,2.243L187.015,98.58z"/>
<path id="Fill-14" class="st6" d="M179.454,99.654c-0.001,0.96,0.875,1.746,1.946,1.747h0.103c1.071,0.001,1.948-0.784,1.948-1.744
	l0.003-4.509c0.001-0.96-0.875-1.746-1.946-1.747h-0.103c-1.071-0.001-1.948,0.784-1.948,1.744L179.454,99.654z"/>
<path id="Fill-16" class="st7" d="M172.694,95.893c-0.495,0.782-0.2,1.792,0.656,2.244l0.082,0.043
	c0.856,0.452,1.961,0.183,2.456-0.6l2.325-3.674c0.495-0.782,0.2-1.792-0.656-2.244l-0.082-0.043
	c-0.856-0.452-1.961-0.183-2.456,0.6L172.694,95.893z"/>
<path id="Fill-18" class="st8" d="M168.392,90.96c-0.894,0.494-1.204,1.6-0.689,2.458l0.05,0.082
	c0.515,0.858,1.669,1.155,2.563,0.661l4.2-2.321c0.894-0.494,1.204-1.6,0.689-2.458l-0.049-0.082
	c-0.515-0.858-1.669-1.155-2.563-0.661L168.392,90.96z"/>
<path id="Fill-20" class="st9" d="M167.201,83.4c-0.96-0.001-1.746,0.874-1.747,1.945v0.103c-0.001,1.07,0.784,1.947,1.744,1.948
	l4.509,0.005c0.96,0.001,1.746-0.874,1.747-1.944v-0.103c0.001-1.07-0.784-1.947-1.744-1.948L167.201,83.4z"/>
<path id="Fill-22" class="st10" d="M170.32,76.641c-0.894-0.495-2.048-0.2-2.566,0.655l-0.05,0.082
	c-0.517,0.856-0.209,1.961,0.684,2.456l4.198,2.326c0.894,0.495,2.048,0.2,2.565-0.655l0.05-0.082
	c0.517-0.856,0.209-1.961-0.685-2.456L170.32,76.641z"/>
<path id="Fill-24" class="st11" d="M175.894,72.222c-0.494-0.783-1.6-1.054-2.458-0.604l-0.082,0.043
	c-0.858,0.451-1.156,1.46-0.662,2.242l2.32,3.676c0.494,0.783,1.6,1.054,2.458,0.604l0.082-0.043
	c0.858-0.451,1.156-1.46,0.662-2.242L175.894,72.222z"/>
</svg>
