<?xml version="1.0" encoding="utf-8"?>
<!-- Generator: Adobe Illustrator 19.0.0, SVG Export Plug-In . SVG Version: 6.00 Build 0)  -->
<svg version="1.1" id="Layer_1" xmlns="http://www.w3.org/2000/svg" xmlns:xlink="http://www.w3.org/1999/xlink" x="0px" y="0px"
	 viewBox="-301 393.201 7.806 7.799" style="enable-background:new -301 393.201 7.806 7.799;" xml:space="preserve">
<style type="text/css">
	.st0{fill:#FAF845;}
</style>
<path class="st0" d="M-293.364,400.101l-2.969-2.699c-0.013,0.017-0.029,0.032-0.043,0.049c0.367-0.45,0.596-1.016,0.596-1.641
	c0-1.44-1.169-2.609-2.61-2.609c-1.442,0-2.61,1.169-2.61,2.609c0,1.441,1.168,2.61,2.61,2.61c0.625,0,1.191-0.229,1.64-0.595
	c-0.016,0.013-0.031,0.029-0.048,0.042l2.704,2.965c0.199,0.218,0.54,0.225,0.748,0.017
	C-293.137,400.64-293.145,400.3-293.364,400.101z M-298.39,397.941c-1.177,0-2.131-0.954-2.131-2.131c0-1.176,0.954-2.13,2.131-2.13
	c1.177,0,2.131,0.954,2.131,2.13C-296.259,396.987-297.213,397.941-298.39,397.941z"/>
</svg>
