<?xml version="1.0" encoding="utf-8"?>
<!-- Generator: Adobe Illustrator 19.0.0, SVG Export Plug-In . SVG Version: 6.00 Build 0)  -->
<svg version="1.1" id="Layer_1" xmlns="http://www.w3.org/2000/svg" xmlns:xlink="http://www.w3.org/1999/xlink" x="0px" y="0px"
	 viewBox="-79 370 452 53" style="enable-background:new -79 370 452 53;" xml:space="preserve">
<style type="text/css">
	.st0{fill:#FAF845;}
	.st1{fill:#EAE41B;}
</style>
<g>
	<g>
		<path class="st0" d="M-1.3,393.8c-0.2-2.2-0.9-4-2.3-5.5s-3.3-2.3-5.8-2.3c-1.3,0-2.4,0.2-3.5,0.7c-1,0.4-1.9,1-2.6,1.7
			c-0.7,0.7-1.3,1.6-1.7,2.5s-0.6,1.9-0.7,2.9H-1.3L-1.3,393.8z M3.5,406.1c-0.3,0.4-0.8,0.8-1.4,1.4s-1.5,1.1-2.5,1.6
			s-2.2,1-3.6,1.4s-3,0.6-4.7,0.6c-2.2,0-4.1-0.4-5.9-1.1c-1.8-0.7-3.3-1.8-4.6-3.1c-1.3-1.3-2.3-2.9-3-4.8
			c-0.7-1.8-1.1-3.9-1.1-6.2c0-2.1,0.3-4,1-5.8c0.7-1.8,1.6-3.3,2.9-4.6c1.2-1.3,2.7-2.3,4.4-3.1c1.7-0.8,3.6-1.1,5.6-1.1
			c2.4,0,4.5,0.5,6.2,1.4c1.7,0.9,3.1,2.2,4.2,3.7s1.9,3.3,2.4,5.2c0.5,2,0.8,4,0.8,6.2h-22c0,1.2,0.3,2.4,0.8,3.4s1.2,1.9,2,2.7
			c0.8,0.8,1.8,1.4,2.9,1.8c1.1,0.4,2.2,0.7,3.4,0.7c2.4,0,4.3-0.4,5.8-1.2c1.5-0.8,2.6-1.6,3.3-2.4L3.5,406.1z"/>
		<path class="st0" d="M-53.6,370h5.3v16.3c0.4-0.5,0.8-1,1.3-1.6c0.5-0.6,1.2-1.1,1.9-1.6s1.6-0.9,2.6-1.2c1-0.3,2.1-0.5,3.4-0.5
			c3.6,0,6.3,1.1,8.1,3.2s2.6,5,2.6,8.7v16.8h-5.4v-16.3c0-2.6-0.6-4.5-1.7-5.8c-1.1-1.2-2.7-1.8-4.7-1.8c-1.6,0-2.9,0.3-3.9,1
			c-1,0.6-1.9,1.5-2.5,2.5s-1.1,2.2-1.4,3.5c-0.3,1.3-0.4,2.6-0.4,4v13h-5.4V370H-53.6z"/>
		<path class="st0" d="M-74,386.7h-5v-4.5h5V373h5.4v9.2h8.2v4.5h-8.2v13.8c0,2.3,0.4,3.8,1.1,4.6c0.7,0.8,1.7,1.3,3,1.3
			c1,0,1.9-0.2,2.6-0.5c0.7-0.3,1.4-0.8,2-1.4l2.5,3.3c-1.2,1.1-2.4,1.9-3.6,2.4c-1.2,0.5-2.7,0.8-4.4,0.8c-3,0-5.1-0.8-6.5-2.4
			s-2.1-4.1-2.1-7.5V386.7z"/>
	</g>
	<g>
		<path class="st0" d="M347.3,417.1c0.4,0.4,0.9,0.7,1.4,1c0.5,0.3,1.2,0.4,1.9,0.4c0.6,0,1.2-0.1,1.7-0.4c0.5-0.3,0.9-0.7,1.3-1.3
			c0.4-0.6,0.7-1.3,1.1-2.1c0.3-0.8,0.7-1.8,1.2-2.9l0.7-1.8L344,382.2h6.2l9,21.2l7.9-21.2h5.9l-11.2,27.3
			c-0.5,1.3-1.1,2.7-1.6,4.3c-0.5,1.5-1.2,3-2,4.4c-0.8,1.4-1.8,2.5-2.9,3.5c-1.2,0.9-2.6,1.4-4.4,1.4c-1.4,0-2.6-0.2-3.5-0.6
			c-1-0.4-1.8-0.9-2.5-1.5L347.3,417.1z"/>
		<path class="st0" d="M316.8,388.3c0-1.2,0-2.3,0-3.2s0-1.9-0.1-2.9h5.2l0.2,4.2c0.4-0.5,0.8-1,1.3-1.6c0.5-0.6,1.2-1.1,1.9-1.6
			c0.8-0.5,1.7-0.9,2.7-1.2s2.2-0.5,3.5-0.5c3.6,0,6.3,1.1,8.1,3.2c1.8,2.1,2.6,5,2.6,8.7v16.8h-5.4v-16.4c0-2.6-0.6-4.5-1.7-5.8
			c-1.1-1.2-2.7-1.8-4.7-1.8c-1.6,0-2.9,0.3-3.9,1c-1,0.6-1.9,1.5-2.5,2.5s-1.1,2.2-1.3,3.5c-0.3,1.3-0.4,2.6-0.4,4v13h-5.4v-21.9
			H316.8z"/>
		<path class="st0" d="M258.2,404.1c0.6,0.5,1.6,1,2.8,1.5c1.2,0.5,2.7,0.7,4.5,0.7c1.4,0,2.6-0.3,3.8-0.8c1.1-0.5,2.1-1.2,2.9-2.1
			s1.5-2,1.9-3.2c0.4-1.2,0.7-2.5,0.7-4c0-1.4-0.2-2.7-0.5-3.9c-0.3-1.2-0.8-2.3-1.4-3.2c-0.7-0.9-1.5-1.7-2.6-2.2
			c-1-0.5-2.3-0.8-3.8-0.8c-1.9,0-3.6,0.5-4.9,1.6c-1.4,1.1-2.3,2.6-2.9,4.7c-0.2,0.6-0.3,1.3-0.4,2.1c0,0.7-0.1,1.5-0.1,2.3V404.1
			L258.2,404.1z M252.9,388.3c0-1.2,0-2.3,0-3.2s0-1.9-0.1-2.9h5.2l0.2,4c0.3-0.4,0.7-0.8,1.2-1.3s1.2-1,2-1.5s1.7-0.9,2.7-1.2
			c1-0.3,2.2-0.5,3.6-0.5c2.2,0,4,0.4,5.6,1.2c1.6,0.8,2.9,1.9,3.9,3.3c1,1.4,1.8,2.9,2.3,4.7c0.5,1.8,0.8,3.6,0.8,5.6
			c0,2.5-0.4,4.7-1.3,6.6c-0.9,1.8-2,3.4-3.4,4.6c-1.4,1.2-2.9,2.1-4.6,2.7s-3.4,0.9-5,0.9c-1.9,0-3.4-0.2-4.5-0.6
			c-1.1-0.4-2.2-0.8-3.2-1.2v13H253v-34.2H252.9z"/>
		<path class="st0" d="M203.3,388.3c0-1.2,0-2.3,0-3.2s0-1.9-0.1-2.9h5.2l0.2,4.2c0.3-0.5,0.7-1,1.3-1.6c0.5-0.6,1.1-1.1,1.9-1.6
			s1.6-0.9,2.6-1.2s2.1-0.5,3.4-0.5c2.2,0,4,0.4,5.4,1.3c1.4,0.9,2.5,2.1,3.3,3.8c1.1-1.3,2.5-2.5,4.1-3.5s3.6-1.5,6-1.5
			c3.6,0,6.3,1.1,8,3.2c1.7,2.2,2.6,5,2.6,8.7v16.8h-5.4v-16.5c0-2.6-0.5-4.5-1.5-5.8c-1-1.2-2.5-1.8-4.5-1.8
			c-1.1,0-2.2,0.2-3.1,0.7s-1.8,1.1-2.5,1.8c-0.7,0.8-1.2,1.7-1.6,2.7s-0.6,2.1-0.6,3.2v15.6h-5.4v-16.4c0-2.6-0.5-4.5-1.5-5.8
			c-1-1.2-2.5-1.8-4.4-1.8c-1.5,0-2.7,0.3-3.7,1c-1,0.6-1.8,1.5-2.4,2.5s-1.1,2.2-1.3,3.5c-0.3,1.3-0.4,2.7-0.4,4v13h-5.4v-21.9
			H203.3z"/>
		<path class="st0" d="M183.9,406.4c1.4,0,2.7-0.3,3.9-0.9c1.2-0.6,2.1-1.3,2.9-2.3c0.8-0.9,1.4-2,1.8-3.3c0.4-1.2,0.6-2.5,0.6-3.8
			c0-1.2-0.2-2.5-0.6-3.7c-0.4-1.2-1-2.3-1.9-3.3c-0.8-1-1.8-1.7-2.9-2.3c-1.1-0.6-2.4-0.9-3.9-0.9c-1.4,0-2.7,0.3-3.9,0.9
			c-1.2,0.6-2.1,1.3-2.9,2.3c-0.8,0.9-1.4,2-1.8,3.3c-0.4,1.2-0.6,2.5-0.6,3.8c0,1.3,0.2,2.5,0.6,3.7c0.4,1.2,1,2.3,1.9,3.3
			c0.8,1,1.8,1.7,2.9,2.3C181.2,406.1,182.5,406.4,183.9,406.4L183.9,406.4z M183.9,411.1c-2.2,0-4.1-0.4-5.9-1.2
			c-1.8-0.8-3.4-1.9-4.7-3.2c-1.3-1.4-2.3-2.9-3.1-4.7c-0.7-1.8-1.1-3.7-1.1-5.8c0-2,0.4-4,1.1-5.8c0.7-1.8,1.8-3.4,3.1-4.7
			c1.3-1.3,2.9-2.4,4.7-3.2c1.8-0.8,3.8-1.2,5.9-1.2s4.1,0.4,5.9,1.2s3.4,1.9,4.7,3.2c1.3,1.4,2.4,2.9,3.1,4.7
			c0.7,1.8,1.1,3.7,1.1,5.8c0,2.1-0.4,4-1.1,5.8s-1.8,3.4-3.1,4.7c-1.3,1.4-2.9,2.4-4.7,3.2C188,410.7,186,411.1,183.9,411.1z"/>
		<path class="st0" d="M167.4,406.4c-1.2,1.4-2.8,2.5-4.6,3.4c-1.8,0.9-3.9,1.3-6.3,1.3c-2.2,0-4.3-0.4-6.1-1.1s-3.4-1.8-4.6-3.1
			c-1.3-1.3-2.2-2.9-2.9-4.7c-0.7-1.8-1-3.8-1-6c0-2,0.4-4,1.1-5.8c0.7-1.8,1.7-3.4,3-4.7c1.3-1.3,2.8-2.4,4.6-3.2
			c1.8-0.8,3.8-1.2,5.9-1.2c2.4,0,4.4,0.4,6.2,1.3c1.8,0.8,3.3,2,4.6,3.4l-3.5,3.4c-0.8-1-1.9-1.9-3.1-2.5c-1.2-0.6-2.6-0.9-4.3-0.9
			c-1.4,0-2.7,0.3-3.9,0.8c-1.1,0.5-2.1,1.3-2.9,2.2c-0.8,0.9-1.4,2-1.8,3.3c-0.4,1.2-0.6,2.5-0.6,3.8s0.2,2.5,0.6,3.8
			c0.4,1.2,1,2.3,1.8,3.3c0.8,0.9,1.7,1.7,2.9,2.3c1.1,0.6,2.4,0.8,3.9,0.8c1.6,0,3.1-0.3,4.4-0.9c1.3-0.6,2.4-1.5,3.2-2.5
			L167.4,406.4z"/>
		<path class="st0" d="M305.9,388.9c-1.4-1.2-3.2-2.7-6.8-2.6c-4,0-7.1,2.2-8.4,6c-0.5,1.3-0.7,2.7-0.7,4.3c0,1.3,0.2,2.6,0.5,3.8
			c1,3.8,3.7,5.9,7.6,5.9c3.5,0,6.3-2,7.4-5.3c0.3-0.9,0.5-1.8,0.5-2.6v-9.5H305.9z M305.9,406.7c-2.4,2.8-5.3,4.4-9.1,4.4
			c-5.5,0-9.7-3.4-11.5-8.5c-0.6-1.8-0.9-3.8-0.9-6c0-8.3,5.8-15.1,14.2-15.1c3.2,0,5.5,1,7.3,2.3v-1.7h5.4V404c0,1.2,0,2.3,0,3.2
			c0,0.9,0,1.9,0.1,2.9H306L305.9,406.7z"/>
	</g>
	<g>
		<path class="st1" d="M106.6,388.9c-1.4-1.2-3.2-2.7-6.8-2.6c-4,0-7.1,2.2-8.4,6c-0.5,1.3-0.7,2.7-0.7,4.3c0,1.3,0.2,2.6,0.5,3.8
			c1,3.8,3.7,5.9,7.6,5.9c3.5,0,6.3-2,7.4-5.3c0.3-0.9,0.4-1.8,0.4-2.6V388.9L106.6,388.9z M106.6,406.7c-2.4,2.8-5.3,4.4-9.1,4.4
			c-5.5,0-9.7-3.4-11.5-8.5c-0.6-1.8-0.9-3.8-0.9-6c0-8.3,5.8-15.1,14.2-15.1c3.2,0,5.5,1,7.3,2.3v-1.7h5.4V404c0,1.2,0,2.3,0,3.2
			c0,0.9,0,1.9,0.1,2.9h-5.3L106.6,406.7z"/>
		<path class="st1" d="M117.3,387.9c0-1.2,0-2.2,0-3c0-0.9,0-1.8-0.1-2.7h5.2l0.2,4.5c0.3-0.5,0.7-1,1.3-1.6
			c0.5-0.6,1.2-1.1,1.9-1.6s1.6-0.9,2.6-1.2c1-0.3,2.1-0.5,3.4-0.5c0.6,0,1.2,0,1.7,0.1s1,0.2,1.4,0.4l-1.2,5.1
			c-0.7-0.3-1.6-0.4-2.8-0.4s-2.2,0.2-3.2,0.7c-1,0.4-1.8,1.1-2.6,1.8c-0.7,0.8-1.3,1.7-1.7,2.7s-0.6,2.2-0.6,3.3v14.8h-5.4v-22.4
			H117.3z"/>
		<path class="st1" d="M75.7,393.8c-0.2-2.2-0.9-4-2.3-5.5c-1.4-1.5-3.3-2.3-5.8-2.3c-1.3,0-2.4,0.2-3.5,0.7c-1,0.4-1.9,1-2.6,1.7
			c-0.7,0.7-1.3,1.6-1.7,2.5s-0.6,1.9-0.7,2.9H75.7L75.7,393.8z M80.6,406.1c-0.3,0.4-0.8,0.8-1.4,1.4c-0.6,0.6-1.5,1.1-2.5,1.6
			s-2.2,1-3.6,1.4c-1.4,0.4-3,0.6-4.7,0.6c-2.2,0-4.1-0.4-5.9-1.1c-1.8-0.7-3.3-1.8-4.6-3.1c-1.3-1.3-2.3-2.9-3-4.8
			c-0.7-1.8-1.1-3.9-1.1-6.2c0-2.1,0.3-4,1-5.8c0.7-1.8,1.6-3.3,2.9-4.6c1.2-1.3,2.7-2.3,4.4-3.1c1.7-0.8,3.6-1.1,5.6-1.1
			c2.4,0,4.5,0.5,6.2,1.4c1.7,0.9,3.1,2.2,4.2,3.7c1.1,1.5,1.9,3.3,2.4,5.2c0.5,2,0.8,4,0.8,6.2h-22c0,1.2,0.3,2.4,0.8,3.4
			s1.2,1.9,2,2.7c0.8,0.8,1.8,1.4,2.9,1.8c1.1,0.4,2.2,0.7,3.4,0.7c2.4,0,4.3-0.4,5.8-1.2c1.5-0.8,2.6-1.6,3.3-2.4L80.6,406.1z"/>
		<rect x="44.1" y="370" class="st1" width="5.4" height="40.2"/>
		<path class="st1" d="M40.3,406.4c-1.2,1.4-2.8,2.5-4.6,3.4c-1.8,0.9-3.9,1.3-6.3,1.3c-2.2,0-4.3-0.4-6.1-1.1
			c-1.8-0.7-3.4-1.8-4.6-3.1c-1.3-1.3-2.2-2.9-2.9-4.7c-0.7-1.8-1-3.8-1-6c0-2,0.4-4,1.1-5.8c0.7-1.8,1.7-3.4,3-4.7
			c1.3-1.3,2.8-2.4,4.6-3.2c1.8-0.8,3.8-1.2,5.9-1.2c2.4,0,4.4,0.4,6.2,1.3c1.8,0.8,3.3,2,4.6,3.4l-3.5,3.4c-0.8-1-1.9-1.9-3.1-2.5
			c-1.2-0.6-2.6-0.9-4.3-0.9c-1.4,0-2.7,0.3-3.9,0.8c-1.1,0.5-2.1,1.3-2.9,2.2s-1.4,2-1.8,3.3c-0.4,1.2-0.6,2.5-0.6,3.8
			s0.2,2.5,0.6,3.8c0.4,1.2,1,2.3,1.8,3.3c0.8,0.9,1.7,1.7,2.9,2.3c1.1,0.6,2.4,0.8,3.9,0.8c1.6,0,3.1-0.3,4.4-0.9s2.4-1.5,3.2-2.5
			L40.3,406.4z"/>
	</g>
</g>
</svg>
