<svg width="56.349" height="56.349" xmlns="http://www.w3.org/2000/svg">

 <g>
  <title>background</title>
  <rect fill="none" id="canvas_background" height="402" width="582" y="-1" x="-1"/>
 </g>
 <g>
  <title>Layer 1</title>
  <g id="svg_1">
   <path stroke="#faf845" id="svg_2" fill="#faf845" d="m56.348999,42.772999l0,-35.036999l-56.348999,0l0,35.036999l23.493999,0l0,3.504002l-4.662001,0l0,2.335999l18.688002,0l0,-2.335999l-4.681,0l0,-3.504002l23.509998,0zm-54.012999,-2.334999l0,-30.366l51.679999,0l0,30.366l-51.679999,0zm5.937,-15.183001l0.687,-2.132999l3.976,0l0.709001,2.132999l1.160999,0l1.164001,0l-3.709001,-10.483l-1.268,0l-1.269,0l-3.709,10.483l1.137,0l1.121,0zm2.686,-8.146999l1.393001,4.211l-2.782001,0l1.389,-4.211zm6.606001,-2.266l33.236002,0l0,2.335999l-33.236002,0l0,-2.335999zm0,6.259999l33.236002,0l0,2.336l-33.236002,0l0,-2.336zm-12.044001,6.262001l45.279999,0l0,2.334999l-45.279999,0l0,-2.334999zm0,6.26l45.279999,0l0,2.336002l-45.279999,0l0,-2.336002z"/>
  </g>
  <g id="svg_3"/>
  <g id="svg_4"/>
  <g id="svg_5"/>
  <g id="svg_6"/>
  <g id="svg_7"/>
  <g id="svg_8"/>
  <g id="svg_9"/>
  <g id="svg_10"/>
  <g id="svg_11"/>
  <g id="svg_12"/>
  <g id="svg_13"/>
  <g id="svg_14"/>
  <g id="svg_15"/>
  <g id="svg_16"/>
  <g id="svg_17"/>
 </g>
</svg>