<?xml version="1.0" encoding="utf-8"?>
<!-- Generator: Adobe Illustrator 19.0.0, SVG Export Plug-In . SVG Version: 6.00 Build 0)  -->
<svg version="1.1" id="Layer_1" xmlns="http://www.w3.org/2000/svg" xmlns:xlink="http://www.w3.org/1999/xlink" x="0px" y="0px"
	 viewBox="-516 699.754 94.031 94.123" style="enable-background:new -516 699.754 94.031 94.123;" xml:space="preserve">
<style type="text/css">
	.st0{fill:#FAF845;}
</style>
<path class="st0" d="M-468.986,699.754c-25.965,0-47.014,21.069-47.014,47.06c0,9.49,2.809,18.323,7.636,25.715l-4.747,17.734
	l17.465-4.684c7.576,5.231,16.76,8.298,26.66,8.298c25.966,0,47.017-21.072,47.017-47.063
	C-421.969,720.823-443.019,699.754-468.986,699.754z M-469.624,718.29c3.92,0,5.92,2.72,5.92,5.04c0,2.64-1.84,5.84-6.32,6
	c-3.36,0.08-5.84-2.561-5.84-5.761C-475.864,720.929-473.144,718.29-469.624,718.29z M-458.345,769.571c0,0.56-0.159,0.8-0.72,0.8
	c-0.64,0-4.32-0.24-11.28-0.24c-4.64,0-7.76,0.24-8.64,0.24c-0.4,0-0.64-0.16-0.64-0.8v-1.601c0-0.479,0.24-0.64,0.8-0.64h2.96
	c0.88,0,1.44-0.32,1.52-1.601c0.16-2.399,0-18.321,0-18.321c0-2.24-0.48-3.84-3.84-5.04c-0.88-0.32-0.96-0.64-0.96-1.12v-0.88
	c0-0.24,0.16-0.4,0.88-0.64l11.92-3.841c0.88-0.319,1.6-0.479,2.16-0.479c0.641,0,0.88,0.4,0.8,0.96
	c-0.159,1.36-0.159,28.001-0.08,28.881c0.16,1.52,0.561,2.08,1.44,2.08h2.88c0.641,0,0.8,0.24,0.8,0.72L-458.345,769.571
	L-458.345,769.571z"/>
</svg>
