<?xml version="1.0" encoding="utf-8"?>
<!-- Generator: Adobe Illustrator 19.0.0, SVG Export Plug-In . SVG Version: 6.00 Build 0)  -->
<svg version="1.1" id="Layer_1" xmlns="http://www.w3.org/2000/svg" xmlns:xlink="http://www.w3.org/1999/xlink" x="0px" y="0px"
	 viewBox="-13 -12.5 25.408 24.561" style="enable-background:new -13 -12.5 25.408 24.561;" xml:space="preserve">
<style type="text/css">
	.st0{filter:url(#Adobe_OpacityMaskFilter);}
	.st1{fill:#FFFFFF;}
	.st2{mask:url(#mask-2);fill:#FAF845;}
</style>
<title>Page 1</title>
<desc>Created with Sketch.</desc>
<g id="Welcome">
	<g id="Search-Drop-Down-Menu" transform="translate(-457.000000, -264.000000)">
		<g id="Page-1" transform="translate(457.000000, 264.000000)">
			<g id="Clip-2">
			</g>
			<defs>
				<filter id="Adobe_OpacityMaskFilter" filterUnits="userSpaceOnUse" x="-13" y="-12.5" width="25.408" height="24.561">
					<feColorMatrix  type="matrix" values="1 0 0 0 0  0 1 0 0 0  0 0 1 0 0  0 0 0 1 0"/>
				</filter>
			</defs>
			<mask maskUnits="userSpaceOnUse" x="-13" y="-12.5" width="25.408" height="24.561" id="mask-2">
				<g class="st0">
					<polygon id="path-1" class="st1" points="12.407,-12.5 12.407,12.061 -13,12.061 -13,-12.5 					"/>
				</g>
			</mask>
			<path id="Fill-1" class="st2" d="M11.53,8.92H2.005V6.635h7.505V5.493H2.005V4.065h7.505V2.922H2.005V1.494h7.505V0.352H2.005
				v-1.428h7.505v-1.142H2.005v-1.428h7.505v-1.143H2.005v-1.428h7.505v-1.142H2.005v-1.999h9.525V8.92z M-3.37,3.662
				C-3.852,3.91-4.574,3.65-5.145,3.69C-5.529,1.8-5.977-0.079-6.32-1.979c-0.338,1.845-0.776,3.673-1.163,5.506
				c-0.554-0.028-1.111-0.062-1.669-0.1c-0.479-2.513-1.042-5.009-1.489-7.528c0.493-0.023,0.99-0.043,1.484-0.06
				c0.297,1.819,0.635,3.63,0.895,5.452c0.408-1.868,0.823-3.736,1.227-5.604c0.549-0.031,1.097-0.054,1.645-0.083
				c0.384,1.928,0.776,3.853,1.192,5.772c0.326-1.982,0.687-3.958,1.036-5.938c0.577-0.02,1.155-0.051,1.729-0.086
				C-2.086-1.879-2.657,0.912-3.37,3.662L-3.37,3.662z M12.379-9.107c0.061-0.651-0.456-1.157-1.114-1.091
				c-3.086-0.049-6.171,0-9.26-0.017V-12.5H0.279c-4.425,0.78-8.853,1.525-13.278,2.29c0,6.66-0.003,13.323,0,19.987
				c4.402,0.762,8.807,1.491,13.2,2.285h1.804V9.777c2.889,0,5.775-0.006,8.665,0.008c0.49-0.023,1.036,0.014,1.457-0.282
				c0.338-0.511,0.251-1.151,0.28-1.727C12.367,2.148,12.428-3.481,12.379-9.107L12.379-9.107z"/>
		</g>
	</g>
</g>
</svg>
